<?xml version="1.0" encoding="UTF-8"?>
<svg width="16px" height="16px" viewBox="0 0 16 16" version="1.1" xmlns="http://www.w3.org/2000/svg" xmlns:xlink="http://www.w3.org/1999/xlink">
    <!-- Generator: Sketch 50.2 (55047) - http://www.bohemiancoding.com/sketch -->
    <title>icons/bed--lightgray </title>
    <desc>Created with Sketch.</desc>
    <defs></defs>
    <g id="icons/bed--lightgray-" stroke="none" stroke-width="1" fill="none" fill-rule="evenodd">
        <g id="Bed" transform="translate(0.000000, 4.000000)" fill="#ADB7BF" fill-rule="nonzero">
            <path d="M14.1538462,4.30769231 L14.1538462,3.07409083 C14.1538462,2.73578751 14.4262525,2.46153846 14.7685887,2.46153846 L15.3852572,2.46153846 C15.7247705,2.46153846 16,2.74194732 16,3.07409083 L16,8.00283225 C16,8.34113557 15.7275938,8.61538462 15.3852572,8.61538462 L14.7685887,8.61538462 C14.4290758,8.61538462 14.1538462,8.33497575 14.1538462,8.00283225 L14.1538462,6.76923077 L1.84615385,6.76923077 L1.84615385,7.99578738 C1.84615385,8.33798148 1.57374751,8.61538462 1.23141132,8.61538462 L0.614742523,8.61538462 C0.2752296,8.61538462 0,8.33849305 0,7.99578738 L0,0.619597231 C0,0.277403138 0.272406338,0 0.614742523,0 L1.23141132,0 C1.57092425,0 1.84615385,0.276891569 1.84615385,0.619597231 L1.84615385,4.30769231 L14.1538462,4.30769231 Z M2.46153846,2.46089637 C2.46153846,2.12138345 2.73459483,1.84615385 3.07680462,1.84615385 L4.92319538,1.84615385 C5.26299748,1.84615385 5.53846154,2.11856018 5.53846154,2.46089637 L5.53846154,3.07756517 C5.53846154,3.41707809 5.26540517,3.69230769 4.92319538,3.69230769 L3.07680462,3.69230769 C2.73700252,3.69230769 2.46153846,3.41990135 2.46153846,3.07756517 L2.46153846,2.46089637 Z"></path>
        </g>
    </g>
</svg>