<?xml version="1.0" encoding="UTF-8"?>
<svg width="16px" height="16px" viewBox="0 0 16 16" version="1.1" xmlns="http://www.w3.org/2000/svg" xmlns:xlink="http://www.w3.org/1999/xlink">
    <!-- Generator: Sketch 50.2 (55047) - http://www.bohemiancoding.com/sketch -->
    <title>icons/bed--gray</title>
    <desc>Created with Sketch.</desc>
    <defs></defs>
    <g id="icons/bed--gray" stroke="none" stroke-width="1" fill="none" fill-rule="evenodd">
        <path d="M14.1538462,8.30769231 L14.1538462,7.07409083 C14.1538462,6.73578751 14.4262525,6.46153846 14.7685887,6.46153846 L15.3852572,6.46153846 C15.7247705,6.46153846 16,6.74194732 16,7.07409083 L16,12.0028322 C16,12.3411356 15.7275938,12.6153846 15.3852572,12.6153846 L14.7685887,12.6153846 C14.4290758,12.6153846 14.1538462,12.3349758 14.1538462,12.0028322 L14.1538462,10.7692308 L1.84615385,10.7692308 L1.84615385,11.9957874 C1.84615385,12.3379815 1.57374751,12.6153846 1.23141132,12.6153846 L0.614742523,12.6153846 C0.2752296,12.6153846 0,12.338493 0,11.9957874 L0,4.61959723 C0,4.27740314 0.272406338,4 0.614742523,4 L1.23141132,4 C1.57092425,4 1.84615385,4.27689157 1.84615385,4.61959723 L1.84615385,8.30769231 L14.1538462,8.30769231 Z M2.46153846,6.46089637 C2.46153846,6.12138345 2.73459483,5.84615385 3.07680462,5.84615385 L4.92319538,5.84615385 C5.26299748,5.84615385 5.53846154,6.11856018 5.53846154,6.46089637 L5.53846154,7.07756517 C5.53846154,7.41707809 5.26540517,7.69230769 4.92319538,7.69230769 L3.07680462,7.69230769 C2.73700252,7.69230769 2.46153846,7.41990135 2.46153846,7.07756517 L2.46153846,6.46089637 Z" id="Bed" fill="#80909D" fill-rule="nonzero"></path>
    </g>
</svg>