<?xml version="1.0" encoding="UTF-8"?>
<svg width="16px" height="16px" viewBox="0 0 16 16" version="1.1" xmlns="http://www.w3.org/2000/svg" xmlns:xlink="http://www.w3.org/1999/xlink">
    <!-- Generator: Sketch 50.2 (55047) - http://www.bohemiancoding.com/sketch -->
    <title>icons/burn--lightgray</title>
    <desc>Created with Sketch.</desc>
    <defs></defs>
    <g id="icons/burn--lightgray" stroke="none" stroke-width="1" fill="none" fill-rule="evenodd">
        <g id="Flame" transform="translate(2.000000, 0.000000)" fill="#ADB7BF" fill-rule="nonzero">
            <path d="M6.73509487,15.6861396 C9.41491217,14.0598595 10.7548205,12.0394887 10.7548205,9.6250271 C10.7548205,7.06673227 8.98505047,4.06599498 5.44551087,0.622815167 C5.41012497,0.588392744 5.36614616,0.564102809 5.31816676,0.552482153 C5.17017836,0.516639121 5.02115314,0.607551026 4.98531005,0.755539485 L4.98526593,0.75552873 C4.58653089,2.40182551 4.05686203,3.84887649 3.39625935,5.09668161 C2.31207711,7.14458063 0,8.49294074 0,11.0401351 C0,13.2121666 0.868183412,14.8632881 2.60455024,15.9934996 C2.37763171,15.5892391 2.26417272,15.1169032 2.26417272,14.5764918 C2.26417272,13.369926 3.35936731,12.7312292 3.87292686,11.7611717 C4.19042485,11.1614539 4.44407182,10.4645732 4.63386889,9.67052954 L4.63389536,9.67053583 C4.64805347,9.61130242 4.70754929,9.57476185 4.76678314,9.58892018 C4.78602718,9.59352007 4.8036796,9.60321335 4.81788899,9.61698342 C6.51167064,11.2584375 7.35856119,12.6881689 7.35856119,13.9061775 C7.35856119,14.5606223 7.15073945,15.1539431 6.73509487,15.6861396 Z"></path>
        </g>
    </g>
</svg>