<?xml version="1.0" encoding="UTF-8"?>
<svg width="16px" height="16px" viewBox="0 0 16 16" version="1.1" xmlns="http://www.w3.org/2000/svg" xmlns:xlink="http://www.w3.org/1999/xlink">
    <!-- Generator: Sketch 50.2 (55047) - http://www.bohemiancoding.com/sketch -->
    <title>icons/burn--gray</title>
    <desc>Created with Sketch.</desc>
    <defs></defs>
    <g id="icons/burn--gray" stroke="none" stroke-width="1" fill="none" fill-rule="evenodd">
        <path d="M8.73509487,15.6861396 C11.4149122,14.0598595 12.7548205,12.0394887 12.7548205,9.6250271 C12.7548205,7.06673227 10.9850505,4.06599498 7.44551087,0.622815167 C7.41012497,0.588392744 7.36614616,0.564102809 7.31816676,0.552482153 C7.17017836,0.516639121 7.02115314,0.607551026 6.98531005,0.755539485 L6.98526593,0.75552873 C6.58653089,2.40182551 6.05686203,3.84887649 5.39625935,5.09668161 C4.31207711,7.14458063 2,8.49294074 2,11.0401351 C2,13.2121666 2.86818341,14.8632881 4.60455024,15.9934996 C4.37763171,15.5892391 4.26417272,15.1169032 4.26417272,14.5764918 C4.26417272,13.369926 5.35936731,12.7312292 5.87292686,11.7611717 C6.19042485,11.1614539 6.44407182,10.4645732 6.63386889,9.67052954 L6.63389536,9.67053583 C6.64805347,9.61130242 6.70754929,9.57476185 6.76678314,9.58892018 C6.78602718,9.59352007 6.8036796,9.60321335 6.81788899,9.61698342 C8.51167064,11.2584375 9.35856119,12.6881689 9.35856119,13.9061775 C9.35856119,14.5606223 9.15073945,15.1539431 8.73509487,15.6861396 Z" id="Flame" fill="#80909D" fill-rule="nonzero"></path>
    </g>
</svg>