<?xml version="1.0" encoding="UTF-8"?>
<svg width="16px" height="16px" viewBox="0 0 16 16" version="1.1" xmlns="http://www.w3.org/2000/svg" xmlns:xlink="http://www.w3.org/1999/xlink">
    <!-- Generator: Sketch 50.2 (55047) - http://www.bohemiancoding.com/sketch -->
    <title>icons/calendar--gray</title>
    <desc>Created with Sketch.</desc>
    <defs></defs>
    <g id="icons/calendar--gray" stroke="none" stroke-width="1" fill="none" fill-rule="evenodd">
        <path d="M13,2 L14.33923,2 C15.072353,2 15.6666667,2.6015625 15.6666667,3.32970763 L15.6666667,14.6702924 C15.6666667,15.4046696 15.0735507,16 14.33923,16 L2.32743667,16 C1.59431364,16 1,15.3984375 1,14.6702924 L1,3.32970763 C1,2.59533039 1.59311597,2 2.32743667,2 L3.66666667,2 L3.66666667,2.32840738 C3.66666667,3.25021927 4.41285875,4 5.33333333,4 C6.2602253,4 7,3.25160249 7,2.32840738 L7,2 L9.66666667,2 L9.66666667,2.32840738 C9.66666667,3.25021927 10.4128588,4 11.3333333,4 C12.2602253,4 13,3.25160249 13,2.32840738 L13,2 L13,2 Z M2.33333333,6.00456365 C2.33333333,5.63385338 2.62996419,5.33333333 2.99559846,5.33333333 L13.6710682,5.33333333 C14.0368271,5.33333333 14.3333333,5.63329917 14.3333333,6.00456365 L14.3333333,13.9954364 C14.3333333,14.3661466 14.0367025,14.6666667 13.6710682,14.6666667 L2.99559846,14.6666667 C2.62983953,14.6666667 2.33333333,14.3667008 2.33333333,13.9954364 L2.33333333,6.00456365 L2.33333333,6.00456365 Z M3.66666667,7.33333333 C3.66666667,6.9651435 3.96257655,6.66666667 4.33333333,6.66666667 C4.70152317,6.66666667 5,6.96257655 5,7.33333333 C5,7.70152317 4.70409012,8 4.33333333,8 C3.9651435,8 3.66666667,7.70409012 3.66666667,7.33333333 L3.66666667,7.33333333 Z M6.33333333,7.33333333 C6.33333333,6.9651435 6.62924321,6.66666667 7,6.66666667 C7.36818983,6.66666667 7.66666667,6.96257655 7.66666667,7.33333333 C7.66666667,7.70152317 7.37075679,8 7,8 C6.63181017,8 6.33333333,7.70409012 6.33333333,7.33333333 L6.33333333,7.33333333 Z M9,7.33333333 C9,6.9651435 9.29590988,6.66666667 9.66666667,6.66666667 C10.0348565,6.66666667 10.3333333,6.96257655 10.3333333,7.33333333 C10.3333333,7.70152317 10.0374235,8 9.66666667,8 C9.29847683,8 9,7.70409012 9,7.33333333 L9,7.33333333 Z M11.6666667,7.33333333 C11.6666667,6.9651435 11.9625765,6.66666667 12.3333333,6.66666667 C12.7015232,6.66666667 13,6.96257655 13,7.33333333 C13,7.70152317 12.7040901,8 12.3333333,8 C11.9651435,8 11.6666667,7.70409012 11.6666667,7.33333333 L11.6666667,7.33333333 Z M3.66666667,10 C3.66666667,9.63181017 3.96257655,9.33333333 4.33333333,9.33333333 C4.70152317,9.33333333 5,9.62924321 5,10 C5,10.3681898 4.70409012,10.6666667 4.33333333,10.6666667 C3.9651435,10.6666667 3.66666667,10.3707568 3.66666667,10 L3.66666667,10 Z M6.33333333,10 C6.33333333,9.63181017 6.62924321,9.33333333 7,9.33333333 C7.36818983,9.33333333 7.66666667,9.62924321 7.66666667,10 C7.66666667,10.3681898 7.37075679,10.6666667 7,10.6666667 C6.63181017,10.6666667 6.33333333,10.3707568 6.33333333,10 L6.33333333,10 Z M8.66666667,9.33025932 C8.66666667,9.14786214 8.81050173,9 8.99692599,9 L10.3364073,9 C10.5188045,9 10.6666667,9.14383507 10.6666667,9.33025932 L10.6666667,10.6697407 C10.6666667,10.8521379 10.5228316,11 10.3364073,11 L8.99692599,11 C8.8145288,11 8.66666667,10.8561649 8.66666667,10.6697407 L8.66666667,9.33025932 L8.66666667,9.33025932 Z M11.3333333,9.33025932 C11.3333333,9.14786214 11.4771684,9 11.6635927,9 L13.003074,9 C13.1854712,9 13.3333333,9.14383507 13.3333333,9.33025932 L13.3333333,10.6697407 C13.3333333,10.8521379 13.1894983,11 13.003074,11 L11.6635927,11 C11.4811955,11 11.3333333,10.8561649 11.3333333,10.6697407 L11.3333333,9.33025932 L11.3333333,9.33025932 Z M3.33333333,11.996926 C3.33333333,11.8145288 3.4771684,11.6666667 3.66359266,11.6666667 L5.00307401,11.6666667 C5.1854712,11.6666667 5.33333333,11.8105017 5.33333333,11.996926 L5.33333333,13.3364073 C5.33333333,13.5188045 5.18949827,13.6666667 5.00307401,13.6666667 L3.66359266,13.6666667 C3.48119547,13.6666667 3.33333333,13.5228316 3.33333333,13.3364073 L3.33333333,11.996926 L3.33333333,11.996926 Z M6,11.996926 C6,11.8145288 6.14383507,11.6666667 6.33025932,11.6666667 L7.66974068,11.6666667 C7.85213786,11.6666667 8,11.8105017 8,11.996926 L8,13.3364073 C8,13.5188045 7.85616493,13.6666667 7.66974068,13.6666667 L6.33025932,13.6666667 C6.14786214,13.6666667 6,13.5228316 6,13.3364073 L6,11.996926 L6,11.996926 Z M9,12.6666667 C9,12.2984768 9.29590988,12 9.66666667,12 C10.0348565,12 10.3333333,12.2959099 10.3333333,12.6666667 C10.3333333,13.0348565 10.0374235,13.3333333 9.66666667,13.3333333 C9.29847683,13.3333333 9,13.0374235 9,12.6666667 L9,12.6666667 Z M11.6666667,12.6666667 C11.6666667,12.2984768 11.9625765,12 12.3333333,12 C12.7015232,12 13,12.2959099 13,12.6666667 C13,13.0348565 12.7040901,13.3333333 12.3333333,13.3333333 C11.9651435,13.3333333 11.6666667,13.0374235 11.6666667,12.6666667 L11.6666667,12.6666667 Z M4.33333333,1.00010991 C4.33333333,0.447764459 4.77719816,0 5.33333333,0 C5.88561808,0 6.33333333,0.449548165 6.33333333,1.00010991 L6.33333333,2.33322342 C6.33333333,2.88556887 5.88946851,3.33333333 5.33333333,3.33333333 C4.78104858,3.33333333 4.33333333,2.88378517 4.33333333,2.33322342 L4.33333333,1.00010991 L4.33333333,1.00010991 Z M10.3333333,1.00010991 C10.3333333,0.447764459 10.7771982,0 11.3333333,0 C11.8856181,0 12.3333333,0.449548165 12.3333333,1.00010991 L12.3333333,2.33322342 C12.3333333,2.88556887 11.8894685,3.33333333 11.3333333,3.33333333 C10.7810486,3.33333333 10.3333333,2.88378517 10.3333333,2.33322342 L10.3333333,1.00010991 L10.3333333,1.00010991 Z" id="ThisWeek" fill="#80909D"></path>
    </g>
</svg>