<?xml version="1.0" encoding="UTF-8"?>
<svg width="16px" height="16px" viewBox="0 0 16 16" version="1.1" xmlns="http://www.w3.org/2000/svg" xmlns:xlink="http://www.w3.org/1999/xlink">
    <!-- Generator: Sketch 50.2 (55047) - http://www.bohemiancoding.com/sketch -->
    <title>icons/clock--dark</title>
    <desc>Created with Sketch.</desc>
    <defs></defs>
    <g id="icons/clock--dark" stroke="none" stroke-width="1" fill="none" fill-rule="evenodd">
        <path d="M8,16 C12.418278,16 16,12.418278 16,8 C16,3.581722 12.418278,0 8,0 C3.581722,0 0,3.581722 0,8 C0,12.418278 3.581722,16 8,16 L8,16 L8,16 L8,16 Z M8.19837195,2.52922175 C7.70926408,2.52922175 7.60274059,2.91218121 7.60274059,2.91218121 L7.30492491,7.6764819 C7.30492491,7.6764819 5.95350188,8.8159832 5.23634372,9.53314136 C5.23634372,9.53314136 4.95015561,9.92585297 5.23146765,10.2818065 C5.5124046,10.63776 5.90136538,10.5049807 5.90136538,10.5049807 C6.85107482,10.0169981 8.35215586,9.04928465 8.92940817,8.67232652 C9.07606551,8.57630534 9.15933387,8.40901845 9.14845648,8.23385482 L8.81500794,2.92268353 C8.81500794,2.92268353 8.68747981,2.52922175 8.19837195,2.52922175 L8.19837195,2.52922175 L8.19837195,2.52922175 L8.19837195,2.52922175 Z" id="Clock" fill="#FFFFFF"></path>
    </g>
</svg>
