<?xml version="1.0" encoding="UTF-8"?>
<svg width="16px" height="16px" viewBox="0 0 16 16" version="1.1" xmlns="http://www.w3.org/2000/svg" xmlns:xlink="http://www.w3.org/1999/xlink">
    <!-- Generator: Sketch 50.2 (55047) - http://www.bohemiancoding.com/sketch -->
    <title>icons/compare--lightgray</title>
    <desc>Created with Sketch.</desc>
    <defs></defs>
    <g id="icons/compare--lightgray" stroke="none" stroke-width="1" fill="none" fill-rule="evenodd">
        <g id="Scales" transform="translate(0.000000, 1.000000)" fill="#ADB7BF" fill-rule="nonzero">
            <path d="M13.986014,3.14352542 L14.4610239,3.14352542 C14.6352359,3.14352542 14.7692308,3.00478006 14.7692308,2.83362905 L14.7692308,2.27393458 C14.7692308,2.09934037 14.6312418,1.96403822 14.4610239,1.96403822 L8.70556037,1.96403822 L8.63359286,0.308786215 C8.62625809,0.1400856 8.48111822,0 8.30959237,0 L7.69997323,0 C7.52111206,0 7.38338738,0.138248308 7.37597268,0.308786215 L7.30400523,1.96403822 L1.53897606,1.96403822 C1.36476412,1.96403822 1.23076923,2.10278357 1.23076923,2.27393458 L1.23076923,2.83362905 C1.23076923,3.0082232 1.36875815,3.14352542 1.53897606,3.14352542 L2.01398603,3.14352542 L0,8.45121772 L0.615384615,8.45121772 L2.46153846,3.58583311 L2.46153846,8.45121772 L3.07692308,8.45121772 L3.07692308,3.58583311 L4.92307692,8.45121772 L5.53846154,8.45121772 L3.52447551,3.14352542 L7.25272314,3.14352542 L6.87657766,11.7948718 L4.8769584,11.7948718 C4.22305237,11.7948718 3.69709046,12.3229462 3.69709046,12.974359 L3.69709046,14.1538462 L12.3124751,14.1538462 L12.3124751,12.974359 C12.3124751,12.3184047 11.7842302,11.7948718 11.1326071,11.7948718 L9.13298794,11.7948718 L8.7568424,3.14352542 L12.4755245,3.14352542 L10.4615385,8.45121772 L11.0769231,8.45121772 L12.9230769,3.58583311 L12.9230769,8.45121772 L13.5384615,8.45121772 L13.5384615,3.58583311 L15.3846154,8.45121772 L16,8.45121772 L13.986014,3.14352542 Z M0,8.45121772 L5.53846154,8.45121772 C5.53846154,8.45121772 5.53846154,10.6153846 2.76923077,10.6153846 C0,10.6153846 0,8.45121772 0,8.45121772 Z M10.4615385,8.45121772 L16,8.45121772 C16,8.45121772 16,10.6153846 13.2307692,10.6153846 C10.4615385,10.6153846 10.4615385,8.45121772 10.4615385,8.45121772 Z"></path>
        </g>
    </g>
</svg>