<?xml version="1.0" encoding="UTF-8"?>
<svg width="16px" height="16px" viewBox="0 0 16 16" version="1.1" xmlns="http://www.w3.org/2000/svg" xmlns:xlink="http://www.w3.org/1999/xlink">
    <!-- Generator: Sketch 50.2 (55047) - http://www.bohemiancoding.com/sketch -->
    <title>icons/dashboard--dark</title>
    <desc>Created with Sketch.</desc>
    <defs></defs>
    <g id="icons/dashboard--dark" stroke="none" stroke-width="1" fill="none" fill-rule="evenodd">
        <path d="M8.88617292,5.06410376 C8.60437319,5.02296744 8.30913586,5.00110538 8.00004469,5.00110538 C3.99783394,5.00110538 2.31635538,8.67337962 2.05734063,10.3834595 C2.01169934,10.6847947 2.00608255,11.6711341 2.00608255,11.6711341 C2.00019164,12.0447922 1.69839835,12.3384918 1.33038942,12.3384918 L0.66196227,12.3384918 C0.290893143,12.3384918 -0.0024105798,12.037546 1.49352771e-05,11.6663106 C1.49352771e-05,11.6663106 0.00420620971,10.573735 0.0210503865,10.3617207 C0.348393387,6.2415191 3.79567036,3 8.00004469,3 C8.96925943,3 9.89824056,3.17226056 10.758042,3.48783561 C9.94635694,4.15088516 9.28576281,4.70922349 8.88617292,5.06410376 L8.88617292,5.06410376 L8.88617292,5.06410376 L8.88617292,5.06410376 Z M13.1626639,8.20080433 C13.6061607,9.00537423 13.8545026,9.80293282 13.9421284,10.3793712 C13.9882545,10.6828075 13.9939166,11.6701979 13.9939166,11.6701979 C13.9991325,12.0392864 14.2986308,12.3384918 14.6697,12.3384918 L15.3381271,12.3384918 C15.706136,12.3384918 16.0026909,12.0419458 15.9999816,11.6732948 C15.9999816,11.6732948 15.9955335,10.5650897 15.9780097,10.3488951 C15.8617648,8.91475273 15.3674808,7.58746049 14.5949353,6.46679591 C14.0493808,7.14167617 13.5563045,7.73710148 13.1626639,8.20080433 L13.1626639,8.20080433 L13.1626639,8.20080433 L13.1626639,8.20080433 Z M6.50933127,11.2583286 C7.16056482,11.9095622 8.21642303,11.9095622 8.86765658,11.2583286 C9.51889013,10.6070951 14.7634699,4.18335268 14.1738885,3.59377135 C13.5843072,3.00419003 7.16056482,8.24876975 6.50933127,8.90000331 C5.85809772,9.55123686 5.85809772,10.6070951 6.50933127,11.2583286 L6.50933127,11.2583286 L6.50933127,11.2583286 L6.50933127,11.2583286 Z" id="Dashboard" fill="#4F5B64"></path>
    </g>
</svg>