<?xml version="1.0" encoding="UTF-8"?>
<svg width="16px" height="16px" viewBox="0 0 16 16" version="1.1" xmlns="http://www.w3.org/2000/svg" xmlns:xlink="http://www.w3.org/1999/xlink">
    <!-- Generator: Sketch 50.2 (55047) - http://www.bohemiancoding.com/sketch -->
    <title>icons/edit--gray</title>
    <desc>Created with Sketch.</desc>
    <defs></defs>
    <g id="icons/edit--gray" stroke="none" stroke-width="1" fill="none" fill-rule="evenodd">
        <path d="M0.0234738077,15.5863292 C-0.0781876094,15.8315229 0.168490829,16.0782117 0.415169268,15.976546 L5.45637954,13.8864189 C5.54757581,13.8490418 5.62980196,13.7937237 5.69857291,13.7249499 L14.1417638,5.28295331 C14.2583755,5.16633678 14.2583755,4.97646114 14.1417638,4.8598446 L11.139762,1.85771636 C11.0231504,1.74109982 10.8347778,1.74109982 10.7181661,1.85771636 L2.27497519,10.301208 C2.20620423,10.3699818 2.15088846,10.4522114 2.11351294,10.5434116 L0.0234738077,15.5863292 L0.0234738077,15.5863292 L0.0234738077,15.5863292 L0.0234738077,15.5863292 Z M15.2902389,0.709791027 C14.3438907,-0.236597009 12.8114943,-0.236597009 11.8666411,0.709791027 L15.2902389,4.1335329 C16.236587,3.18863994 16.236587,1.65468398 15.2902389,0.709791027 L15.2902389,0.709791027 L15.2902389,0.709791027 L15.2902389,0.709791027 Z" id="Pencil" fill="#80909D"></path>
    </g>
</svg>