<?xml version="1.0" encoding="UTF-8"?>
<svg width="16px" height="16px" viewBox="0 0 16 16" version="1.1" xmlns="http://www.w3.org/2000/svg" xmlns:xlink="http://www.w3.org/1999/xlink">
    <!-- Generator: Sketch 50.2 (55047) - http://www.bohemiancoding.com/sketch -->
    <title>icons/feed--dark</title>
    <desc>Created with Sketch.</desc>
    <defs></defs>
    <g id="icons/feed--dark" stroke="none" stroke-width="1" fill="none" fill-rule="evenodd">
        <g id="Map" transform="translate(0.000000, 1.000000)" fill="#4F5B64" fill-rule="nonzero">
            <path d="M0,1.71620308 C0,1.37608615 0.264686154,1.03419077 0.593838154,0.951907692 L4.32923877,0.0180553846 C4.65720677,-0.0639384615 4.92307692,0.140523077 4.92307692,0.485433846 L4.92307692,11.6723138 C4.92307692,12.0124308 4.65839077,12.35432 4.32923877,12.4366092 L0.593838154,13.3704615 C0.265870154,13.4524492 0,13.2479877 0,12.9030831 L0,1.71620308 Z M5.53846154,0.485433846 C5.53846154,0.145316923 5.78936615,-0.00495384615 6.08412677,0.142430769 L9.91587323,2.05830154 C10.2172357,2.20898462 10.4615385,2.60206154 10.4615385,2.94697231 L10.4615385,14.1338523 C10.4615385,14.4739692 10.2106338,14.6242338 9.91587323,14.4768554 L6.08412677,12.5609846 C5.78276431,12.4103015 5.53846154,12.0172185 5.53846154,11.6723138 L5.53846154,0.485433846 Z M11.0769231,2.94697231 C11.0769231,2.60685538 11.3416092,2.26496 11.6707612,2.18267692 L15.4061618,1.24882462 C15.7341298,1.16683077 16,1.37129231 16,1.71620308 L16,12.9030831 C16,13.2432 15.7353138,13.5850892 15.4061618,13.6673785 L11.6707612,14.6012308 C11.3427932,14.6832185 11.0769231,14.4787569 11.0769231,14.1338523 L11.0769231,2.94697231 Z"></path>
        </g>
    </g>
</svg>