<?xml version="1.0" encoding="UTF-8"?>
<svg width="16px" height="16px" viewBox="0 0 16 16" version="1.1" xmlns="http://www.w3.org/2000/svg" xmlns:xlink="http://www.w3.org/1999/xlink">
    <!-- Generator: Sketch 50.2 (55047) - http://www.bohemiancoding.com/sketch -->
    <title>icons/flash--dark</title>
    <desc>Created with Sketch.</desc>
    <defs></defs>
    <g id="icons/flash--dark" stroke="none" stroke-width="1" fill="none" fill-rule="evenodd">
        <path d="M3.03019667,16.0000003 C2.73535,16.0000003 6.018458,9.57628698 6.018458,9.57628698 C6.17402133,9.24107365 5.940676,8.85124031 5.58251933,8.85124031 L3.48603333,8.85124031 C3.13872933,8.85124031 2.905384,8.48401365 3.037432,8.15256031 L6.22466933,0.160113647 C6.262656,0.0621869805 6.35490867,-0.00183968614 6.45439667,4.03138612e-05 L11.973274,0.0132203139 C12.1776767,0.0132203139 12.2934447,0.256160314 12.17225,0.427533647 L8.75528533,5.23731365 C8.632282,5.40868698 8.74985867,5.64974698 8.954262,5.64974698 C8.954262,5.64974698 12.114366,5.42752031 12.3296227,5.64974698 C12.5448787,5.87384698 3.32504333,16.0000003 3.03019667,16.0000003" id="Flash" fill="#4F5B64" fill-rule="nonzero"></path>
    </g>
</svg>