<?xml version="1.0" encoding="UTF-8"?>
<svg width="16px" height="16px" viewBox="0 0 16 16" version="1.1" xmlns="http://www.w3.org/2000/svg" xmlns:xlink="http://www.w3.org/1999/xlink">
    <!-- Generator: Sketch 50.2 (55047) - http://www.bohemiancoding.com/sketch -->
    <title>icons/flash--lightgray</title>
    <desc>Created with Sketch.</desc>
    <defs></defs>
    <g id="icons/flash--lightgray" stroke="none" stroke-width="1" fill="none" fill-rule="evenodd">
        <g id="Flash" transform="translate(3.000000, 0.000000)" fill="#ADB7BF" fill-rule="nonzero">
            <path d="M0.0301966667,16 C-0.26465,16 3.018458,9.57628667 3.018458,9.57628667 C3.17402133,9.24107333 2.940676,8.85124 2.58251933,8.85124 L0.486033333,8.85124 C0.138729333,8.85124 -0.094616,8.48401333 0.037432,8.15256 L3.22466933,0.160113333 C3.262656,0.0621866667 3.35490867,-0.00184 3.45439667,4.00000001e-05 L8.973274,0.01322 C9.17767667,0.01322 9.29344467,0.25616 9.17225,0.427533333 L5.75528533,5.23731333 C5.632282,5.40868667 5.74985867,5.64974667 5.954262,5.64974667 C5.954262,5.64974667 9.114366,5.42752 9.32962267,5.64974667 C9.54487867,5.87384667 0.325043333,16 0.0301966667,16"></path>
        </g>
    </g>
</svg>