<?xml version="1.0" encoding="UTF-8"?>
<svg width="127px" height="49px" viewBox="0 0 127 49" version="1.1" xmlns="http://www.w3.org/2000/svg" xmlns:xlink="http://www.w3.org/1999/xlink">
    <!-- Generator: Sketch 50.2 (55047) - http://www.bohemiancoding.com/sketch -->
    <title>21.1</title>
    <desc>Created with Sketch.</desc>
    <defs></defs>
    <g id="Symbols" stroke="none" stroke-width="1" fill="none" fill-rule="evenodd">
        <g id="components/preparation" transform="translate(-199.000000, -24.000000)" fill="#7ED321">
            <g id="Group-2">
                <g id="Group" transform="translate(16.000000, 24.000000)">
                    <path d="M197.72,28.008 C200.792015,25.4906541 202.999993,23.5813398 204.344,22.28 C205.688007,20.9786602 206.594664,19.890671 207.064,19.016 C207.533336,18.141329 207.768,17.170672 207.768,16.104 C207.768,14.6533261 207.266672,13.4693379 206.264,12.552 C205.261328,11.6346621 203.906675,11.176 202.2,11.176 C200.578659,11.176 199.14934,11.6986614 197.912,12.744 C196.67466,13.7893386 195.352007,15.6133203 193.944,18.216 C193.730666,18.6000019 193.410669,18.792 192.984,18.792 C192.685332,18.792 192.322669,18.6853344 191.896,18.472 L184.28,14.696 C183.682664,14.3973318 183.384,13.9280032 183.384,13.288 C183.384,12.9039981 183.490666,12.541335 183.704,12.2 C186.093345,8.31731392 188.834651,5.45867584 191.928,3.624 C195.021349,1.78932416 198.701312,0.872 202.968,0.872 C206.808019,0.872 210.146652,1.50132704 212.984,2.76 C215.821348,4.01867296 218.007992,5.78932192 219.544,8.072 C221.080008,10.3546781 221.848,12.9893184 221.848,15.976 C221.848,18.4933459 221.208006,20.7653232 219.928,22.792 C218.647994,24.8186768 216.472015,26.8559898 213.4,28.904 L202.2,36.392 C201.901332,36.6053344 201.752,36.7759994 201.752,36.904 C201.752,37.0746675 202.029331,37.16 202.584,37.16 L220.824,37.16 C221.805338,37.16 222.296,37.5653293 222.296,38.376 L222.296,47.592 C222.296,48.0186688 222.157335,48.3599987 221.88,48.616 C221.602665,48.8720013 221.208003,49 220.696,49 L184.92,49 C184.279997,49 183.832001,48.8933344 183.576,48.68 C183.319999,48.4666656 183.192,48.0400032 183.192,47.4 L183.192,41.064 C183.192,40.722665 183.415998,40.2746694 183.864,39.72 C184.312002,39.1653306 185.346659,38.2266733 186.968,36.904 L197.72,28.008 Z M255.512,38.504 C256.493338,38.504 256.984,38.9093293 256.984,39.72 L256.984,47.592 C256.984,48.0186688 256.845335,48.3599987 256.568,48.616 C256.290665,48.8720013 255.896003,49 255.384,49 L228.184,49 C227.159995,49 226.648,48.5520045 226.648,47.656 L226.648,39.72 C226.648,38.9093293 227.117329,38.504 228.056,38.504 L233.752,38.504 C233.965334,38.504 234.146666,38.4506672 234.296,38.344 C234.445334,38.2373328 234.52,38.0986675 234.52,37.928 L234.52,16.552 C234.52,16.1679981 234.445334,15.9120006 234.296,15.784 C234.146666,15.6559994 233.858669,15.6346662 233.432,15.72 L228.312,16.872 C228.183999,16.9146669 227.992001,16.936 227.736,16.936 C226.967996,16.936 226.584,16.4240051 226.584,15.4 L226.584,10.024 C226.584,9.51199744 226.658666,9.12800128 226.808,8.872 C226.957334,8.61599872 227.266664,8.3813344 227.736,8.168 L239.256,2.408 C239.981337,2.06666496 240.557331,1.83200064 240.984,1.704 C241.410669,1.57599936 241.901331,1.512 242.456,1.512 L247.896,1.512 C248.237335,1.512 248.514666,1.62933216 248.728,1.864 C248.941334,2.09866784 249.048,2.4293312 249.048,2.856 L249.048,37.736 C249.048,38.2480026 249.282664,38.504 249.752,38.504 L255.512,38.504 Z M274.264,47.144 C274.264,47.8266701 274.104002,48.3066653 273.784,48.584 C273.463998,48.8613347 272.920004,49 272.152,49 L262.552,49 C261.911997,49 261.464001,48.8720013 261.208,48.616 C260.951999,48.3599987 260.824,47.9546694 260.824,47.4 L260.824,37.544 C260.824,37.0746643 260.930666,36.7226678 261.144,36.488 C261.357334,36.2533322 261.655998,36.136 262.04,36.136 L273.112,36.136 C273.880004,36.136 274.264,36.5626624 274.264,37.416 L274.264,47.144 Z M307.736,38.504 C308.717338,38.504 309.208,38.9093293 309.208,39.72 L309.208,47.592 C309.208,48.0186688 309.069335,48.3599987 308.792,48.616 C308.514665,48.8720013 308.120003,49 307.608,49 L280.408,49 C279.383995,49 278.872,48.5520045 278.872,47.656 L278.872,39.72 C278.872,38.9093293 279.341329,38.504 280.28,38.504 L285.976,38.504 C286.189334,38.504 286.370666,38.4506672 286.52,38.344 C286.669334,38.2373328 286.744,38.0986675 286.744,37.928 L286.744,16.552 C286.744,16.1679981 286.669334,15.9120006 286.52,15.784 C286.370666,15.6559994 286.082669,15.6346662 285.656,15.72 L280.536,16.872 C280.407999,16.9146669 280.216001,16.936 279.96,16.936 C279.191996,16.936 278.808,16.4240051 278.808,15.4 L278.808,10.024 C278.808,9.51199744 278.882666,9.12800128 279.032,8.872 C279.181334,8.61599872 279.490664,8.3813344 279.96,8.168 L291.48,2.408 C292.205337,2.06666496 292.781331,1.83200064 293.208,1.704 C293.634669,1.57599936 294.125331,1.512 294.68,1.512 L300.12,1.512 C300.461335,1.512 300.738666,1.62933216 300.952,1.864 C301.165334,2.09866784 301.272,2.4293312 301.272,2.856 L301.272,37.736 C301.272,38.2480026 301.506664,38.504 301.976,38.504 L307.736,38.504 Z" id="21.1"></path>
                </g>
            </g>
        </g>
    </g>
</svg>
