<?xml version="1.0" encoding="UTF-8"?>
<svg width="16px" height="16px" viewBox="0 0 16 16" version="1.1" xmlns="http://www.w3.org/2000/svg" xmlns:xlink="http://www.w3.org/1999/xlink">
    <!-- Generator: Sketch 50.2 (55047) - http://www.bohemiancoding.com/sketch -->
    <title>icons/hr--gray</title>
    <desc>Created with Sketch.</desc>
    <defs></defs>
    <g id="icons/hr--gray" stroke="none" stroke-width="1" fill="none" fill-rule="evenodd">
        <g id="Health" fill="#80909D" fill-rule="nonzero">
            <path d="M0.857496667,7.27728 C0.329151333,6.351028 0,5.32803467 0,4.16302867 C0,2.07687867 2.00682533,0 4.16199867,0 C5.88861,0 7.370034,1.052862 7.99948467,2.55076933 C8.629966,1.052862 10.11139,0 11.8380013,0 C13.9931747,0 16,2.07687867 16,4.16302867 C16,9.22232933 9.79408933,11.6092973 7.99948467,14.9831947 C6.807546,12.7404547 3.66544333,10.933488 1.69261467,8.48779867 L1.452956,8.170656 L3.342966,8.170656 C3.53712667,8.170656 3.70925,8.044392 3.76821333,7.85976133 C3.789654,7.79305533 3.835514,7.67870333 3.89805,7.57030733 C3.93735867,7.50181533 3.96058667,7.466676 3.96952,7.44463933 C3.986792,7.47084467 4.02610067,7.51670467 4.07434333,7.59055733 C4.14640867,7.70193133 4.201798,7.81807 4.22859933,7.886562 C4.2959,8.05809067 4.46087667,8.170656 4.64431667,8.170656 L5.63119867,8.170656 C5.82893267,8.170656 6.00343867,8.04022267 6.059424,7.850232 L6.373892,6.78651933 L6.40903133,11.2087287 C6.41320067,11.718548 7.129688,11.8251573 7.28215733,11.338566 L8.29286267,8.110502 L8.53943467,8.110502 C8.697264,8.110502 8.843778,8.02712 8.92418133,7.89132667 C8.98850467,7.78233533 9.11893733,7.60366 9.29701667,7.426176 C9.56860333,7.15578133 9.84852733,7.002716 10.1093933,7.002716 C10.3648987,7.002716 10.623382,7.14982533 10.8681667,7.41247733 C11.02957,7.58519667 11.143922,7.76029867 11.19812,7.86512133 C11.2749507,8.01342133 11.4280153,8.10633267 11.5947793,8.10633267 L12.8867787,8.10633267 C13.1333507,8.10633267 13.3334667,7.90621667 13.3334667,7.65964467 C13.3334667,7.41307333 13.1333507,7.21295733 12.8867787,7.21295733 L11.8437333,7.21295733 C11.7579687,7.08431067 11.656124,6.94732667 11.522118,6.80319533 C11.124268,6.376162 10.654352,6.10934067 10.1093933,6.10934067 C9.57039,6.10934067 9.089754,6.37199267 8.666294,6.79307067 C8.51620667,6.94315733 8.40245,7.085502 8.30596533,7.217126 L7.964696,7.217126 C7.76934467,7.217126 7.59662533,7.34398533 7.538258,7.53040333 L7.27977467,8.356478 L7.24284867,3.77703467 C7.23927533,3.263046 6.513854,3.16120067 6.367936,3.65374867 L5.29707667,7.27728 L4.92305,7.27728 C4.89207933,7.22069933 4.86230067,7.16471467 4.82418333,7.10515667 C4.59667,6.753762 4.33223067,6.52565333 3.96594667,6.52565333 C3.589538,6.52565333 3.33045867,6.76448267 3.123196,7.125406 C3.09341667,7.17781733 3.07138,7.22665533 3.04696133,7.27728 L0.857496667,7.27728 Z"></path>
        </g>
    </g>
</svg>