<?xml version="1.0" encoding="UTF-8"?>
<svg width="16px" height="16px" viewBox="0 0 16 16" version="1.1" xmlns="http://www.w3.org/2000/svg" xmlns:xlink="http://www.w3.org/1999/xlink">
    <!-- Generator: Sketch 50.2 (55047) - http://www.bohemiancoding.com/sketch -->
    <title>icons/info--dark</title>
    <desc>Created with Sketch.</desc>
    <defs></defs>
    <g id="icons/info--dark" stroke="none" stroke-width="1" fill="none" fill-rule="evenodd">
        <path d="M7.99968,0 C3.58144,0 0,3.58176 0,8 C0,12.41856 3.58144,16 7.99968,16 C12.41824,16 16,12.41856 16,8 C16,3.58176 12.41824,0 7.99968,0 L7.99968,0 L7.99968,0 L7.99968,0 Z M7.05591806,13.3333333 C6.68630139,13.3333333 6.42780756,13.0392403 6.47949109,12.6697729 L7.28051135,6.94356048 C7.33177619,6.57708614 7.66829071,6.28 8.04258472,6.28 L8.39741772,6.28 C8.76703438,6.28 9.02552822,6.57409303 8.97384468,6.94356048 L8.17282443,12.6697729 C8.12155958,13.0362472 7.78504506,13.3333333 7.41075105,13.3333333 L7.05591806,13.3333333 L7.05591806,13.3333333 L7.05591806,13.3333333 L7.05591806,13.3333333 Z M9.366663,2.96666667 C9.5399972,3.14000087 9.626663,3.36444307 9.626663,3.64 C9.626663,3.9600016 9.515553,4.2288878 9.29332967,4.44666667 C9.07110634,4.66444553 8.79555354,4.77333333 8.466663,4.77333333 C8.1733282,4.77333333 7.9399972,4.68666753 7.766663,4.51333333 C7.5933288,4.33999913 7.506663,4.11555693 7.506663,3.84 C7.506663,3.5199984 7.617773,3.2511122 7.83999634,3.03333333 C8.06221967,2.81555447 8.33777247,2.70666667 8.666663,2.70666667 C8.9599978,2.70666667 9.1933288,2.79333247 9.366663,2.96666667 L9.366663,2.96666667 L9.366663,2.96666667 L9.366663,2.96666667 Z" id="Info" fill="#4F5B64"></path>
    </g>
</svg>