<?xml version="1.0" encoding="UTF-8"?>
<svg width="147px" height="49px" viewBox="0 0 147 49" version="1.1" xmlns="http://www.w3.org/2000/svg" xmlns:xlink="http://www.w3.org/1999/xlink">
    <!-- Generator: Sketch 50.2 (55047) - http://www.bohemiancoding.com/sketch -->
    <title>42.2</title>
    <desc>Created with Sketch.</desc>
    <defs></defs>
    <g id="Symbols" stroke="none" stroke-width="1" fill="none" fill-rule="evenodd">
        <g id="components/preparation" transform="translate(-178.000000, -24.000000)" fill="#7ED321">
            <g id="Group-2">
                <g id="Group" transform="translate(16.000000, 24.000000)">
                    <path d="M183.448,3.112 C184.002669,2.42932992 184.471998,1.99200096 184.856,1.8 C185.240002,1.60799904 185.858662,1.512 186.712,1.512 L197.208,1.512 C197.592002,1.512 197.890666,1.62933216 198.104,1.864 C198.317334,2.09866784 198.424,2.4293312 198.424,2.856 L198.424,28.392 C198.424,28.9040026 198.658664,29.16 199.128,29.16 L203.864,29.16 C204.802671,29.16 205.272,29.5653293 205.272,30.376 L205.272,37.416 C205.272,38.3546714 204.760005,38.824 203.736,38.824 L199.192,38.824 C198.679997,38.824 198.424,39.1013306 198.424,39.656 L198.424,47.144 C198.424,47.8266701 198.253335,48.3066653 197.912,48.584 C197.570665,48.8613347 197.037337,49 196.312,49 L185.368,49 C184.727997,49 184.280001,48.8720013 184.024,48.616 C183.767999,48.3599987 183.64,47.9546694 183.64,47.4 L183.704,39.464 C183.704,39.0373312 183.405336,38.824 182.808,38.824 L164.568,38.824 C164.055997,38.824 163.661335,38.6960013 163.384,38.44 C163.106665,38.1839987 162.968,37.8426688 162.968,37.416 L162.968,30.76 C162.968,30.2906643 163.117332,29.789336 163.416,29.256 C163.714668,28.722664 164.269329,27.9440051 165.08,26.92 L183.448,3.112 Z M183.32,29.16 C183.490668,29.16 183.629333,29.1173338 183.736,29.032 C183.842667,28.9466662 183.896,28.8400006 183.896,28.712 L183.896,16.36 C183.896,15.7199968 183.832001,15.4 183.704,15.4 C183.575999,15.4 183.341335,15.6346643 183,16.104 L174.232,28.328 C174.061332,28.5840013 173.976,28.7546662 173.976,28.84 C173.976,29.0533344 174.210664,29.16 174.68,29.16 L183.32,29.16 Z M223.384,28.008 C226.456015,25.4906541 228.663993,23.5813398 230.008,22.28 C231.352007,20.9786602 232.258664,19.890671 232.728,19.016 C233.197336,18.141329 233.432,17.170672 233.432,16.104 C233.432,14.6533261 232.930672,13.4693379 231.928,12.552 C230.925328,11.6346621 229.570675,11.176 227.864,11.176 C226.242659,11.176 224.81334,11.6986614 223.576,12.744 C222.33866,13.7893386 221.016007,15.6133203 219.608,18.216 C219.394666,18.6000019 219.074669,18.792 218.648,18.792 C218.349332,18.792 217.986669,18.6853344 217.56,18.472 L209.944,14.696 C209.346664,14.3973318 209.048,13.9280032 209.048,13.288 C209.048,12.9039981 209.154666,12.541335 209.368,12.2 C211.757345,8.31731392 214.498651,5.45867584 217.592,3.624 C220.685349,1.78932416 224.365312,0.872 228.632,0.872 C232.472019,0.872 235.810652,1.50132704 238.648,2.76 C241.485348,4.01867296 243.671992,5.78932192 245.208,8.072 C246.744008,10.3546781 247.512,12.9893184 247.512,15.976 C247.512,18.4933459 246.872006,20.7653232 245.592,22.792 C244.311994,24.8186768 242.136015,26.8559898 239.064,28.904 L227.864,36.392 C227.565332,36.6053344 227.416,36.7759994 227.416,36.904 C227.416,37.0746675 227.693331,37.16 228.248,37.16 L246.488,37.16 C247.469338,37.16 247.96,37.5653293 247.96,38.376 L247.96,47.592 C247.96,48.0186688 247.821335,48.3599987 247.544,48.616 C247.266665,48.8720013 246.872003,49 246.36,49 L210.584,49 C209.943997,49 209.496001,48.8933344 209.24,48.68 C208.983999,48.4666656 208.856,48.0400032 208.856,47.4 L208.856,41.064 C208.856,40.722665 209.079998,40.2746694 209.528,39.72 C209.976002,39.1653306 211.010659,38.2266733 212.632,36.904 L223.384,28.008 Z M265.56,47.144 C265.56,47.8266701 265.400002,48.3066653 265.08,48.584 C264.759998,48.8613347 264.216004,49 263.448,49 L253.848,49 C253.207997,49 252.760001,48.8720013 252.504,48.616 C252.247999,48.3599987 252.12,47.9546694 252.12,47.4 L252.12,37.544 C252.12,37.0746643 252.226666,36.7226678 252.44,36.488 C252.653334,36.2533322 252.951998,36.136 253.336,36.136 L264.408,36.136 C265.176004,36.136 265.56,36.5626624 265.56,37.416 L265.56,47.144 Z M284.312,28.008 C287.384015,25.4906541 289.591993,23.5813398 290.936,22.28 C292.280007,20.9786602 293.186664,19.890671 293.656,19.016 C294.125336,18.141329 294.36,17.170672 294.36,16.104 C294.36,14.6533261 293.858672,13.4693379 292.856,12.552 C291.853328,11.6346621 290.498675,11.176 288.792,11.176 C287.170659,11.176 285.74134,11.6986614 284.504,12.744 C283.26666,13.7893386 281.944007,15.6133203 280.536,18.216 C280.322666,18.6000019 280.002669,18.792 279.576,18.792 C279.277332,18.792 278.914669,18.6853344 278.488,18.472 L270.872,14.696 C270.274664,14.3973318 269.976,13.9280032 269.976,13.288 C269.976,12.9039981 270.082666,12.541335 270.296,12.2 C272.685345,8.31731392 275.426651,5.45867584 278.52,3.624 C281.613349,1.78932416 285.293312,0.872 289.56,0.872 C293.400019,0.872 296.738652,1.50132704 299.576,2.76 C302.413348,4.01867296 304.599992,5.78932192 306.136,8.072 C307.672008,10.3546781 308.44,12.9893184 308.44,15.976 C308.44,18.4933459 307.800006,20.7653232 306.52,22.792 C305.239994,24.8186768 303.064015,26.8559898 299.992,28.904 L288.792,36.392 C288.493332,36.6053344 288.344,36.7759994 288.344,36.904 C288.344,37.0746675 288.621331,37.16 289.176,37.16 L307.416,37.16 C308.397338,37.16 308.888,37.5653293 308.888,38.376 L308.888,47.592 C308.888,48.0186688 308.749335,48.3599987 308.472,48.616 C308.194665,48.8720013 307.800003,49 307.288,49 L271.512,49 C270.871997,49 270.424001,48.8933344 270.168,48.68 C269.911999,48.4666656 269.784,48.0400032 269.784,47.4 L269.784,41.064 C269.784,40.722665 270.007998,40.2746694 270.456,39.72 C270.904002,39.1653306 271.938659,38.2266733 273.56,36.904 L284.312,28.008 Z" id="42.2"></path>
                </g>
            </g>
        </g>
    </g>
</svg>
