<?xml version="1.0" encoding="UTF-8"?>
<svg width="16px" height="16px" viewBox="0 0 16 16" version="1.1" xmlns="http://www.w3.org/2000/svg" xmlns:xlink="http://www.w3.org/1999/xlink">
    <!-- Generator: Sketch 50.2 (55047) - http://www.bohemiancoding.com/sketch -->
    <title>icons/running--gray</title>
    <desc>Created with Sketch.</desc>
    <defs></defs>
    <g id="icons/running--gray" stroke="none" stroke-width="1" fill="none" fill-rule="evenodd">
        <g id="Running" transform="translate(2.000000, 0.000000)" fill="#80909D" fill-rule="nonzero">
            <path d="M3.36319067,7.44226773 L2.35262,11.3188825 C2.218782,11.8322963 1.74247533,12.63935 1.35145733,13.0143431 L0.292893333,14.0295233 C-0.0976313333,14.4040425 -0.0976313333,15.0112581 0.292893333,15.3857773 C0.683417333,15.7602965 1.31658267,15.7602965 1.70710667,15.3857773 L2.76567067,14.3705971 C3.41308067,13.7497204 4.071176,12.634643 4.29290533,11.7840739 L4.76996533,9.9540406 L7.70009533,12.2531667 L7.62622667,10.832802 L5.62622667,12.7508347 C5.235702,13.1253539 5.235702,13.7325695 5.62622667,14.1070887 C6.01675067,14.4816079 6.649916,14.4816079 7.04044,14.1070887 L9.04044,12.1890559 C9.45878,11.7878611 9.42446133,11.1279746 8.96657133,10.7686912 L6.26935267,8.65231947 C6.28258533,8.61831033 6.29400867,8.58312007 6.303476,8.54680327 L6.803928,6.62703673 L7.172576,7.687655 C7.486548,8.59096853 8.52411,8.9899674 9.39740667,8.52468667 L11.240546,7.54268607 C11.72333,7.2854652 11.8972733,6.70161287 11.6290607,6.23861533 C11.3608473,5.77561787 10.752044,5.60880287 10.26926,5.86602373 L8.42612067,6.84802433 C8.65631933,6.7253776 8.99103267,6.8540932 9.06994267,7.0811198 L8.49409067,5.42436687 C8.27543067,4.79526987 7.66534133,4.212728 7.013338,4.0043008 L5.285784,3.4520498 C4.69662133,3.263711 3.892532,3.2962636 3.326358,3.52896507 L1.91112333,4.11063653 C1.46682533,4.29324607 1.0791,4.71766853 0.945778667,5.16516753 L0.553978667,6.48026647 L0.371809333,7.0917292 C0.220085333,7.60100047 0.527577333,8.1318024 1.058612,8.27730847 C1.58964733,8.4228146 2.14313267,8.1279246 2.29485733,7.61865333 L2.47702667,7.0071906 L2.86882667,5.69209167 C2.83739533,5.79759367 2.809462,5.82817047 2.698962,5.87358687 L3.90089933,5.37958207 L3.36319067,7.44226773 Z M8.33333333,1.6650276 C8.33333333,0.782277333 7.58714133,0.0666669333 6.66666667,0.0666669333 C5.746192,0.0666669333 5,0.782277333 5,1.6650276 C5,2.5477778 5.746192,3.2633882 6.66666667,3.2633882 C7.58714133,3.2633882 8.33333333,2.5477778 8.33333333,1.6650276 Z"></path>
        </g>
    </g>
</svg>