<?xml version="1.0" encoding="UTF-8"?>
<svg width="142px" height="50px" viewBox="0 0 142 50" version="1.1" xmlns="http://www.w3.org/2000/svg" xmlns:xlink="http://www.w3.org/1999/xlink">
    <!-- Generator: Sketch 50.2 (55047) - http://www.bohemiancoding.com/sketch -->
    <title>10.0</title>
    <desc>Created with Sketch.</desc>
    <defs></defs>
    <g id="Symbols" stroke="none" stroke-width="1" fill="none" fill-rule="evenodd">
        <g id="components/preparation" transform="translate(-184.000000, -24.000000)" fill="#80909D">
            <g id="Group-2">
                <g id="Group" transform="translate(16.000000, 24.000000)">
                    <path d="M197.464,38.504 C198.445338,38.504 198.936,38.9093293 198.936,39.72 L198.936,47.592 C198.936,48.0186688 198.797335,48.3599987 198.52,48.616 C198.242665,48.8720013 197.848003,49 197.336,49 L170.136,49 C169.111995,49 168.6,48.5520045 168.6,47.656 L168.6,39.72 C168.6,38.9093293 169.069329,38.504 170.008,38.504 L175.704,38.504 C175.917334,38.504 176.098666,38.4506672 176.248,38.344 C176.397334,38.2373328 176.472,38.0986675 176.472,37.928 L176.472,16.552 C176.472,16.1679981 176.397334,15.9120006 176.248,15.784 C176.098666,15.6559994 175.810669,15.6346662 175.384,15.72 L170.264,16.872 C170.135999,16.9146669 169.944001,16.936 169.688,16.936 C168.919996,16.936 168.536,16.4240051 168.536,15.4 L168.536,10.024 C168.536,9.51199744 168.610666,9.12800128 168.76,8.872 C168.909334,8.61599872 169.218664,8.3813344 169.688,8.168 L181.208,2.408 C181.933337,2.06666496 182.509331,1.83200064 182.936,1.704 C183.362669,1.57599936 183.853331,1.512 184.408,1.512 L189.848,1.512 C190.189335,1.512 190.466666,1.62933216 190.68,1.864 C190.893334,2.09866784 191,2.4293312 191,2.856 L191,37.736 C191,38.2480026 191.234664,38.504 191.704,38.504 L197.464,38.504 Z M223.896,0.808 C227.906687,0.808 231.511984,1.874656 234.712,4.008 C237.912016,6.141344 240.418658,9.074648 242.232,12.808 C244.045342,16.541352 244.952,20.7333101 244.952,25.384 C244.952,30.0346899 244.056009,34.1946483 242.264,37.864 C240.471991,41.5333517 237.986683,44.3919898 234.808,46.44 C231.629317,48.4880102 227.99202,49.512 223.896,49.512 C219.79998,49.512 216.141349,48.4880102 212.92,46.44 C209.698651,44.3919898 207.192009,41.5333517 205.4,37.864 C203.607991,34.1946483 202.712,30.0346899 202.712,25.384 C202.712,20.7333101 203.618658,16.541352 205.432,12.808 C207.245342,9.074648 209.762651,6.141344 212.984,4.008 C216.205349,1.874656 219.842646,0.808 223.896,0.808 Z M223.832,39.528 C225.410675,39.528 226.669329,39.0693379 227.608,38.152 C228.546671,37.2346621 229.218665,35.7626768 229.624,33.736 C230.029335,31.7093232 230.232,28.9466842 230.232,25.448 C230.232,20.11464 229.741338,16.3173446 228.76,14.056 C227.778662,11.7946554 226.136012,10.664 223.832,10.664 C221.527988,10.664 219.885338,11.7946554 218.904,14.056 C217.922662,16.3173446 217.432,20.11464 217.432,25.448 C217.432,28.9040173 217.645331,31.6559898 218.072,33.704 C218.498669,35.7520102 219.170662,37.2346621 220.088,38.152 C221.005338,39.0693379 222.253325,39.528 223.832,39.528 Z M262.424,47.144 C262.424,47.8266701 262.264002,48.3066653 261.944,48.584 C261.623998,48.8613347 261.080004,49 260.312,49 L250.712,49 C250.071997,49 249.624001,48.8720013 249.368,48.616 C249.111999,48.3599987 248.984,47.9546694 248.984,47.4 L248.984,37.544 C248.984,37.0746643 249.090666,36.7226678 249.304,36.488 C249.517334,36.2533322 249.815998,36.136 250.2,36.136 L261.272,36.136 C262.040004,36.136 262.424,36.5626624 262.424,37.416 L262.424,47.144 Z M287.96,0.808 C291.970687,0.808 295.575984,1.874656 298.776,4.008 C301.976016,6.141344 304.482658,9.074648 306.296,12.808 C308.109342,16.541352 309.016,20.7333101 309.016,25.384 C309.016,30.0346899 308.120009,34.1946483 306.328,37.864 C304.535991,41.5333517 302.050683,44.3919898 298.872,46.44 C295.693317,48.4880102 292.05602,49.512 287.96,49.512 C283.86398,49.512 280.205349,48.4880102 276.984,46.44 C273.762651,44.3919898 271.256009,41.5333517 269.464,37.864 C267.671991,34.1946483 266.776,30.0346899 266.776,25.384 C266.776,20.7333101 267.682658,16.541352 269.496,12.808 C271.309342,9.074648 273.826651,6.141344 277.048,4.008 C280.269349,1.874656 283.906646,0.808 287.96,0.808 Z M287.896,39.528 C289.474675,39.528 290.733329,39.0693379 291.672,38.152 C292.610671,37.2346621 293.282665,35.7626768 293.688,33.736 C294.093335,31.7093232 294.296,28.9466842 294.296,25.448 C294.296,20.11464 293.805338,16.3173446 292.824,14.056 C291.842662,11.7946554 290.200012,10.664 287.896,10.664 C285.591988,10.664 283.949338,11.7946554 282.968,14.056 C281.986662,16.3173446 281.496,20.11464 281.496,25.448 C281.496,28.9040173 281.709331,31.6559898 282.136,33.704 C282.562669,35.7520102 283.234662,37.2346621 284.152,38.152 C285.069338,39.0693379 286.317325,39.528 287.896,39.528 Z" id="10.0"></path>
                </g>
            </g>
        </g>
    </g>
</svg>