<?xml version="1.0" encoding="UTF-8"?>
<svg width="16px" height="16px" viewBox="0 0 16 16" version="1.1" xmlns="http://www.w3.org/2000/svg" xmlns:xlink="http://www.w3.org/1999/xlink">
    <!-- Generator: Sketch 50.2 (55047) - http://www.bohemiancoding.com/sketch -->
    <title>icons/timer--lightgray</title>
    <desc>Created with Sketch.</desc>
    <defs></defs>
    <g id="icons/timer--lightgray" stroke="none" stroke-width="1" fill="none" fill-rule="evenodd">
        <g id="Timer" transform="translate(1.000000, 0.000000)" fill="#ADB7BF" fill-rule="nonzero">
            <path d="M8.68962206,7.30401139 C9.37888875,7.99327808 9.41089042,9.19395603 8.68962206,9.91522439 C7.96835371,10.6358773 6.80213909,10.638339 6.07840906,9.91522439 C5.35529446,9.19149437 1.85911227,4.39001339 1.50955559,4.04045671 C1.15999891,3.69028461 1.14892141,3.09517668 1.50955559,2.7345425 C1.87018977,2.37452374 2.4616052,2.38129332 2.81485438,2.7345425 C3.16810356,3.0884071 8.00035537,6.61474471 8.68962206,7.30401139 Z M10.4559295,1.90828406 C10.4466982,2.34707616 10.3408466,2.75878992 10.1654528,3.13296326 C12.1637108,4.15086246 13.5391671,6.22358586 13.5391671,8.61571052 C13.5391671,12.0091181 10.7784078,14.7698774 7.38500023,14.7698774 C3.99159262,14.7698774 1.23083337,12.0091181 1.23083337,8.61571052 C1.23083337,7.78982132 1.39699588,7.00270338 1.6930113,6.28205044 C1.36745588,5.85064335 1.06036295,5.44631459 0.852967526,5.18045458 C0.310785426,6.20758503 0,7.3756459 0,8.61571052 C0,12.6879227 3.31278802,16.0007107 7.38500023,16.0007107 C11.456597,16.0007107 14.7700005,12.6879227 14.7700005,8.61571052 C14.7700005,5.64017084 12.996985,3.07696035 10.4559295,1.90828406 Z M9.23100412,1.84625006 C9.23100412,0.826504609 8.40449951,0 7.38475406,0 C6.36500861,0 5.538504,0.826504609 5.538504,1.84625006 C5.538504,2.86599551 6.36500861,3.69250011 7.38475406,3.69250011 C8.40449951,3.69250011 9.23100412,2.86599551 9.23100412,1.84625006 Z"></path>
        </g>
    </g>
</svg>