<?xml version="1.0" encoding="UTF-8"?>
<svg width="24px" height="24px" viewBox="0 0 24 24" version="1.1" xmlns="http://www.w3.org/2000/svg" xmlns:xlink="http://www.w3.org/1999/xlink">
    <!-- Generator: Sketch 50.2 (55047) - http://www.bohemiancoding.com/sketch -->
    <title>air--light</title>
    <desc>Created with Sketch.</desc>
    <defs>
        <path d="M11.3783815,10.5021722 L11.8924362,9.56892305 L12.4603061,10.5504437 C12.4603061,10.5504437 12.4707478,10.2117386 12.906088,9.81752132 L12.6386188,9.11758445 C12.4177359,9.14896093 12.1414315,9.17229216 11.8137216,9.17229216 C11.5518749,9.17229216 11.3325985,9.15700618 11.1518761,9.13447948 L10.853885,9.6662706 C11.1317958,9.93417747 11.3783815,10.5021722 11.3783815,10.5021722 L11.3783815,10.5021722 Z M12.906088,4.07884346 L12.906088,4 C12.6570927,4.05068508 12.2908287,4.09976112 11.8137216,4.09976112 C11.4169356,4.09976112 11.1181412,4.06516654 10.9028808,4.02413575 L10.9028808,4.06677559 L10.9253707,4.53259565 C11.1269766,4.5728219 11.4169356,4.60902553 11.8137216,4.60902553 C12.2482585,4.60902553 12.5864101,4.56558118 12.8217508,4.52052777 L12.906088,4.07884346 L12.906088,4.07884346 Z M12.772755,5.38780588 L12.7968513,4.84233783 L12.7968513,4.76590794 C12.5542817,4.80854777 12.2257686,4.84555593 11.8137216,4.84555593 C11.4386223,4.84555593 11.1510729,4.81417945 10.9390253,4.77636676 L10.9390253,4.78199844 L10.9751698,5.2542547 L10.9751698,5.43285928 C11.1735628,5.46906291 11.449064,5.49963487 11.8137216,5.49963487 C12.2169333,5.49963487 12.5374143,5.46262671 12.7703454,5.42079141 L12.772755,5.38780588 L12.772755,5.38780588 Z M12.6755665,7.49646628 L12.7149238,7.08857203 C12.4811896,7.12477566 12.1807888,7.15454309 11.8137216,7.15454309 C11.5197465,7.15454309 11.2795866,7.13523449 11.086816,7.10868516 L11.1213541,7.47233053 L11.1261733,7.56565544 C11.3060925,7.59059572 11.5334011,7.6090998 11.8137216,7.6090998 C12.1639214,7.6090998 12.4506676,7.5801369 12.6723537,7.54554231 L12.6755665,7.49646628 L12.6755665,7.49646628 Z M11.1510729,8.46189645 L11.1815949,8.78129294 L11.1872173,8.90116718 C11.3566948,8.92128031 11.5639231,8.93576176 11.8137216,8.93576176 C12.1342026,8.93576176 12.4016717,8.91162601 12.6153257,8.88105405 L12.6153257,8.75715718 L12.6249643,8.44661048 C12.406491,8.47718243 12.1350058,8.49890461 11.8137216,8.49890461 C11.5510717,8.49890461 11.3317952,8.48442316 11.1510729,8.46189645 L11.1510729,8.46189645 Z M12.6595023,7.78770438 C12.4346034,7.81988539 12.1518732,7.84563019 11.8137216,7.84563019 C11.5438428,7.84563019 11.3197471,7.82873516 11.1358119,7.80540394 L11.1454504,8.16341763 L11.1454504,8.22295249 C11.3229599,8.24628372 11.5430396,8.26317874 11.8137216,8.26317874 C12.147054,8.26317874 12.4233584,8.23743394 12.6402253,8.20525293 L12.6595023,7.78770438 L12.6595023,7.78770438 Z M12.7366105,6.11509661 L12.7486587,5.6669761 L12.7486587,5.66456252 C12.5109084,5.70398426 12.1984594,5.73616526 11.8137216,5.73616526 C11.464325,5.73616526 11.1920366,5.70961593 10.9840051,5.67502135 L11.0121174,6.1086604 L11.0153303,6.18589482 C11.2105105,6.21888035 11.4731603,6.24542968 11.8137216,6.24542968 C12.1984594,6.24542968 12.5068923,6.21163962 12.7366105,6.17141337 L12.7366105,6.11509661 L12.7366105,6.11509661 Z M12.7366105,6.78204795 L12.7366105,6.41196638 C12.5004666,6.45058359 12.1920338,6.48196007 11.8137216,6.48196007 C11.4900277,6.48196007 11.2330004,6.45862884 11.0313945,6.42725236 L11.0723582,6.81825158 L11.0747679,6.86732762 C11.2627191,6.89629052 11.5060919,6.9180127 11.8137216,6.9180127 C12.1960498,6.9180127 12.5036795,6.88422264 12.7325945,6.84480091 L12.7366105,6.78204795 L12.7366105,6.78204795 Z M13.9510649,17.0831879 C14.351867,17.4830369 15.481181,17.3374179 15.481181,17.3374179 C15.481181,17.3374179 17.7036646,19.4460783 19.4161096,19.4484918 C21.1655022,18.8330301 18.8337819,7.15695667 14.4249591,5.9389056 C13.9510649,5.9389056 13.4410262,6.53908136 13.4410262,6.53908136 C13.4410262,6.53908136 13.1133163,7.23016846 13.5141183,8.93897986 C13.5325922,9.5544416 12.6024744,9.92050054 12.4932377,10.5930836 C12.3840011,11.2656666 12.6755665,11.9929573 12.6755665,11.9929573 C12.6755665,11.9929573 12.3591016,13.2230763 12.4932377,13.4113351 C13.1133163,14.1016177 13.2225529,15.9560482 13.2225529,15.9560482 L13.7325916,16.0284554 C13.7325916,16.0284554 13.5502628,16.6833389 13.9510649,17.0831879 L13.9510649,17.0831879 Z M4.6964728,19.4098746 C5.89887901,19.6641046 7.58963724,18.5860409 8.84987462,18.2827349 C9.15670105,18.2425086 9.10529557,17.8828859 9.10529557,17.8828859 L9.46914996,17.9923013 C9.46914996,17.9923013 11.6554891,16.6101271 11.2876187,12.5384254 C11.2956508,11.9535356 11.4201484,11.3066974 11.3639237,10.5930836 C10.8900294,9.55685518 10.3799907,9.2664216 10.3799907,9.2664216 C10.3799907,9.2664216 10.6715562,6.93893035 10.1976619,6.43047046 C9.72457092,5.92120605 9.46914996,5.9389056 9.46914996,5.9389056 C9.46914996,5.9389056 6.80971979,6.64849678 5.13341935,11.5931083 C5.13341935,11.5931083 4.65952512,12.1015682 4.6964728,12.6840444 C4.6964728,12.6840444 3.129409,18.9014147 4.6964728,19.4098746 L4.6964728,19.4098746 Z" id="path-1"></path>
    </defs>
    <g id="air--light" stroke="none" stroke-width="1" fill="none" fill-rule="evenodd">
        <mask id="mask-2" fill="white">
            <use xlink:href="#path-1"></use>
        </mask>
        <use id="Mask" fill="#C2C8CD" xlink:href="#path-1"></use>
    </g>
</svg>