<?xml version="1.0" encoding="UTF-8"?>
<svg width="60px" height="57px" viewBox="0 0 60 57" version="1.1" xmlns="http://www.w3.org/2000/svg" xmlns:xlink="http://www.w3.org/1999/xlink">
    <!-- Generator: Sketch 50.2 (55047) - http://www.bohemiancoding.com/sketch -->
    <title>43_lottery</title>
    <desc>Created with Sketch.</desc>
    <defs></defs>
    <g id="Symbols" stroke="none" stroke-width="1" fill="none" fill-rule="evenodd">
        <g id="icons/calendar--dark" transform="translate(0.000000, -2.000000)" fill="#AAB2BD" fill-rule="nonzero">
            <g id="43_lottery" transform="translate(0.000000, 2.000000)">
                <path d="M11.7817241,23.9762069 C11.0989655,23.9762069 10.4368966,23.6958621 9.95068966,23.2210345 C9.46448276,22.7348276 9.19551724,22.0737931 9.19551724,21.39 C9.19551724,20.7062069 9.46448276,20.0451724 9.95068966,19.557931 C10.9127586,18.5958621 12.6506897,18.5958621 13.6127586,19.557931 C14.0886207,20.0451724 14.367931,20.7062069 14.367931,21.39 C14.367931,22.0737931 14.0886207,22.7348276 13.6127586,23.2210345 C13.1265517,23.6958621 12.4644828,23.9762069 11.7817241,23.9762069 Z" id="Shape"></path>
                <path d="M47.9058621,23.9762069 C47.2241379,23.9762069 46.5506897,23.6958621 46.0748276,23.2210345 C45.5886207,22.7348276 45.3093103,22.0737931 45.3093103,21.39 C45.3093103,20.7062069 45.5896552,20.0451724 46.0748276,19.557931 C47.0368966,18.5958621 48.7748276,18.5958621 49.7265517,19.557931 C50.2127586,20.0337931 50.4806897,20.7062069 50.4806897,21.39 C50.4806897,22.0737931 50.2117241,22.7348276 49.7265517,23.2210345 C49.2506897,23.6958621 48.5886207,23.9762069 47.9058621,23.9762069 Z" id="Shape"></path>
                <path d="M11.7817241,34.7648276 C11.0989655,34.7648276 10.4368966,34.4855172 9.95068966,34.0106897 C9.47482759,33.5234483 9.19551724,32.8624138 9.19551724,32.1786207 C9.19551724,31.4948276 9.47482759,30.8337931 9.95068966,30.3475862 C10.9127586,29.3844828 12.6506897,29.3844828 13.6127586,30.3475862 C14.0886207,30.8337931 14.367931,31.4948276 14.367931,32.1786207 C14.367931,32.8624138 14.0886207,33.5234483 13.6127586,34.0106897 C13.1265517,34.4865517 12.4644828,34.7648276 11.7817241,34.7648276 Z" id="Shape"></path>
                <path d="M23.8231034,34.7648276 C23.1403448,34.7648276 22.4782759,34.4855172 21.992069,34.0106897 C21.5058621,33.5234483 21.2368966,32.8624138 21.2368966,32.1786207 C21.2368966,31.4948276 21.5058621,30.8337931 21.992069,30.3475862 C22.9541379,29.3958621 24.692069,29.3844828 25.6437931,30.3475862 C26.13,30.8337931 26.4093103,31.4948276 26.4093103,32.1786207 C26.4093103,32.8624138 26.13,33.5234483 25.6437931,34.0106897 C25.167931,34.4865517 24.5058621,34.7648276 23.8231034,34.7648276 Z" id="Shape"></path>
                <path d="M35.8644828,23.9762069 C35.1827586,23.9762069 34.5196552,23.6958621 34.0334483,23.2210345 C33.5472414,22.7348276 33.2782759,22.0737931 33.2782759,21.39 C33.2782759,20.7062069 33.5482759,20.0451724 34.0334483,19.557931 C34.9955172,18.5958621 36.7334483,18.5958621 37.6955172,19.557931 C38.1713793,20.0337931 38.4496552,20.7062069 38.4496552,21.39 C38.4496552,22.0737931 38.1703448,22.7348276 37.6955172,23.2210345 C37.2093103,23.6958621 36.5472414,23.9762069 35.8644828,23.9762069 Z" id="Shape"></path>
                <path d="M35.8644828,34.7648276 C35.1827586,34.7648276 34.5196552,34.4855172 34.0334483,34.0106897 C33.5472414,33.5234483 33.2782759,32.8624138 33.2782759,32.1786207 C33.2782759,31.4948276 33.5482759,30.8337931 34.0334483,30.3475862 C34.9955172,29.3958621 36.7231034,29.3844828 37.6955172,30.3475862 C38.1713793,30.8337931 38.4496552,31.4948276 38.4496552,32.1786207 C38.4496552,32.8624138 38.1703448,33.5234483 37.6955172,34.0106897 C37.2093103,34.4865517 36.5472414,34.7648276 35.8644828,34.7648276 Z" id="Shape"></path>
                <path d="M35.8644828,45.5544828 C35.1827586,45.5544828 34.5196552,45.2855172 34.0334483,44.8003448 C33.5575862,44.3244828 33.2782759,43.652069 33.2782759,42.9682759 C33.2782759,42.2865517 33.5586207,41.6234483 34.0334483,41.1372414 C34.9955172,40.1751724 36.7334483,40.1751724 37.6955172,41.1372414 C38.1713793,41.6234483 38.4496552,42.2855172 38.4496552,42.9682759 C38.4496552,43.6510345 38.1703448,44.3244828 37.6955172,44.8003448 C37.2093103,45.2855172 36.5472414,45.5544828 35.8644828,45.5544828 Z" id="Shape"></path>
                <path d="M47.9058621,45.5544828 C47.2241379,45.5544828 46.5506897,45.2855172 46.0748276,44.8003448 C45.5886207,44.3244828 45.3196552,43.652069 45.3196552,42.9682759 C45.3196552,42.2865517 45.5896552,41.6234483 46.0748276,41.1372414 C47.0368966,40.1751724 48.7644828,40.1751724 49.7265517,41.1372414 C50.2127586,41.6234483 50.4910345,42.2855172 50.4910345,42.9682759 C50.4910345,43.6510345 50.2117241,44.3141379 49.7265517,44.8003448 C49.2506897,45.2855172 48.5782759,45.5544828 47.9058621,45.5544828 Z" id="Shape"></path>
                <path d="M57.7737931,12.0941379 L7.00758621,12.0941379 C5.95241379,12.0941379 5.09793103,11.2396552 5.09793103,10.1844828 C5.09793103,9.12931034 5.95241379,8.27586207 7.00758621,8.27586207 L55.8631034,8.27586207 L55.8631034,3.81827586 L1.90965517,3.81827586 C0.855517241,3.81827586 0,2.9637931 0,1.90965517 C0,0.855517241 0.855517241,0 1.90965517,0 L57.7727586,0 C58.827931,0 59.6824138,0.854482759 59.6824138,1.90965517 L59.6824138,10.1855172 C59.6824138,11.2396552 58.827931,12.0941379 57.7737931,12.0941379 Z" id="Shape"></path>
                <path d="M52.6013793,56.0844828 L7.08206897,56.0844828 C3.17689655,56.0844828 0,52.9086207 0,49.0024138 L0,1.90965517 C0,0.854482759 0.855517241,0 1.90965517,0 C2.9637931,0 3.81931034,0.854482759 3.81931034,1.90965517 L3.81931034,49.0024138 C3.81931034,50.8013793 5.28310345,52.2651724 7.08206897,52.2651724 L52.6003448,52.2651724 C54.3982759,52.2651724 55.862069,50.8013793 55.862069,49.0024138 L55.862069,15.3 C55.862069,14.2448276 56.7175862,13.3903448 57.7727586,13.3903448 C58.827931,13.3903448 59.6824138,14.2448276 59.6824138,15.3 L59.6824138,49.0024138 C59.6824138,52.9086207 56.5055172,56.0844828 52.6013793,56.0844828 Z" id="Shape"></path>
            </g>
        </g>
    </g>
</svg>