<?xml version="1.0" encoding="UTF-8"?>
<svg width="24px" height="24px" viewBox="0 0 24 24" version="1.1" xmlns="http://www.w3.org/2000/svg" xmlns:xlink="http://www.w3.org/1999/xlink">
    <!-- Generator: Sketch 50.2 (55047) - http://www.bohemiancoding.com/sketch -->
    <title>calendar--dark</title>
    <desc>Created with Sketch.</desc>
    <defs>
        <path d="M17,6 L18.33923,6 C19.072353,6 19.6666667,6.6015625 19.6666667,7.32970763 L19.6666667,18.6702924 C19.6666667,19.4046696 19.0735507,20 18.33923,20 L6.32743667,20 C5.59431364,20 5,19.3984375 5,18.6702924 L5,7.32970763 C5,6.59533039 5.59311597,6 6.32743667,6 L7.66666667,6 L7.66666667,6.32840738 C7.66666667,7.25021927 8.41285875,8 9.33333333,8 C10.2602253,8 11,7.25160249 11,6.32840738 L11,6 L13.6666667,6 L13.6666667,6.32840738 C13.6666667,7.25021927 14.4128588,8 15.3333333,8 C16.2602253,8 17,7.25160249 17,6.32840738 L17,6 L17,6 Z M6.33333333,10.0045636 C6.33333333,9.63385338 6.62996419,9.33333333 6.99559846,9.33333333 L17.6710682,9.33333333 C18.0368271,9.33333333 18.3333333,9.63329917 18.3333333,10.0045636 L18.3333333,17.9954364 C18.3333333,18.3661466 18.0367025,18.6666667 17.6710682,18.6666667 L6.99559846,18.6666667 C6.62983953,18.6666667 6.33333333,18.3667008 6.33333333,17.9954364 L6.33333333,10.0045636 L6.33333333,10.0045636 Z M7.66666667,11.3333333 C7.66666667,10.9651435 7.96257655,10.6666667 8.33333333,10.6666667 C8.70152317,10.6666667 9,10.9625765 9,11.3333333 C9,11.7015232 8.70409012,12 8.33333333,12 C7.9651435,12 7.66666667,11.7040901 7.66666667,11.3333333 L7.66666667,11.3333333 Z M10.3333333,11.3333333 C10.3333333,10.9651435 10.6292432,10.6666667 11,10.6666667 C11.3681898,10.6666667 11.6666667,10.9625765 11.6666667,11.3333333 C11.6666667,11.7015232 11.3707568,12 11,12 C10.6318102,12 10.3333333,11.7040901 10.3333333,11.3333333 L10.3333333,11.3333333 Z M13,11.3333333 C13,10.9651435 13.2959099,10.6666667 13.6666667,10.6666667 C14.0348565,10.6666667 14.3333333,10.9625765 14.3333333,11.3333333 C14.3333333,11.7015232 14.0374235,12 13.6666667,12 C13.2984768,12 13,11.7040901 13,11.3333333 L13,11.3333333 Z M15.6666667,11.3333333 C15.6666667,10.9651435 15.9625765,10.6666667 16.3333333,10.6666667 C16.7015232,10.6666667 17,10.9625765 17,11.3333333 C17,11.7015232 16.7040901,12 16.3333333,12 C15.9651435,12 15.6666667,11.7040901 15.6666667,11.3333333 L15.6666667,11.3333333 Z M7.66666667,14 C7.66666667,13.6318102 7.96257655,13.3333333 8.33333333,13.3333333 C8.70152317,13.3333333 9,13.6292432 9,14 C9,14.3681898 8.70409012,14.6666667 8.33333333,14.6666667 C7.9651435,14.6666667 7.66666667,14.3707568 7.66666667,14 L7.66666667,14 Z M10.3333333,14 C10.3333333,13.6318102 10.6292432,13.3333333 11,13.3333333 C11.3681898,13.3333333 11.6666667,13.6292432 11.6666667,14 C11.6666667,14.3681898 11.3707568,14.6666667 11,14.6666667 C10.6318102,14.6666667 10.3333333,14.3707568 10.3333333,14 L10.3333333,14 Z M13,14 C13,13.6318102 13.2959099,13.3333333 13.6666667,13.3333333 C14.0348565,13.3333333 14.3333333,13.6292432 14.3333333,14 C14.3333333,14.3681898 14.0374235,14.6666667 13.6666667,14.6666667 C13.2984768,14.6666667 13,14.3707568 13,14 L13,14 Z M15.6666667,14 C15.6666667,13.6318102 15.9625765,13.3333333 16.3333333,13.3333333 C16.7015232,13.3333333 17,13.6292432 17,14 C17,14.3681898 16.7040901,14.6666667 16.3333333,14.6666667 C15.9651435,14.6666667 15.6666667,14.3707568 15.6666667,14 L15.6666667,14 Z M7.66666667,16.6666667 C7.66666667,16.2984768 7.96257655,16 8.33333333,16 C8.70152317,16 9,16.2959099 9,16.6666667 C9,17.0348565 8.70409012,17.3333333 8.33333333,17.3333333 C7.9651435,17.3333333 7.66666667,17.0374235 7.66666667,16.6666667 L7.66666667,16.6666667 Z M10,15.996926 C10,15.8145288 10.1438351,15.6666667 10.3302593,15.6666667 L11.6697407,15.6666667 C11.8521379,15.6666667 12,15.8105017 12,15.996926 L12,17.3364073 C12,17.5188045 11.8561649,17.6666667 11.6697407,17.6666667 L10.3302593,17.6666667 C10.1478621,17.6666667 10,17.5228316 10,17.3364073 L10,15.996926 L10,15.996926 Z M13,16.6666667 C13,16.2984768 13.2959099,16 13.6666667,16 C14.0348565,16 14.3333333,16.2959099 14.3333333,16.6666667 C14.3333333,17.0348565 14.0374235,17.3333333 13.6666667,17.3333333 C13.2984768,17.3333333 13,17.0374235 13,16.6666667 L13,16.6666667 Z M15.6666667,16.6666667 C15.6666667,16.2984768 15.9625765,16 16.3333333,16 C16.7015232,16 17,16.2959099 17,16.6666667 C17,17.0348565 16.7040901,17.3333333 16.3333333,17.3333333 C15.9651435,17.3333333 15.6666667,17.0374235 15.6666667,16.6666667 L15.6666667,16.6666667 Z M8.33333333,5.00010991 C8.33333333,4.44776446 8.77719816,4 9.33333333,4 C9.88561808,4 10.3333333,4.44954817 10.3333333,5.00010991 L10.3333333,6.33322342 C10.3333333,6.88556887 9.88946851,7.33333333 9.33333333,7.33333333 C8.78104858,7.33333333 8.33333333,6.88378517 8.33333333,6.33322342 L8.33333333,5.00010991 L8.33333333,5.00010991 Z M14.3333333,5.00010991 C14.3333333,4.44776446 14.7771982,4 15.3333333,4 C15.8856181,4 16.3333333,4.44954817 16.3333333,5.00010991 L16.3333333,6.33322342 C16.3333333,6.88556887 15.8894685,7.33333333 15.3333333,7.33333333 C14.7810486,7.33333333 14.3333333,6.88378517 14.3333333,6.33322342 L14.3333333,5.00010991 L14.3333333,5.00010991 Z" id="path-1"></path>
    </defs>
    <g id="calendar--dark" stroke="none" stroke-width="1" fill="none" fill-rule="evenodd">
        <mask id="mask-2" fill="white">
            <use xlink:href="#path-1"></use>
        </mask>
        <use id="Mask" fill="#4F5B64" xlink:href="#path-1"></use>
    </g>
</svg>