<?xml version="1.0" encoding="UTF-8"?>
<svg width="32px" height="32px" viewBox="0 0 32 32" version="1.1" xmlns="http://www.w3.org/2000/svg" xmlns:xlink="http://www.w3.org/1999/xlink">
    <!-- Generator: Sketch 50.2 (55047) - http://www.bohemiancoding.com/sketch -->
    <title>icons/running--gray</title>
    <desc>Created with Sketch.</desc>
    <defs></defs>
    <g id="Page-1" stroke="none" stroke-width="1" fill="none" fill-rule="evenodd">
        <g id="dashboard" transform="translate(-404.000000, -304.000000)" fill="#7ED321">
            <g id="week" transform="translate(120.000000, 252.000000)">
                <g id="week__stats" transform="translate(0.000000, 52.000000)">
                    <g id="Group-2" transform="translate(284.000000, 0.000000)">
                        <g id="icons/clock--gray">
                            <g id="26_clock">
                                <path d="M15.9150345,31.8295172 C7.13931034,31.8295172 0,24.6907586 0,15.9150345 C0,7.13931034 7.13931034,0 15.9150345,0 C24.6907586,0 31.830069,7.13875862 31.830069,15.9150345 C31.830069,24.6913103 24.6907586,31.8295172 15.9150345,31.8295172 Z M15.9150345,2.03641379 C8.26262069,2.03641379 2.03696552,8.26206897 2.03696552,15.9144828 C2.03696552,23.5668966 8.26262069,29.7931034 15.9150345,29.7931034 C23.568,29.7931034 29.7931034,23.5674483 29.7931034,15.9150345 C29.7931034,8.26262069 23.568,2.03641379 15.9150345,2.03641379 Z" id="Shape" fill-rule="nonzero"></path>
                                <path d="M21.248,22.2648276 C20.9870345,22.2648276 20.7266207,22.1655172 20.5274483,21.9668966 L15.1955862,16.6350345 C15.0046897,16.4435862 14.8971034,16.1848276 14.8971034,15.9144828 L14.8965517,7.27393103 C14.8965517,6.71117241 15.3528276,6.25544828 15.9150345,6.25544828 C16.4772414,6.25544828 16.9335172,6.71117241 16.9335172,7.27393103 L16.934069,15.4929655 L21.9674483,20.5263448 C22.3652414,20.9246897 22.3652414,21.5691034 21.9674483,21.9668966 C21.7688276,22.166069 21.5084138,22.2648276 21.248,22.2648276 Z" id="Shape" fill-rule="nonzero"></path>
                                <path d="M30.8115862,16.9329655 L28.1726897,16.9329655 C27.609931,16.9329655 27.1536552,16.4772414 27.1536552,15.9144828 C27.1536552,15.3517241 27.609931,14.8965517 28.1726897,14.8965517 L30.8115862,14.8965517 C31.3743448,14.8965517 31.8306207,15.3522759 31.8306207,15.9150345 C31.8306207,16.4777931 31.3737931,16.9329655 30.8115862,16.9329655 Z" id="Shape" fill-rule="nonzero"></path>
                                <path d="M3.65793103,16.9329655 L1.01848276,16.9329655 C0.456275862,16.9329655 0,16.4772414 0,15.9150345 C0,15.3528276 0.456275862,14.8965517 1.01848276,14.8965517 L3.65793103,14.8965517 C4.22068966,14.8965517 4.67641379,15.3522759 4.67641379,15.9150345 C4.67641379,16.4777931 4.22068966,16.9329655 3.65793103,16.9329655 Z" id="Shape" fill-rule="nonzero"></path>
                                <path d="M15.9150345,31.8295172 C15.3522759,31.8295172 14.8965517,31.3737931 14.8965517,30.8110345 L14.8965517,28.1721379 C14.8965517,27.6093793 15.3528276,27.1536552 15.9150345,27.1536552 C16.4772414,27.1536552 16.9335172,27.6093793 16.9335172,28.1721379 L16.9335172,30.8110345 C16.9335172,31.3737931 16.4777931,31.8295172 15.9150345,31.8295172 Z" id="Shape" fill-rule="nonzero"></path>
                                <path d="M15.9150345,4.67586207 C15.3528276,4.67586207 14.8965517,4.21958621 14.8965517,3.65737931 L14.8965517,1.01848276 C14.8965517,0.455724138 15.3528276,0 15.9150345,0 C16.4772414,0 16.9335172,0.455724138 16.9335172,1.01848276 L16.9335172,3.65737931 C16.9335172,4.21958621 16.4777931,4.67586207 15.9150345,4.67586207 Z" id="Shape" fill-rule="nonzero"></path>
                            </g>
                        </g>
                    </g>
                </g>
            </g>
        </g>
    </g>
</svg>
