<?xml version="1.0" encoding="UTF-8"?>
<svg width="24px" height="24px" viewBox="0 0 24 24" version="1.1" xmlns="http://www.w3.org/2000/svg" xmlns:xlink="http://www.w3.org/1999/xlink">
    <!-- Generator: Sketch 50.2 (55047) - http://www.bohemiancoding.com/sketch -->
    <title>competition--dark</title>
    <desc>Created with Sketch.</desc>
    <defs>
        <path d="M14.9914285,10.08 C15.4314285,9.20666667 15.7954285,8.234 16.0620952,7.3 C16.1060952,7.32066667 16.1540952,7.33333333 16.2060952,7.33333333 L18.9480952,7.33333333 C18.6140952,8.15333333 17.5880952,9.93333333 14.9914285,10.08 L14.9914285,10.08 Z M4.79342854,7.33333333 L7.53942854,7.33333333 C7.59209521,7.33333333 7.63942854,7.32066667 7.68409521,7.3 C7.95076187,8.234 8.31409521,9.20666667 8.75409521,10.08 C6.13076187,9.94 5.12009521,8.16 4.79342854,7.33333333 L4.79342854,7.33333333 Z M19.6734285,6.79333333 C19.7374285,6.874 19.7607619,6.98 19.7374285,7.08 C19.7294285,7.11333333 18.9440952,10.3206667 15.3974285,10.72 C15.8000952,11.16 15.7827619,11.234 15.7540952,11.3673333 C15.7200952,11.52 15.5820952,11.6266667 15.4294285,11.6266667 C15.4054285,11.6266667 15.3820952,11.6266667 15.3574285,11.62 C15.2487619,11.594 15.1640952,11.52 15.1227619,11.4266667 C15.0954285,11.3866667 14.9667619,11.2273333 14.5807619,10.8333333 C14.3494285,11.22 14.1007619,11.5666667 13.8387619,11.8673333 C13.8467619,11.8866667 13.8580952,11.9 13.8627619,11.9206667 L15.0500952,16.6666667 L8.69609521,16.6666667 L9.88342854,11.9206667 C9.88809521,11.9 9.90009521,11.8866667 9.90742854,11.8673333 C9.64542854,11.5666667 9.39742854,11.22 9.16542854,10.8333333 C8.77876187,11.2273333 8.65142854,11.3866667 8.62276187,11.4266667 C8.58209521,11.52 8.49742854,11.594 8.38809521,11.62 C8.36476187,11.6266667 8.34009521,11.6266667 8.31676187,11.6266667 C8.16342854,11.6266667 8.02476187,11.52 7.99142854,11.3673333 C7.96276187,11.234 7.94542854,11.16 8.34809521,10.72 C4.80209521,10.3206667 4.01676187,7.11333333 4.00809521,7.08 C3.98609521,6.98 4.00942854,6.874 4.07209521,6.79333333 C4.13542854,6.71333333 4.23209521,6.66666667 4.33342854,6.66666667 L7.51609521,6.66666667 C7.29609521,5.76733333 7.17476187,4.94733333 7.17476187,4.33333333 C7.17476187,4.15333333 7.32342854,4 7.50809521,4 L16.2387619,4 C16.4220952,4 16.5720952,4.15333333 16.5720952,4.33333333 C16.5720952,4.94733333 16.4494285,5.76733333 16.2307619,6.66666667 L19.4134285,6.66666667 C19.5147619,6.66666667 19.6094285,6.71333333 19.6734285,6.79333333 Z M15.8727619,17.3333333 C16.0574285,17.3333333 16.2060952,17.4866667 16.2060952,17.6666667 L16.2060952,19.6666667 C16.2060952,19.8533333 16.0574285,20 15.8727619,20 L7.87276187,20 C7.68942854,20 7.53942854,19.8533333 7.53942854,19.6666667 L7.53942854,17.6666667 C7.53942854,17.4866667 7.68942854,17.3333333 7.87276187,17.3333333 L15.8727619,17.3333333 Z" id="path-1"></path>
    </defs>
    <g id="competition--dark" stroke="none" stroke-width="1" fill="none" fill-rule="evenodd">
        <mask id="mask-2" fill="white">
            <use xlink:href="#path-1"></use>
        </mask>
        <use id="Mask" fill="#4F5B64" xlink:href="#path-1"></use>
    </g>
</svg>