<?xml version="1.0" encoding="UTF-8"?>
<svg width="24px" height="24px" viewBox="0 0 24 24" version="1.1" xmlns="http://www.w3.org/2000/svg" xmlns:xlink="http://www.w3.org/1999/xlink">
    <!-- Generator: Sketch 50.2 (55047) - http://www.bohemiancoding.com/sketch -->
    <title>compare--light</title>
    <desc>Created with Sketch.</desc>
    <defs>
        <path d="M16.4726667,7.13333333 L18.0793333,12.3333333 L14.866,12.3333333 L16.4726667,7.13333333 L16.4726667,7.13333333 Z M6.116,12.3333333 L7.72266667,7.13333333 L9.32933333,12.3333333 L6.116,12.3333333 L6.116,12.3333333 Z M18.8613333,12.3333333 L18.7673333,12.3333333 C18.7653333,12.32 18.768,12.3066667 18.7626667,12.2933333 L16.9246667,6.33333333 L17.0833333,6.33333333 C17.268,6.33333333 17.4166667,6.18666667 17.4166667,6 C17.4166667,5.82 17.268,5.66666667 17.0833333,5.66666667 L12.4166667,5.66666667 L12.4166667,4.33333333 C12.4166667,4.15333333 12.268,4 12.0833333,4 C11.8993333,4 11.75,4.15333333 11.75,4.33333333 L11.75,5.66666667 L7.08333333,5.66666667 C6.89933333,5.66666667 6.75,5.82 6.75,6 C6.75,6.18666667 6.89933333,6.33333333 7.08333333,6.33333333 L7.27066667,6.33333333 L5.432,12.2933333 C5.42666667,12.3066667 5.42933333,12.32 5.42733333,12.3333333 L5.33333333,12.3333333 C5.14933333,12.3333333 5,12.4866667 5,12.6666667 C5,14.1666667 6.22133333,15.3933333 7.72266667,15.3933333 C9.224,15.3933333 10.4446667,14.1666667 10.4446667,12.6666667 C10.4446667,12.4866667 10.2953333,12.3333333 10.1113333,12.3333333 L10.0173333,12.3333333 C10.0153333,12.32 10.018,12.3066667 10.0126667,12.2933333 L8.17466667,6.33333333 L11.75,6.33333333 L11.75,7 C11.75,7.00666667 11.754,7.014 11.754,7.02 C11.178,7.16666667 10.75,7.68666667 10.75,8.30666667 C10.75,8.92733333 11.1766667,9.44666667 11.75,9.59333333 L11.75,16.6473333 C10.4073333,16.814 9.36133333,17.9466667 9.36133333,19.3333333 C9.36133333,19.52 9.51,19.6666667 9.69466667,19.6666667 L14.4726667,19.6666667 L14.4853333,19.6666667 C14.6706667,19.6666667 14.8186667,19.52 14.8186667,19.3333333 C14.8186667,19.3 14.814,19.2666667 14.804,19.234 C14.7553333,17.8933333 13.728,16.8066667 12.4166667,16.6473333 L12.4166667,9.59333333 C12.9906667,9.44666667 13.4166667,8.92733333 13.4166667,8.30666667 C13.4166667,7.68666667 12.988,7.16666667 12.4126667,7.02 C12.414,7.014 12.4166667,7.00666667 12.4166667,7 L12.4166667,6.33333333 L16.0206667,6.33333333 L14.182,12.2933333 C14.1766667,12.3066667 14.1793333,12.32 14.1773333,12.3333333 L14.0833333,12.3333333 C13.8993333,12.3333333 13.75,12.4866667 13.75,12.6666667 C13.75,14.1666667 14.9713333,15.3933333 16.4726667,15.3933333 C17.9733333,15.3933333 19.1946667,14.1666667 19.1946667,12.6666667 C19.1946667,12.4866667 19.0453333,12.3333333 18.8613333,12.3333333 L18.8613333,12.3333333 Z" id="path-1"></path>
    </defs>
    <g id="compare--light" stroke="none" stroke-width="1" fill="none" fill-rule="evenodd">
        <mask id="mask-2" fill="white">
            <use xlink:href="#path-1"></use>
        </mask>
        <use id="Mask" fill="#FFFFFF" xlink:href="#path-1"></use>
    </g>
</svg>
