<?xml version="1.0" encoding="UTF-8"?>
<svg width="24px" height="24px" viewBox="0 0 24 24" version="1.1" xmlns="http://www.w3.org/2000/svg" xmlns:xlink="http://www.w3.org/1999/xlink">
    <!-- Generator: Sketch 50.2 (55047) - http://www.bohemiancoding.com/sketch -->
    <title>dashboard--dark</title>
    <desc>Created with Sketch.</desc>
    <defs>
        <path d="M12.8861729,9.06410376 C12.6043732,9.02296744 12.3091359,9.00110538 12.0000447,9.00110538 C7.99783394,9.00110538 6.31635538,12.6733796 6.05734063,14.3834595 C6.01169934,14.6847947 6.00608255,15.6711341 6.00608255,15.6711341 C6.00019164,16.0447922 5.69839835,16.3384918 5.33038942,16.3384918 L4.66196227,16.3384918 C4.29089314,16.3384918 3.99758942,16.037546 4.00001494,15.6663106 C4.00001494,15.6663106 4.00420621,14.573735 4.02105039,14.3617207 C4.34839339,10.2415191 7.79567036,7 12.0000447,7 C12.9692594,7 13.8982406,7.17226056 14.758042,7.48783561 C13.9463569,8.15088516 13.2857628,8.70922349 12.8861729,9.06410376 L12.8861729,9.06410376 L12.8861729,9.06410376 L12.8861729,9.06410376 Z M17.1626639,12.2008043 C17.6061607,13.0053742 17.8545026,13.8029328 17.9421284,14.3793712 C17.9882545,14.6828075 17.9939166,15.6701979 17.9939166,15.6701979 C17.9991325,16.0392864 18.2986308,16.3384918 18.6697,16.3384918 L19.3381271,16.3384918 C19.706136,16.3384918 20.0026909,16.0419458 19.9999816,15.6732948 C19.9999816,15.6732948 19.9955335,14.5650897 19.9780097,14.3488951 C19.8617648,12.9147527 19.3674808,11.5874605 18.5949353,10.4667959 C18.0493808,11.1416762 17.5563045,11.7371015 17.1626639,12.2008043 L17.1626639,12.2008043 L17.1626639,12.2008043 L17.1626639,12.2008043 Z M10.5093313,15.2583286 C11.1605648,15.9095622 12.216423,15.9095622 12.8676566,15.2583286 C13.5188901,14.6070951 18.7634699,8.18335268 18.1738885,7.59377135 C17.5843072,7.00419003 11.1605648,12.2487698 10.5093313,12.9000033 C9.85809772,13.5512369 9.85809772,14.6070951 10.5093313,15.2583286 L10.5093313,15.2583286 L10.5093313,15.2583286 L10.5093313,15.2583286 Z" id="path-1"></path>
    </defs>
    <g id="dashboard--dark" stroke="none" stroke-width="1" fill="none" fill-rule="evenodd">
        <mask id="mask-2" fill="white">
            <use xlink:href="#path-1"></use>
        </mask>
        <use id="Mask" fill="#4F5B64" xlink:href="#path-1"></use>
    </g>
</svg>