<?xml version="1.0" encoding="UTF-8"?>
<svg width="24px" height="24px" viewBox="0 0 24 24" version="1.1" xmlns="http://www.w3.org/2000/svg" xmlns:xlink="http://www.w3.org/1999/xlink">
    <!-- Generator: Sketch 50.2 (55047) - http://www.bohemiancoding.com/sketch -->
    <title>detail--dark</title>
    <desc>Created with Sketch.</desc>
    <defs>
        <path d="M3,5 C3.55228475,5 4,5.44771525 4,6 L4,14 C4,14.5522847 3.55228475,15 3,15 C2.44771525,15 2,14.5522847 2,14 L2,6 C2,5.44771525 2.44771525,5 3,5 Z M7.5,5 C8.05228475,5 8.5,5.44771525 8.5,6 L8.5,9.5 C8.5,10.0522847 8.05228475,10.5 7.5,10.5 C6.94771525,10.5 6.5,10.0522847 6.5,9.5 L6.5,6 C6.5,5.44771525 6.94771525,5 7.5,5 Z M12,5 C12.5522847,5 13,5.44771525 13,6 L13,14 C13,14.5522847 12.5522847,15 12,15 C11.4477153,15 11,14.5522847 11,14 L11,6 C11,5.44771525 11.4477153,5 12,5 Z M16.5,5 C17.0522847,5 17.5,5.44771525 17.5,6 L17.5,18 C17.5,18.5522847 17.0522847,19 16.5,19 C15.9477153,19 15.5,18.5522847 15.5,18 L15.5,6 C15.5,5.44771525 15.9477153,5 16.5,5 Z M21,5 C21.5522847,5 22,5.44771525 22,6 L22,16 C22,16.5522847 21.5522847,17 21,17 C20.4477153,17 20,16.5522847 20,16 L20,6 C20,5.44771525 20.4477153,5 21,5 Z" id="path-1"></path>
    </defs>
    <g id="detail--dark" stroke="none" stroke-width="1" fill="none" fill-rule="evenodd">
        <mask id="mask-2" fill="white">
            <use xlink:href="#path-1"></use>
        </mask>
        <use id="Mask" fill="#4F5B64" xlink:href="#path-1"></use>
    </g>
</svg>