<?xml version="1.0" encoding="UTF-8"?>
<svg width="32px" height="32px" viewBox="0 0 32 32" version="1.1" xmlns="http://www.w3.org/2000/svg" xmlns:xlink="http://www.w3.org/1999/xlink">
    <!-- Generator: Sketch 50.2 (55047) - http://www.bohemiancoding.com/sketch -->
    <title>icons/running--gray</title>
    <desc>Created with Sketch.</desc>
    <defs></defs>
    <g id="Page-1" stroke="none" stroke-width="1" fill="none" fill-rule="evenodd">
        <g id="dashboard" transform="translate(-307.000000, -304.000000)" fill="#AAB2BD">
            <g id="week" transform="translate(120.000000, 252.000000)">
                <g id="week__stats" transform="translate(0.000000, 52.000000)">
                    <g id="Group-2" transform="translate(187.000000, 0.000000)">
                        <g id="icons/distance--gray">
                            <g id="04_map_pins">
                                <g id="Group" transform="translate(17.659293, 18.201666)" fill-rule="nonzero">
                                    <path d="M1.91613904,11.3622522 C1.55210572,11.3622522 1.19855214,11.2188452 0.939316288,10.9601609 C0.685596093,10.7064407 0.537224935,10.347923 0.537224935,9.98333812 C0.537224935,9.62537202 0.686147659,9.26630279 0.939316288,9.01258259 C1.4528239,8.49962654 2.37890261,8.49962654 2.89185866,9.01258259 C3.15109451,9.26630279 3.29450158,9.62482045 3.29450158,9.98333812 C3.29450158,10.3473714 3.15054295,10.7064407 2.89185866,10.9601609 C2.63813847,11.2188452 2.28017236,11.3622522 1.91613904,11.3622522 Z" id="Shape"></path>
                                    <path d="M4.17149095,9.97782246 C4.0887561,9.22217754 4.63480609,8.5387877 5.39045102,8.45550129 C6.14609595,8.36725079 6.83003735,8.91330078 6.91277219,9.66839414 C7.00102269,10.4245906 6.45497271,11.108532 5.69932778,11.1967825 C5.64417122,11.2028498 5.59508187,11.2028498 5.53937374,11.2028498 C4.84991669,11.2028498 4.2542258,10.6838265 4.17149095,9.97782246 Z M6.98999138,8.68164321 C6.73627119,7.96405631 7.11188739,7.175869 7.82892272,6.92214881 C8.54595806,6.66291296 9.33414536,7.03797759 9.58841712,7.75556449 C9.84765297,8.47204826 9.47203677,9.26078713 8.75500144,9.51450733 C8.60111462,9.56966389 8.44612468,9.59724217 8.2916863,9.59724217 C7.72357369,9.59724217 7.19407067,9.24424016 6.98999138,8.68164321 Z M4.88852629,6.75667912 C4.29283539,6.28784832 4.18803792,5.4163746 4.66238437,4.82068371 C5.13176673,4.22499282 5.99717323,4.11964378 6.59837978,4.5945418 C7.19407067,5.06337259 7.29941971,5.92933065 6.82452169,6.5305372 C6.55480609,6.8725079 6.15161161,7.05452456 5.74345303,7.05452456 C5.44009193,7.05452456 5.14224648,6.95469118 4.88852629,6.75667912 Z M1.89407641,3.60117208 C1.64035622,2.88468831 2.0099052,2.09594944 2.72694053,1.83671359 C3.43846021,1.57692617 4.23216317,1.94647515 4.49195059,2.66406205 C4.75118644,3.38109739 4.3761218,4.16983625 3.66460213,4.42852054 C3.51016375,4.48422867 3.35020971,4.51125539 3.19521976,4.51125539 C2.62765872,4.51180695 2.0981557,4.1643206 1.89407641,3.60117208 Z M4.56310256,1.67675955 C4.47485205,0.921114622 5.02090204,0.237173226 5.77654697,0.153886814 C6.5321919,0.066187877 7.21558173,0.611686297 7.3043838,1.36788279 C7.38711864,2.12297616 6.84658431,2.80691755 6.09093939,2.89571962 C6.03578282,2.90123528 5.98117782,2.90123528 5.93098535,2.90123528 C5.23601264,2.90123528 4.64032175,2.38276357 4.56310256,1.67675955 Z" id="Shape"></path>
                                    <path d="M9.57187015,2.74128124 C9.20783683,2.74128124 8.85483482,2.59235852 8.5950474,2.33918989 C8.3413272,2.07940247 8.19295605,1.72695203 8.19295605,1.36236714 C8.19295605,0.998885378 8.34187877,0.645331801 8.5950474,0.386095949 C9.1135191,-0.127411663 10.0346337,-0.127411663 10.5475898,0.386095949 C10.8073772,0.645331801 10.9502327,0.998333812 10.9502327,1.36236714 C10.9502327,1.72640046 10.8068256,2.07940247 10.5475898,2.33918989 C10.2938696,2.59235852 9.93590348,2.74128124 9.57187015,2.74128124 Z" id="Shape"></path>
                                </g>
                                <path d="M10.3096811,31.8203735 C6.81606435,31.8203735 3.27887389,30.5721804 3.27887389,28.1877621 C3.27887389,27.5545648 3.57065211,26.3576673 5.52264292,25.4630279 C6.03228957,25.2286125 6.63790865,25.4525481 6.87232404,25.964401 C7.10673944,26.4757024 6.88225223,27.0796668 6.37095088,27.3140822 C5.60151681,27.6665326 5.31525424,28.0371847 5.31525424,28.1877621 C5.31525424,28.6510773 7.06537202,29.7839931 10.3091296,29.7839931 C13.5528871,29.7839931 15.3030049,28.6510773 15.3030049,28.1877621 C15.3030049,28.0371847 15.0161907,27.6665326 14.2473082,27.3140822 C13.7360069,27.0796668 13.5115197,26.4751508 13.7459351,25.964401 C13.9797989,25.4525481 14.5848664,25.2286125 15.0956162,25.4630279 C17.0481586,26.3576673 17.3393852,27.5545648 17.3393852,28.1877621 C17.3404884,30.572732 13.8032979,31.8203735 10.3096811,31.8203735 Z" id="Shape" fill-rule="nonzero"></path>
                                <path d="M27.231715,17.1674806 C26.9603447,17.1674806 26.7000057,17.0588222 26.5086125,16.8663258 C23.2047343,13.5359724 21.9035909,9.93480034 23.0293364,7.23268026 C23.7375467,5.53220339 25.3475668,4.47540362 27.2311635,4.47540362 C29.1153117,4.47540362 30.7258834,5.53220339 31.4340937,7.23323183 C32.5592876,9.93535191 31.2586958,13.536524 27.9537144,16.8663258 C27.7634243,17.0588222 27.5036369,17.1674806 27.231715,17.1674806 Z M27.231715,6.51233554 C26.1699512,6.51233554 25.3017868,7.07438093 24.9096237,8.01590348 C24.3431658,9.37606435 24.6989256,11.7875093 27.231715,14.6606148 C29.765056,11.7875093 30.1208159,9.37606435 29.5543579,8.01645504 C29.1621948,7.07438093 28.2940305,6.51233554 27.231715,6.51233554 Z" id="Shape" fill-rule="nonzero"></path>
                                <path d="M27.2361275,10.5128411 C26.8720942,10.5128411 26.5135766,10.3639184 26.2598564,10.1046826 C26.0000689,9.85096237 25.8516978,9.4924447 25.8516978,9.13392703 C25.8516978,8.76989371 26.0006205,8.41137604 26.2598564,8.15765585 C26.7672968,7.6446998 27.693927,7.6446998 28.2063315,8.15765585 C28.4661189,8.41137604 28.6089744,8.76989371 28.6089744,9.13392703 C28.6089744,9.4924447 28.4655674,9.85096237 28.2063315,10.1046826 C27.9476472,10.3639184 27.5951968,10.5128411 27.2361275,10.5128411 Z" id="Shape" fill-rule="nonzero"></path>
                                <g id="Group" fill-rule="nonzero">
                                    <path d="M10.3096811,27.9627234 C10.0625797,27.9627234 9.81547831,27.8733697 9.62077564,27.6946625 C6.13322608,24.4928239 0.185142201,17.2353232 0.0125021546,10.3402011 C-0.0597529446,7.448894 0.898868141,4.97346739 2.8613387,2.98231543 C4.73114622,1.08658431 7.44595231,0 10.3096811,0 C13.1734099,0 15.8887676,1.08658431 17.7580236,2.98176386 C19.7204941,4.97291583 20.6791152,7.44834243 20.6068601,10.339098 C20.4347716,17.2336685 14.4861362,24.4928239 10.9985866,27.6941109 C10.8038839,27.8733697 10.5567825,27.9627234 10.3096811,27.9627234 Z M10.3096811,2.03638035 C8.02123528,2.03638035 5.77912094,2.92440103 4.31195633,4.41197357 C2.7521287,5.99386383 1.99096811,7.97177822 2.04888251,10.2889055 C2.17684573,15.4030221 6.29704108,21.6092387 10.3096811,25.5413502 C14.3223212,21.6086872 18.4430681,15.4024706 18.5704797,10.2889055 C18.6283941,7.97177822 17.8672336,5.9944154 16.3068544,4.41197357 C14.8407929,2.92440103 12.598127,2.03638035 10.3096811,2.03638035 Z" id="Shape"></path>
                                    <path d="M10.3234703,17.5226889 C6.43217466,17.5226889 3.26729101,14.3578052 3.26729101,10.4670612 C3.26729101,6.57631715 6.43272623,3.41088193 10.3234703,3.41088193 C14.2142143,3.41088193 17.379098,6.57631715 17.379098,10.4665096 C17.379098,11.2955128 17.2362425,12.1085205 16.9543924,12.8818156 C16.7613444,13.4102155 16.1761333,13.6821373 15.6488365,13.490744 C15.1204367,13.2982476 14.8479632,12.7141396 15.0399081,12.1857397 C15.2401264,11.6358288 15.3416145,11.057788 15.3416145,10.4665096 C15.3416145,7.69875323 13.0901235,5.44726228 10.3223671,5.44726228 C7.55461074,5.44726228 5.30256823,7.69875323 5.30256823,10.4665096 C5.30256823,13.234266 7.55461074,15.485757 10.3223671,15.485757 C11.5402241,15.485757 12.7145073,15.0445045 13.6290032,14.2430796 C14.0531571,13.872979 14.6951795,13.914898 15.0658317,14.3379489 C15.4364838,14.7609997 15.3940132,15.4041253 14.9709624,15.7747774 C13.6858144,16.901626 12.03553,17.5221373 10.3234703,17.5226889 Z" id="Shape"></path>
                                </g>
                            </g>
                        </g>
                    </g>
                </g>
            </g>
        </g>
    </g>
</svg>
