<?xml version="1.0" encoding="UTF-8"?>
<svg width="24px" height="24px" viewBox="0 0 24 24" version="1.1" xmlns="http://www.w3.org/2000/svg" xmlns:xlink="http://www.w3.org/1999/xlink">
    <!-- Generator: Sketch 50.2 (55047) - http://www.bohemiancoding.com/sketch -->
    <title>edit--dark</title>
    <desc>Created with Sketch.</desc>
    <defs>
        <path d="M4.02347381,19.5863292 C3.92181239,19.8315229 4.16849083,20.0782117 4.41516927,19.976546 L9.45637954,17.8864189 C9.54757581,17.8490418 9.62980196,17.7937237 9.69857291,17.7249499 L18.1417638,9.28295331 C18.2583755,9.16633678 18.2583755,8.97646114 18.1417638,8.8598446 L15.139762,5.85771636 C15.0231504,5.74109982 14.8347778,5.74109982 14.7181661,5.85771636 L6.27497519,14.301208 C6.20620423,14.3699818 6.15088846,14.4522114 6.11351294,14.5434116 L4.02347381,19.5863292 L4.02347381,19.5863292 L4.02347381,19.5863292 L4.02347381,19.5863292 Z M19.2902389,4.70979103 C18.3438907,3.76340299 16.8114943,3.76340299 15.8666411,4.70979103 L19.2902389,8.1335329 C20.236587,7.18863994 20.236587,5.65468398 19.2902389,4.70979103 L19.2902389,4.70979103 L19.2902389,4.70979103 L19.2902389,4.70979103 Z" id="path-1"></path>
    </defs>
    <g id="edit--dark" stroke="none" stroke-width="1" fill="none" fill-rule="evenodd">
        <mask id="mask-2" fill="white">
            <use xlink:href="#path-1"></use>
        </mask>
        <use id="Mask" fill="#4F5B64" xlink:href="#path-1"></use>
    </g>
</svg>