<?xml version="1.0" encoding="UTF-8"?>
<svg width="24px" height="24px" viewBox="0 0 24 24" version="1.1" xmlns="http://www.w3.org/2000/svg" xmlns:xlink="http://www.w3.org/1999/xlink">
    <!-- Generator: Sketch 50.2 (55047) - http://www.bohemiancoding.com/sketch -->
    <title>event--dark</title>
    <desc>Created with Sketch.</desc>
    <defs></defs>
    <g id="event--dark" stroke="none" stroke-width="1" fill="none" fill-rule="evenodd">
        <g id="Group" transform="translate(2.000000, 5.000000)" fill="#4F5B64">
            <circle id="Oval-3" cx="1" cy="1" r="1"></circle>
            <circle id="Oval-3-Copy-28" cx="1" cy="13" r="1"></circle>
            <circle id="Oval-3-Copy" cx="4" cy="1" r="1"></circle>
            <circle id="Oval-3-Copy-15" cx="4" cy="7" r="4"></circle>
            <circle id="Oval-3-Copy-29" cx="4" cy="13" r="1"></circle>
            <circle id="Oval-3-Copy-2" cx="7" cy="1" r="1"></circle>
            <circle id="Oval-3-Copy-30" cx="7" cy="13" r="1"></circle>
            <circle id="Oval-3-Copy-3" cx="10" cy="1" r="1"></circle>
            <circle id="Oval-3-Copy-10" cx="10" cy="4" r="1"></circle>
            <circle id="Oval-3-Copy-17" cx="10" cy="7" r="1"></circle>
            <circle id="Oval-3-Copy-24" cx="10" cy="10" r="1"></circle>
            <circle id="Oval-3-Copy-31" cx="10" cy="13" r="1"></circle>
            <circle id="Oval-3-Copy-4" cx="13" cy="1" r="1"></circle>
            <circle id="Oval-3-Copy-11" cx="13" cy="4" r="1"></circle>
            <circle id="Oval-3-Copy-18" cx="13" cy="7" r="1"></circle>
            <circle id="Oval-3-Copy-25" cx="13" cy="10" r="1"></circle>
            <circle id="Oval-3-Copy-32" cx="13" cy="13" r="1"></circle>
            <circle id="Oval-3-Copy-5" cx="16" cy="1" r="1"></circle>
            <circle id="Oval-3-Copy-12" cx="16" cy="4" r="1"></circle>
            <circle id="Oval-3-Copy-19" cx="16" cy="7" r="1"></circle>
            <circle id="Oval-3-Copy-26" cx="16" cy="10" r="1"></circle>
            <circle id="Oval-3-Copy-33" cx="16" cy="13" r="1"></circle>
            <circle id="Oval-3-Copy-6" cx="19" cy="1" r="1"></circle>
            <circle id="Oval-3-Copy-13" cx="19" cy="4" r="1"></circle>
            <circle id="Oval-3-Copy-20" cx="19" cy="7" r="1"></circle>
            <circle id="Oval-3-Copy-27" cx="19" cy="10" r="1"></circle>
            <circle id="Oval-3-Copy-34" cx="19" cy="13" r="1"></circle>
        </g>
    </g>
</svg>