<?xml version="1.0" encoding="UTF-8"?>
<svg width="44px" height="40px" viewBox="0 0 44 40" version="1.1" xmlns="http://www.w3.org/2000/svg" xmlns:xlink="http://www.w3.org/1999/xlink">
    <defs></defs>
    <g id="Page-1" stroke="none" stroke-width="1" fill="none" fill-rule="evenodd">
        <g id="filter" fill="#fff" fill-rule="nonzero">
            <path d="M29.5338095,9.6052381 L30.962381,9.6052381 C31.4861905,9.6052381 31.9147619,9.17666667 31.9147619,8.65285714 C31.9147619,8.12904762 31.4861905,7.70047619 30.962381,7.70047619 L29.5338095,7.70047619 C29.01,7.70047619 28.5814286,8.12904762 28.5814286,8.65285714 C28.5814286,9.17666667 29.01,9.6052381 29.5338095,9.6052381 Z" id="Shape"></path>
            <path d="M43.6290476,1.12904762 C43.2957143,0.462380952 42.6290476,0.0814285714 41.9147619,0.0814285714 L1.9147619,0.0814285714 C1.20047619,0.0814285714 0.533809524,0.51 0.20047619,1.12904762 C-0.132857143,1.79571429 -0.0376190476,2.55761905 0.390952381,3.12904762 L17.2004762,24.2719048 L17.2004762,38.0338095 C17.2004762,38.7480952 17.5814286,39.3671429 18.2004762,39.7004762 C18.4861905,39.8433333 18.7719048,39.9385714 19.1052381,39.9385714 C19.4861905,39.9385714 19.8671429,39.8433333 20.2004762,39.6052381 L25.4861905,35.9385714 C26.2480952,35.3671429 26.6766667,34.51 26.6766667,33.6052381 L26.6766667,24.2242857 L43.4385714,3.12904762 C43.8671429,2.55761905 43.962381,1.79571429 43.6290476,1.12904762 Z M24.962381,23.3195238 C24.8671429,23.462381 24.7719048,23.6528571 24.7719048,23.8909524 L24.7719048,33.557619 C24.7719048,33.8909524 24.6290476,34.1766667 24.3909524,34.3671429 L19.1052381,38.0338095 L19.1052381,23.8909524 C19.1052381,23.557619 18.962381,23.2719048 18.7242857,23.1290476 L7.96238095,9.6052381 L25.2480952,9.6052381 C25.7719048,9.6052381 26.2004762,9.17666667 26.2004762,8.65285714 C26.2004762,8.12904762 25.7719048,7.70047619 25.2480952,7.70047619 L6.67666667,7.70047619 C6.62904762,7.70047619 6.53380952,7.70047619 6.48619048,7.70047619 L1.9147619,1.98619048 L41.9147619,1.98619048 L24.962381,23.3195238 Z" id="Shape"></path>
        </g>
    </g>
</svg>
