<?xml version="1.0" encoding="UTF-8"?>
<svg width="24px" height="24px" viewBox="0 0 24 24" version="1.1" xmlns="http://www.w3.org/2000/svg" xmlns:xlink="http://www.w3.org/1999/xlink">
    <!-- Generator: Sketch 50.2 (55047) - http://www.bohemiancoding.com/sketch -->
    <title>help--light</title>
    <desc>Created with Sketch.</desc>
    <defs>
        <path d="M13.6096,11.88128 C13.34528,12.02944 13.1232,12.16128 12.94336,12.27776 C12.76352,12.39424 12.62112,12.5264 12.51552,12.67424 C12.31424,12.93856 12.21408,13.31936 12.21408,13.816 L12.21408,14.2388438 C12.21408,14.3469349 12.1251094,14.43456 12.0097948,14.43456 L11.1812452,14.43456 C11.0684216,14.43456 10.97696,14.3470586 10.97696,14.2395657 L10.97696,13.72096 C10.97696,13.05504 11.088,12.54496 11.30976,12.1904 C11.53216,11.83648 11.93376,11.50048 12.51552,11.18336 C13.09664,10.86592 13.488,10.58848 13.68896,10.35072 C13.8896,10.11264 13.99008,9.79296 13.99008,9.39104 C13.99008,8.98944 13.82368,8.65344 13.49056,8.38368 C13.15776,8.11424 12.69504,7.97952 12.10272,7.97952 C10.939302,7.97952 10.2434123,8.40997435 10.0153171,9.27008461 C10.0008674,9.3245722 10.0153171,9.27008461 10.0153171,9.27008461 C9.99448652,9.36321936 9.89019326,9.43872 9.7810352,9.43872 L8.8420048,9.43872 C8.73344506,9.43872 8.65509823,9.35559357 8.67009286,9.24053061 C8.67009286,9.24053061 8.66185226,9.29047319 8.67346905,9.21844898 C8.78332546,8.53733786 9.09651467,7.98140484 9.6128,7.55136 C10.184,7.07552 10.98496,6.83744 12.01568,6.83744 C13.0464,6.83744 13.8608,7.0912 14.45824,7.59904 C15.05568,8.10656 15.35424,8.7248 15.35424,9.4544 C15.35424,10.00448 15.21696,10.46144 14.94208,10.82656 C14.66688,11.19136 14.22272,11.54304 13.6096,11.88128 L13.6096,11.88128 L13.6096,11.88128 L13.6096,11.88128 Z M12.29312,16.9088 C12.11328,17.07808 11.88608,17.16288 11.6112,17.16288 C11.33632,17.16288 11.11424,17.07808 10.94528,16.9088 C10.776,16.73984 10.69152,16.53088 10.69152,16.28256 C10.69152,16.03424 10.776,15.82016 10.94528,15.64 C11.11424,15.46048 11.33632,15.37024 11.6112,15.37024 C11.88608,15.37024 12.11328,15.46048 12.29312,15.64 C12.47296,15.82016 12.56288,16.03424 12.56288,16.28256 C12.56288,16.53088 12.47296,16.73984 12.29312,16.9088 M11.99968,4 C7.58144,4 4,7.58176 4,12 C4,16.41856 7.58144,20 11.99968,20 C16.41824,20 20,16.41856 20,12 C20,7.58176 16.41824,4 11.99968,4" id="path-1"></path>
    </defs>
    <g id="help--light" stroke="none" stroke-width="1" fill="none" fill-rule="evenodd">
        <mask id="mask-2" fill="white">
            <use xlink:href="#path-1"></use>
        </mask>
        <use id="Mask" fill="#C2C8CD" xlink:href="#path-1"></use>
    </g>
</svg>