<?xml version="1.0" encoding="UTF-8"?>
<svg width="135px" height="53px" viewBox="0 0 135 53" version="1.1" xmlns="http://www.w3.org/2000/svg" xmlns:xlink="http://www.w3.org/1999/xlink">
    <!-- Generator: Sketch 50.2 (55047) - http://www.bohemiancoding.com/sketch -->
    <title>hm--active</title>
    <desc>Created with Sketch.</desc>
    <defs>
        <path d="M17.8148943,52.9257812 L17.8148943,46.2109375 L34.373488,28.4570312 C36.764125,25.71483 38.4633267,23.4004001 39.4711443,21.5136719 C40.4789618,19.6269437 40.982863,17.8750081 40.982863,16.2578125 C40.982863,14.1015517 40.4027907,12.3378975 39.2426286,10.9667969 C38.0824666,9.59569627 36.4359987,8.91015625 34.3031755,8.91015625 C31.9359762,8.91015625 30.137166,9.7128826 28.9066911,11.3183594 C27.6762162,12.9238362 27.060988,15.0624866 27.060988,17.734375 L17.076613,17.734375 L17.0063005,17.5234375 C16.8891124,12.9062269 18.4066754,8.99806287 21.5590349,5.79882812 C24.7113944,2.59959338 28.9593988,1 34.3031755,1 C39.5766394,1 43.7250354,2.37108004 46.748488,5.11328125 C49.7719406,7.85548246 51.2836443,11.5116959 51.2836443,16.0820312 C51.2836443,19.1757967 50.4340434,22.0351431 48.7348161,24.6601562 C47.0355889,27.2851694 44.2172577,30.7070102 40.279738,34.9257812 L31.1742693,44.875 L31.2445818,45.0507812 L44.5336443,45.0507812 L44.9555193,39.9882812 L52.7602068,39.9882812 L52.7602068,52.9257812 L17.8148943,52.9257812 Z M57.3305193,46.7734375 L65.9789568,45.71875 L65.9789568,11.0546875 L57.2250505,11.0546875 L57.2250505,5.18359375 L76.2094255,1.73828125 L76.2094255,45.71875 L84.857863,46.7734375 L84.857863,52.9257812 L57.3305193,52.9257812 L57.3305193,46.7734375 Z M101.627394,52.9257812 L91.3969255,52.9257812 L91.3969255,43.9257812 L101.627394,43.9257812 L101.627394,52.9257812 Z M107.498488,46.7734375 L116.146926,45.71875 L116.146926,11.0546875 L107.393019,11.0546875 L107.393019,5.18359375 L126.377394,1.73828125 L126.377394,45.71875 L135.025832,46.7734375 L135.025832,52.9257812 L107.498488,52.9257812 L107.498488,46.7734375 Z" id="path-1"></path>
    </defs>
    <g id="hm--active" stroke="none" stroke-width="1" fill="none" fill-rule="evenodd">
        <mask id="mask-2" fill="white">
            <use xlink:href="#path-1"></use>
        </mask>
        <use id="Mask" fill="#6FAC1B" xlink:href="#path-1"></use>
    </g>
</svg>