<?xml version="1.0" encoding="UTF-8"?>
<svg width="24px" height="24px" viewBox="0 0 24 24" version="1.1" xmlns="http://www.w3.org/2000/svg" xmlns:xlink="http://www.w3.org/1999/xlink">
    <!-- Generator: Sketch 50.2 (55047) - http://www.bohemiancoding.com/sketch -->
    <title>hr--dark</title>
    <desc>Created with Sketch.</desc>
    <defs>
        <path d="M13.3874372,13.8890902 L16.3661066,13.8890902 L11.8537204,18.8979213 C11.7934876,18.9613242 11.7085277,19 11.6184955,19 C11.5290974,19 11.4435035,18.9613242 11.3832707,18.8979213 L6.85566777,13.8890902 L9.42602237,13.8890902 C9.56867895,13.8890902 9.69358272,13.7946198 9.73162447,13.6544993 L10.5812237,10.5420497 L11.6235678,16.1652552 C11.6482949,16.2984013 11.7560799,16.399846 11.8917621,16.4188669 C11.9063448,16.4252072 11.9209275,16.4252072 11.9355102,16.4252072 C12.0547077,16.4252072 12.1650288,16.356098 12.2195553,16.248313 L13.3874372,13.8890902 Z M5.04171007,11.8798515 C5.02902948,11.8671709 5.01698293,11.8544903 5.00747249,11.8354694 C4.35695847,11.0866809 4,10.1292967 4,9.14084507 C4,6.85770572 5.8551696,5 8.13577284,5 C9.54712196,5 10.8538563,5.72913364 11.6083511,6.8963815 C12.3628459,5.72913364 13.6695802,5 15.0809293,5 C17.3615325,5 19.2167021,6.85770572 19.2167021,9.14084507 C19.2167021,10.1292967 18.8584756,11.0866809 18.2066935,11.8418097 C18.1971831,11.8544903 18.1864046,11.8671709 18.1749921,11.8798515 L16.938001,13.2550609 L13.1902541,13.2550609 C13.0697885,13.2550609 12.9594674,13.3248041 12.906209,13.4325891 L12.0730945,15.1134007 L10.9521308,9.06476156 C10.9255016,8.9183008 10.8018659,8.81051583 10.654137,8.80417554 C10.4975318,8.79846927 10.3738961,8.89293963 10.3345863,9.03940039 L9.1838232,13.2550609 L6.28250532,13.2550609 L5.04171007,11.8798515 Z" id="path-1"></path>
    </defs>
    <g id="hr--dark" stroke="none" stroke-width="1" fill="none" fill-rule="evenodd">
        <mask id="mask-2" fill="white">
            <use xlink:href="#path-1"></use>
        </mask>
        <use id="Mask" fill="#4F5B64" xlink:href="#path-1"></use>
    </g>
</svg>