<?xml version="1.0" encoding="UTF-8"?>
<svg width="24px" height="24px" viewBox="0 0 24 24" version="1.1" xmlns="http://www.w3.org/2000/svg" xmlns:xlink="http://www.w3.org/1999/xlink">
    <!-- Generator: Sketch 50.2 (55047) - http://www.bohemiancoding.com/sketch -->
    <title>intensity--dark</title>
    <desc>Created with Sketch.</desc>
    <defs>
        <path d="M12.2407971,5.02204407 C12.1607971,4.90804407 12.0201305,4.85471074 11.8854638,4.88804407 L7.26413047,6.08804407 L8.92413047,1.78804407 C8.96879714,1.67471074 8.94679714,1.5413774 8.86546381,1.44804407 C8.78346381,1.3553774 8.66013047,1.31471074 8.53746381,1.3413774 L2.81879714,2.67471074 C2.68746381,2.70804407 2.58746381,2.81471074 2.56546381,2.94804407 L1.33746381,10.6613774 C1.32013047,10.7680441 1.35813047,10.8747107 1.43679714,10.9547107 C1.51613047,11.0280441 1.62879714,11.0620441 1.73479714,11.0353774 L5.79146381,10.1880441 L3.97746381,16.5620441 C3.93279714,16.7213774 4.00879714,16.8880441 4.15813047,16.9547107 C4.20279714,16.9753774 4.25146381,16.9887107 4.29813047,16.9887107 C4.40613047,16.9887107 4.51146381,16.9353774 4.57546381,16.8413774 L12.2461305,5.4013774 C12.3227971,5.28204407 12.3207971,5.13471074 12.2407971,5.02204407" id="path-1"></path>
    </defs>
    <g id="intensity--dark" stroke="none" stroke-width="1" fill="none" fill-rule="evenodd">
        <g id="Group" transform="translate(5.000000, 3.000000)">
            <mask id="mask-2" fill="white">
                <use xlink:href="#path-1"></use>
            </mask>
            <use id="Mask" fill="#4F5B64" transform="translate(6.817790, 9.161022) rotate(10.000000) translate(-6.817790, -9.161022) " xlink:href="#path-1"></use>
        </g>
    </g>
</svg>