<?xml version="1.0" encoding="UTF-8"?>
<svg width="24px" height="24px" viewBox="0 0 24 24" version="1.1" xmlns="http://www.w3.org/2000/svg" xmlns:xlink="http://www.w3.org/1999/xlink">
    <!-- Generator: Sketch 50.2 (55047) - http://www.bohemiancoding.com/sketch -->
    <title>ldu--dark</title>
    <desc>Created with Sketch.</desc>
    <defs>
        <path d="M14.3614649,9.05223533 C14.3614649,9.22046715 14.3820971,9.38393768 14.4186002,9.54185339 C13.5123704,10.2020839 12.4664763,11.6891897 13.1989196,14.0134868 C13.65997,15.4799603 13.5187187,16.9718273 12.8283334,17.908212 C12.5363084,18.3057787 12.0093937,18.7795258 11.1642669,18.7795258 C10.0699665,18.7795258 8.98677584,18.2049983 8.52889963,17.3820908 C8.35987427,17.0781625 8.22021012,16.6186992 8.51144161,16.1536811 C9.16135602,15.1173097 9.48671,14.1491832 9.64145153,13.5571976 C10.0025151,13.5032365 10.3556432,13.3873787 10.6944875,13.2064502 C10.9976221,13.0453603 11.183312,12.7541288 11.2237828,12.4390909 C12.6616887,11.1440234 13.325887,8.80941016 13.3639772,8.6729202 C13.4417447,8.39279836 13.3092225,8.10474106 13.0616361,7.97380592 C13.2608162,6.22086215 12.6093147,5.33843868 12.2173028,4.97816866 C12.246664,4.80993684 12.1792126,4.62980184 12.0308194,4.53298919 L11.3094858,4.06320978 C11.1206218,3.94021011 10.884145,4.00210672 10.7801905,4.20208038 L10.4365849,4.86469154 C10.3334239,5.0646652 10.4246817,5.27812916 10.6405263,5.34161286 L11.4562919,5.58126384 C11.6634075,5.64236691 11.9109939,5.54317362 12.0284388,5.36303861 C12.3537928,5.70426352 12.8219851,6.46368732 12.6601016,7.9134964 C12.4387022,7.95555435 12.2482511,8.11664425 12.1839739,8.34835977 C11.9879679,9.04906115 11.4221694,10.4980767 10.5818039,11.3662163 C10.3135852,11.2630553 10.0064828,11.2678166 9.7335029,11.4130356 C9.55574853,11.5074676 9.38196189,11.5550803 9.20341398,11.5590481 C8.97884038,11.5550803 8.79553118,11.5019127 8.60746071,11.3971646 C8.3416227,11.2487715 8.03848802,11.2352812 7.77106292,11.3297132 C6.94894896,10.4576058 6.39505364,9.03953859 6.20222189,8.34835977 C6.13794465,8.1174378 5.94669999,7.9563479 5.72609412,7.91428995 C5.56421067,6.46448087 6.03240299,5.70426352 6.35775697,5.36303861 C6.47520182,5.54396717 6.72278826,5.64236691 6.92990385,5.58126384 L7.74566944,5.34161286 C7.96151403,5.27812916 8.0535654,5.0646652 7.94961083,4.86469154 L7.60600529,4.20287393 C7.50205072,4.00290026 7.26557393,3.94100365 7.07750346,4.06320978 L6.35458278,4.53378273 C6.20618963,4.63059538 6.13953174,4.80993684 6.16889295,4.9789622 C5.77688108,5.33843868 5.12537957,6.2216557 5.32376615,7.97459946 C5.07697325,8.1055346 4.94445102,8.39279836 5.02221856,8.67371375 C5.05951523,8.80702953 5.70308128,11.0670494 7.09337438,12.3740201 C7.12194205,12.6969935 7.3044577,13.0009217 7.60997302,13.1715341 C7.86311429,13.3127854 8.12419102,13.4167399 8.39082257,13.4873656 C8.24084232,13.9928546 7.96468821,14.7245042 7.47268951,15.5077344 C7.00608429,16.2520809 7.00052947,17.1511688 7.45840568,17.9732828 C8.13292003,19.185028 9.62161287,20 11.1642669,20 C12.2236512,20 13.1655906,19.5135561 13.815505,18.6303391 C14.7455413,17.3686005 14.9518633,15.5053538 14.3670197,13.6484555 C13.824234,11.9272536 14.5495354,11.0083269 15.0296309,10.6139344 C15.4208492,10.9892818 15.9517317,11.2209974 16.5373688,11.2209974 C17.7395915,11.2209974 18.7140663,10.2496967 18.7140663,9.05223533 C18.7140663,7.85398043 17.7395915,6.88267976 16.5373688,6.88267976 C15.3351462,6.88267976 14.3614649,7.85398043 14.3614649,9.05223533 L14.3614649,9.05223533 L14.3614649,9.05223533 L14.3614649,9.05223533 Z M16.5373688,9.89894923 C16.068383,9.89894923 15.6874807,9.5196341 15.6874807,9.05223533 C15.6874807,8.58404302 16.0675894,8.20472789 16.5373688,8.20472789 C17.0071482,8.20472789 17.3880505,8.58404302 17.3880505,9.05223533 C17.3880505,9.5196341 17.0071482,9.89894923 16.5373688,9.89894923 L16.5373688,9.89894923 L16.5373688,9.89894923 L16.5373688,9.89894923 Z" id="path-1"></path>
    </defs>
    <g id="ldu--dark" stroke="none" stroke-width="1" fill="none" fill-rule="evenodd">
        <mask id="mask-2" fill="white">
            <use xlink:href="#path-1"></use>
        </mask>
        <use id="Mask" fill="#4F5B64" xlink:href="#path-1"></use>
    </g>
</svg>