<?xml version="1.0" encoding="UTF-8"?>
<svg width="31px" height="40px" viewBox="0 0 31 40" version="1.1" xmlns="http://www.w3.org/2000/svg" xmlns:xlink="http://www.w3.org/1999/xlink">
    <!-- Generator: Sketch 50.2 (55047) - http://www.bohemiancoding.com/sketch -->
    <title>lightning</title>
    <desc>Created with Sketch.</desc>
    <defs></defs>
    <g id="Page-1" stroke="none" stroke-width="1" fill="none" fill-rule="evenodd">
        <g id="lightning" fill="#ffffff" fill-rule="nonzero">
            <path d="M30.6030189,17.1087736 C30.4898113,16.8068868 30.2256604,16.6182075 29.8860377,16.6182075 L18.3011321,16.6182075 L28.2633962,1.18424528 C28.4520755,0.882358491 28.4143396,0.467264151 28.1501887,0.203113208 C27.8860377,-0.0610377358 27.4709434,-0.0610377358 27.1690566,0.165377358 L0.376603774,21.2974528 C0.11245283,21.4861321 0.0369811321,21.8257547 0.11245283,22.1276415 C0.187924528,22.4295283 0.489811321,22.6182075 0.829433962,22.6182075 L11.9237736,22.6182075 L1.69735849,38.8068868 C1.50867925,39.1087736 1.54641509,39.5238679 1.84830189,39.7880189 C1.99924528,39.9012264 2.18792453,39.9766981 2.33886792,39.9766981 C2.48981132,39.9766981 2.67849057,39.9389623 2.79169811,39.8257547 L30.3388679,17.9389623 C30.6030189,17.750283 30.7162264,17.4106604 30.6030189,17.1087736 Z M5.35773585,35.9012264 L13.9237736,22.2785849 C14.074717,22.0521698 14.074717,21.750283 13.9615094,21.5238679 C13.810566,21.2974528 13.5841509,21.1465094 13.2822642,21.1465094 L3.01811321,21.1465094 L24.5275472,4.16537736 L16.2633962,16.9578302 C16.1124528,17.1842453 16.1124528,17.4861321 16.2256604,17.7125472 C16.3388679,17.9389623 16.6030189,18.0899057 16.9049057,18.0899057 L27.7350943,18.0899057 L5.35773585,35.9012264 Z" id="Shape"></path>
        </g>
    </g>
</svg>
