<?xml version="1.0" encoding="UTF-8"?>
<svg width="135px" height="53px" viewBox="0 0 135 53" version="1.1" xmlns="http://www.w3.org/2000/svg" xmlns:xlink="http://www.w3.org/1999/xlink">
    <!-- Generator: Sketch 50.2 (55047) - http://www.bohemiancoding.com/sketch -->
    <title>mara--light</title>
    <desc>Created with Sketch.</desc>
    <defs>
        <path d="M31.6054688,32.8710938 L37.40625,32.8710938 L37.40625,39.6914062 L31.6054688,39.6914062 L31.6054688,44.71875 L37.0546875,45.7734375 L37.0546875,51.9257812 L15.890625,51.9257812 L15.890625,45.7734375 L21.375,44.71875 L21.375,39.6914062 L0.4921875,39.6914062 L0,34.6640625 L21.2695312,0.73828125 L31.6054688,0.73828125 L31.6054688,32.8710938 Z M9.59765625,32.8710938 L21.375,32.8710938 L21.375,14.4140625 L21.1640625,14.34375 L20.3203125,15.8203125 L9.59765625,32.8710938 Z M41.8710938,51.9257812 L41.8710938,45.2109375 L58.4296875,27.4570312 C60.8203245,24.71483 62.5195262,22.4004001 63.5273438,20.5136719 C64.5351613,18.6269437 65.0390625,16.8750081 65.0390625,15.2578125 C65.0390625,13.1015517 64.4589902,11.3378975 63.2988281,9.96679688 C62.1386661,8.59569627 60.4921982,7.91015625 58.359375,7.91015625 C55.9921757,7.91015625 54.1933655,8.7128826 52.9628906,10.3183594 C51.7324157,11.9238362 51.1171875,14.0624866 51.1171875,16.734375 L41.1328125,16.734375 L41.0625,16.5234375 C40.9453119,11.9062269 42.4628749,7.99806287 45.6152344,4.79882812 C48.7675939,1.59959338 53.0155983,0 58.359375,0 C63.6328389,0 67.7812349,1.37108004 70.8046875,4.11328125 C73.8281401,6.85548246 75.3398438,10.5116959 75.3398438,15.0820312 C75.3398438,18.1757967 74.4902429,21.0351431 72.7910156,23.6601562 C71.0917884,26.2851694 68.2734572,29.7070102 64.3359375,33.9257812 L55.2304688,43.875 L55.3007812,44.0507812 L68.5898438,44.0507812 L69.0117188,38.9882812 L76.8164062,38.9882812 L76.8164062,51.9257812 L41.8710938,51.9257812 Z M93.8671875,51.9257812 L83.6367188,51.9257812 L83.6367188,42.9257812 L93.8671875,42.9257812 L93.8671875,51.9257812 Z M100.019531,51.9257812 L100.019531,45.2109375 L116.578125,27.4570312 C118.968762,24.71483 120.667964,22.4004001 121.675781,20.5136719 C122.683599,18.6269437 123.1875,16.8750081 123.1875,15.2578125 C123.1875,13.1015517 122.607428,11.3378975 121.447266,9.96679688 C120.287104,8.59569627 118.640636,7.91015625 116.507812,7.91015625 C114.140613,7.91015625 112.341803,8.7128826 111.111328,10.3183594 C109.880853,11.9238362 109.265625,14.0624866 109.265625,16.734375 L99.28125,16.734375 L99.2109375,16.5234375 C99.0937494,11.9062269 100.611312,7.99806287 103.763672,4.79882812 C106.916031,1.59959338 111.164036,0 116.507812,0 C121.781276,0 125.929672,1.37108004 128.953125,4.11328125 C131.976578,6.85548246 133.488281,10.5116959 133.488281,15.0820312 C133.488281,18.1757967 132.63868,21.0351431 130.939453,23.6601562 C129.240226,26.2851694 126.421895,29.7070102 122.484375,33.9257812 L113.378906,43.875 L113.449219,44.0507812 L126.738281,44.0507812 L127.160156,38.9882812 L134.964844,38.9882812 L134.964844,51.9257812 L100.019531,51.9257812 Z" id="path-1"></path>
    </defs>
    <g id="mara--light" stroke="none" stroke-width="1" fill="none" fill-rule="evenodd">
        <mask id="mask-2" fill="white">
            <use xlink:href="#path-1"></use>
        </mask>
        <use id="Mask" fill="#C2C8CD" xlink:href="#path-1"></use>
    </g>
</svg>