<?xml version="1.0" encoding="UTF-8"?>
<svg width="24px" height="24px" viewBox="0 0 24 24" version="1.1" xmlns="http://www.w3.org/2000/svg" xmlns:xlink="http://www.w3.org/1999/xlink">
    <!-- Generator: Sketch 50.2 (55047) - http://www.bohemiancoding.com/sketch -->
    <title>pace--dark</title>
    <desc>Created with Sketch.</desc>
    <defs>
        <path d="M9.22968315,6.8840995 L6.57132179,10.1789793 C6.50554379,10.2587102 6.40920228,10.2985756 6.31219634,10.2985756 C6.2397741,10.2985756 6.16535858,10.2786429 6.10356713,10.225489 C5.96138034,10.1125369 5.93812549,9.8999211 6.05373531,9.76039201 L8.71209667,6.46484781 C8.82704207,6.32531872 9.0363357,6.29940617 9.17918691,6.41833811 C9.32203812,6.53195465 9.34462855,6.73726174 9.22968315,6.8840995 L9.22968315,6.8840995 Z M12.0568083,6.21901084 C12.1219218,6.27880902 12.2076326,6.31203023 12.2920145,6.31203023 C12.3777252,6.31203023 12.4621071,6.27880902 12.5265562,6.21901084 C12.6567834,6.08612599 12.6567834,5.87351024 12.5265562,5.74793406 L11.1977077,4.41842116 C11.068145,4.28553631 10.858187,4.28553631 10.7279598,4.41842116 C10.5983971,4.54466177 10.5983971,4.75794195 10.7279598,4.89082679 L11.1578423,5.31539388 L10.6674972,5.80773224 C9.8615506,4.96324903 8.81641128,4.35264316 7.64104481,4.09285329 L7.64104481,3.32212117 L7.97325692,3.32212117 C8.15730244,3.32212117 8.30546904,3.17661227 8.30546904,2.98990906 L8.30546904,0.332212117 C8.30546904,0.152817574 8.15730244,0 7.97325692,0 L4.65113575,0 C4.46841909,0 4.31892363,0.152817574 4.31892363,0.332212117 L4.31892363,2.98990906 C4.31892363,3.17661227 4.46841909,3.32212117 4.65113575,3.32212117 L4.98334787,3.32212117 L4.98334787,4.09285329 C3.80731697,4.35264316 2.7635065,4.96324903 1.95822433,5.80773224 L1.46721482,5.31539388 L1.89576845,4.89082679 C2.0259956,4.75794195 2.0259956,4.54466177 1.89576845,4.41842116 C1.76620572,4.28553631 1.55624766,4.28553631 1.42602051,4.41842116 L0.0971720444,5.74793406 C-0.0323906815,5.87351024 -0.0323906815,6.08612599 0.0971720444,6.21901084 C0.162285619,6.27880902 0.247996346,6.31203023 0.332378223,6.31203023 C0.41808895,6.31203023 0.502470828,6.27880902 0.566919978,6.21901084 L0.997466883,5.78779951 L1.52634857,6.31203023 C0.748972219,7.32926373 0.281881982,8.59100536 0.281881982,9.96636352 C0.281881982,13.2951289 2.98675304,16 6.31219634,16 C9.63830406,16 12.3438395,13.2951289 12.3438395,9.96636352 C12.3438395,8.59100536 11.8767493,7.32926373 11.0993729,6.31203023 L11.6275902,5.78779951 L12.0568083,6.21901084 L12.0568083,6.21901084 Z" id="path-1"></path>
    </defs>
    <g id="pace--dark" stroke="none" stroke-width="1" fill="none" fill-rule="evenodd">
        <g id="Group" transform="translate(6.000000, 4.000000)">
            <mask id="mask-2" fill="white">
                <use xlink:href="#path-1"></use>
            </mask>
            <use id="Mask" fill="#4F5B64" xlink:href="#path-1"></use>
        </g>
    </g>
</svg>