<?xml version="1.0" encoding="UTF-8"?>
<svg width="16px" height="16px" viewBox="0 0 16 16" version="1.1" xmlns="http://www.w3.org/2000/svg" xmlns:xlink="http://www.w3.org/1999/xlink">
    <!-- Generator: Sketch 50.2 (55047) - http://www.bohemiancoding.com/sketch -->
    <title>icons/pace--gray</title>
    <desc>Created with Sketch.</desc>
    <defs></defs>
    <g id="icons/pace--gray" stroke="none" stroke-width="1" fill="none" fill-rule="evenodd">
        <g id="40_timer" transform="translate(1.000000, 0.000000)" fill="#80909D" fill-rule="nonzero">
            <path d="M6.81682759,15.9147586 C3.05793103,15.9147586 0,12.8568276 0,9.09793103 C0,5.33903448 3.05793103,2.28082759 6.81682759,2.28082759 C10.576,2.28082759 13.6342069,5.33903448 13.6342069,9.0982069 C13.6342069,12.8568276 10.576,15.9147586 6.81682759,15.9147586 Z M6.81682759,3.29903448 C3.61958621,3.29903448 1.0182069,5.90068966 1.0182069,9.09793103 C1.0182069,12.2951724 3.61958621,14.8965517 6.81682759,14.8965517 C10.0143448,14.8965517 12.6157241,12.2951724 12.6157241,9.09793103 C12.6157241,5.90068966 10.0143448,3.29903448 6.81682759,3.29903448 Z" id="Shape"></path>
            <path d="M11.4882759,8.25131034 C11.2673103,8.25131034 11.064,8.10648276 10.9994483,7.88358621 C10.4645517,6.03503448 8.74455172,4.744 6.81737931,4.744 C6.536,4.744 6.30813793,4.51613793 6.30813793,4.23475862 C6.30813793,3.95337931 6.536,3.72551724 6.81737931,3.72551724 C9.19531034,3.72551724 11.3175172,5.31862069 11.977931,7.6 C12.056,7.87006897 11.9006897,8.15282759 11.6303448,8.23089655 C11.5826207,8.24496552 11.5348966,8.25131034 11.4882759,8.25131034 Z" id="Shape"></path>
            <path d="M6.81682759,9.60717241 C6.68634483,9.60717241 6.55613793,9.55751724 6.45655172,9.45793103 C6.25765517,9.25903448 6.25765517,8.93655172 6.45682759,8.73793103 L8.784,6.41186207 C8.98289655,6.21296552 9.30537931,6.21268966 9.504,6.41213793 C9.70289655,6.61103448 9.70289655,6.93351724 9.50372414,7.13213793 L7.17655172,9.4582069 C7.07724138,9.55751724 6.94731034,9.60717241 6.81682759,9.60717241 Z" id="Shape"></path>
            <path d="M13.1249655,9.60717241 L11.4595862,9.60717241 C11.1782069,9.60717241 10.9503448,9.37931034 10.9503448,9.09793103 C10.9503448,8.81655172 11.1782069,8.58868966 11.4595862,8.58868966 L13.1249655,8.58868966 C13.4063448,8.58868966 13.6342069,8.81655172 13.6342069,9.09793103 C13.6342069,9.37931034 13.4063448,9.60717241 13.1249655,9.60717241 Z" id="Shape"></path>
            <path d="M2.17434483,9.60717241 L0.509241379,9.60717241 C0.227862069,9.60717241 0,9.37931034 0,9.09793103 C0,8.81655172 0.227862069,8.58868966 0.509241379,8.58868966 L2.17434483,8.58868966 C2.45572414,8.58868966 2.68358621,8.81655172 2.68358621,9.09793103 C2.68358621,9.37931034 2.45544828,9.60717241 2.17434483,9.60717241 Z" id="Shape"></path>
            <path d="M6.81682759,15.9147586 C6.53544828,15.9147586 6.30758621,15.6868966 6.30758621,15.4055172 L6.30758621,13.7401379 C6.30758621,13.4587586 6.53544828,13.2308966 6.81682759,13.2308966 C7.0982069,13.2308966 7.32606897,13.4587586 7.32606897,13.7401379 L7.32606897,15.4055172 C7.32606897,15.6868966 7.09793103,15.9147586 6.81682759,15.9147586 Z" id="Shape"></path>
            <path d="M6.81682759,4.96386207 C6.53544828,4.96386207 6.30758621,4.736 6.30758621,4.45462069 L6.30758621,2.7897931 C6.30758621,2.50841379 6.53544828,2.28055172 6.81682759,2.28055172 C7.0982069,2.28055172 7.32606897,2.50841379 7.32606897,2.7897931 L7.32606897,4.45462069 C7.32606897,4.736 7.09793103,4.96386207 6.81682759,4.96386207 Z" id="Shape"></path>
            <path d="M11.2766897,14.0678621 C11.1462069,14.0678621 11.016,14.0182069 10.9164138,13.9186207 L9.73903448,12.7406897 C9.54013793,12.5417931 9.54013793,12.2193103 9.73931034,12.0206897 C9.9382069,11.8217931 10.2606897,11.8215172 10.4593103,12.0209655 L11.6366897,13.1988966 C11.8355862,13.3977931 11.8355862,13.7202759 11.6364138,13.9188966 C11.5371034,14.0182069 11.4071724,14.0678621 11.2766897,14.0678621 Z" id="Shape"></path>
            <path d="M3.53351724,6.32496552 C3.40303448,6.32496552 3.27282759,6.27531034 3.17324138,6.176 L1.99558621,4.99806897 C1.79668966,4.79889655 1.79668966,4.47641379 1.99558621,4.2777931 C2.19503448,4.07889655 2.51724138,4.07889655 2.71586207,4.2777931 L3.89351724,5.45572414 C4.09241379,5.65489655 4.09241379,5.97737931 3.89351724,6.176 C3.79393103,6.27531034 3.66372414,6.32496552 3.53351724,6.32496552 Z" id="Shape"></path>
            <path d="M2.35613793,14.0678621 C2.22565517,14.0678621 2.09572414,14.0182069 1.99613793,13.9188966 C1.79696552,13.72 1.79696552,13.3975172 1.99586207,13.1988966 L3.1737931,12.0206897 C3.37268966,11.8212414 3.69517241,11.8215172 3.8937931,12.0204138 C4.09296552,12.2193103 4.09296552,12.5417931 3.89406897,12.7404138 L2.71613793,13.9186207 C2.61682759,14.0182069 2.48662069,14.0678621 2.35613793,14.0678621 Z" id="Shape"></path>
            <path d="M8.34124138,2.19834483 C8.05986207,2.19834483 7.832,1.97048276 7.832,1.68910345 L7.832,1.34096552 C7.80110345,1.26041379 7.43944828,1.0182069 6.81655172,1.0182069 C6.19393103,1.0182069 5.83282759,1.26041379 5.80027586,1.35227586 L5.80165517,1.68910345 C5.80165517,1.97048276 5.5737931,2.19834483 5.29241379,2.19834483 C5.01103448,2.19834483 4.78317241,1.97048276 4.78317241,1.68910345 L4.78317241,1.34096552 C4.78372414,0.576551724 5.65765517,0 6.81682759,0 C7.97627586,0 8.85048276,0.576551724 8.85048276,1.34096552 L8.85048276,1.68910345 C8.85048276,1.97048276 8.62262069,2.19834483 8.34124138,2.19834483 Z" id="Shape"></path>
            <path d="M2.17296552,3.43724138 C1.99117241,3.43724138 1.81434483,3.36275862 1.68468966,3.23310345 C1.5577931,3.1062069 1.48331034,2.92717241 1.48331034,2.74758621 C1.48331034,2.56551724 1.55806897,2.3862069 1.68468966,2.25931034 C1.94124138,2.00248276 2.40468966,2.00248276 2.66124138,2.25931034 C2.78813793,2.3862069 2.86234483,2.56524138 2.86234483,2.74758621 C2.86234483,2.92689655 2.78786207,3.1062069 2.66124138,3.23310345 C2.53186207,3.36275862 2.35503448,3.43724138 2.17296552,3.43724138 Z" id="Shape"></path>
            <path d="M11.4612414,3.43724138 C11.2794483,3.43724138 11.0998621,3.36275862 10.9729655,3.23310345 C10.8433103,3.1062069 10.7715862,2.92717241 10.7715862,2.74482759 C10.7715862,2.56248276 10.8435862,2.3862069 10.9729655,2.25931034 C11.2295172,2.00248276 11.6929655,2.00248276 11.9467586,2.25931034 C12.0764138,2.3862069 12.1506207,2.56524138 12.1506207,2.74482759 C12.1506207,2.92689655 12.0761379,3.1062069 11.9467586,3.23310345 C11.8201379,3.36275862 11.6433103,3.43724138 11.4612414,3.43724138 Z" id="Shape"></path>
        </g>
    </g>
</svg>