<?xml version="1.0" encoding="UTF-8"?>
<svg width="40px" height="40px" viewBox="0 0 40 40" version="1.1" xmlns="http://www.w3.org/2000/svg" xmlns:xlink="http://www.w3.org/1999/xlink">
    <!-- Generator: Sketch 50.2 (55047) - http://www.bohemiancoding.com/sketch -->
    <title>pie-chart</title>
    <desc>Created with Sketch.</desc>
    <defs></defs>
    <g id="Page-1" stroke="none" stroke-width="1" fill="none" fill-rule="evenodd">
        <g id="pie-chart" fill="#FFFFFF" fill-rule="nonzero">
            <path d="M19.7686598,18.1093814 L19.7686598,1.6557732 C19.7686598,1.20216495 19.5624742,0.748556701 19.2325773,0.418659794 C18.9026804,0.13 18.4490722,-0.0349484536 18.036701,0.00628865979 C8.22226804,0.501134021 0.469690722,8.25371134 0.0160824742,17.9856701 C-0.0251546392,18.4392784 0.139793814,18.8928866 0.428453608,19.2227835 C0.758350515,19.5526804 1.17072165,19.758866 1.66556701,19.758866 L18.1191753,19.758866 C19.0263918,19.758866 19.7686598,19.0165979 19.7686598,18.1093814 Z M18.1191753,1.6557732 L18.1191753,18.1093814 L1.66556701,18.1093814 C2.07793814,9.16092784 9.12948454,2.10938144 18.1191753,1.6557732 Z" id="Shape"></path>
            <path d="M24.3047423,2.35680412 C23.6037113,2.19185567 22.8614433,2.39804124 22.3253608,2.85164948 C21.7480412,3.30525773 21.4181443,4.00628866 21.4181443,4.7485567 L21.4181443,20.5836082 C21.4181443,21.0372165 21.0470103,21.4083505 20.5934021,21.4083505 L4.75835052,21.4083505 C4.01608247,21.4083505 3.31505155,21.7382474 2.8614433,22.2743299 C2.40783505,22.8104124 2.20164948,23.5526804 2.28412371,24.2949485 C3.89237113,33.3671134 11.8923711,39.9650515 21.0470103,39.9650515 C21.3356701,39.9650515 21.6243299,39.9650515 21.9129897,39.9650515 C31.6037113,39.5114433 39.5212371,31.5939175 39.9336082,21.944433 C40.3872165,12.4186598 33.665567,4.00628866 24.3047423,2.35680412 Z M38.2841237,21.8619588 C37.9129897,30.6454639 30.6552577,37.9031959 21.8305155,38.315567 C13.1707216,38.686701 5.41814433,32.5423711 3.93360825,24.0475258 C3.89237113,23.8001031 3.97484536,23.5526804 4.13979381,23.3464948 C4.30474227,23.1403093 4.51092784,23.0578351 4.79958763,23.0578351 L20.5934021,23.0578351 C21.9542268,23.0578351 23.0676289,21.944433 23.0676289,20.5836082 L23.0676289,4.7485567 C23.0676289,4.50113402 23.1913402,4.29494845 23.3562887,4.13 C23.4387629,4.04752577 23.6861856,3.92381443 23.9748454,3.96505155 C32.5521649,5.49082474 38.6964948,13.1609278 38.2841237,21.8619588 Z" id="Shape"></path>
            <path d="M28.6346392,32.2537113 C28.2635052,32.501134 28.1810309,33.0372165 28.4284536,33.4083505 C28.5934021,33.6557732 28.8408247,33.7794845 29.1294845,33.7794845 C29.294433,33.7794845 29.4593814,33.7382474 29.5830928,33.6557732 C32.7995876,31.4702062 35.0676289,28.2124742 35.8923711,24.501134 C35.9748454,24.0475258 35.7274227,23.5939175 35.2738144,23.5114433 C34.8202062,23.4289691 34.4078351,23.6763918 34.2841237,24.13 C33.5006186,27.4289691 31.5212371,30.315567 28.6346392,32.2537113 Z" id="Shape"></path>
            <path d="M25.6243299,33.8207216 C25.3769072,33.9031959 25.1707216,33.9856701 24.8820619,34.0681443 C24.4284536,34.1918557 24.1810309,34.6454639 24.3047423,35.0990722 C24.3872165,35.4702062 24.7583505,35.7176289 25.0882474,35.7176289 C25.1707216,35.7176289 25.2531959,35.7176289 25.294433,35.6763918 C25.665567,35.5939175 25.9129897,35.4702062 26.2016495,35.3464948 C26.6140206,35.1815464 26.8202062,34.686701 26.6552577,34.2743299 C26.5315464,33.8207216 26.036701,33.6145361 25.6243299,33.8207216 Z" id="Shape"></path>
        </g>
    </g>
</svg>
