<?xml version="1.0" encoding="UTF-8"?>
<svg width="24px" height="24px" viewBox="0 0 24 24" version="1.1" xmlns="http://www.w3.org/2000/svg" xmlns:xlink="http://www.w3.org/1999/xlink">
    <!-- Generator: Sketch 50.2 (55047) - http://www.bohemiancoding.com/sketch -->
    <title>range--light</title>
    <desc>Created with Sketch.</desc>
    <defs>
        <path d="M11.8697224,4 C16.1112692,4 19.5497224,7.43845312 19.5497224,11.68 C19.5497224,15.9215469 16.1112692,19.36 11.8697224,19.36 C10.7758152,19.36 9.09228184,18.810919 9.09228184,18.810919 C8.92724649,18.7602047 8.88085522,18.6078017 8.99363159,18.4641917 L9.35515741,18.003823 C9.46570973,17.8630452 9.69459492,17.7940168 9.86187508,17.8459325 C9.86187508,17.8459325 11.1293684,18.2778328 12.0020821,18.2778328 C15.2648105,18.2778328 17.9097744,15.6328689 17.9097744,12.3701405 C17.9097744,9.10741212 15.2648105,6.46244818 12.0020821,6.46244818 C10.0116006,6.46244818 8.25103935,7.44685412 7.18068492,8.95537953 L8.83850511,9.91252247 L4.25655689,12.2616651 L4,7.11901024 L5.22510053,7.82632236 C6.5549445,5.53831 9.03268765,4 11.8697224,4 L11.8697224,4 L11.8697224,4 Z M11.6298682,8.96282332 L11.3935183,12.7438268 C11.3935183,12.7438268 10.3210135,13.6481481 9.75186859,14.217293 C9.75186859,14.217293 9.52474643,14.5289534 9.74799888,14.8114422 C9.97095366,15.0939309 10.2796374,14.9885558 10.2796374,14.9885558 C11.0333376,14.6012872 12.2246127,13.8332988 12.6827267,13.5341405 C12.7991157,13.457937 12.8651984,13.3251762 12.856566,13.1861643 L12.5919374,8.97115808 C12.5919374,8.97115808 12.4907296,8.65890232 12.102568,8.65890232 C11.7144065,8.65890232 11.6298682,8.96282332 11.6298682,8.96282332 L11.6298682,8.96282332 L11.6298682,8.96282332 L11.6298682,8.96282332 Z" id="path-1"></path>
    </defs>
    <g id="range--light" stroke="none" stroke-width="1" fill="none" fill-rule="evenodd">
        <mask id="mask-2" fill="white">
            <use xlink:href="#path-1"></use>
        </mask>
        <use id="Mask" fill="#C2C8CD" xlink:href="#path-1"></use>
    </g>
</svg>