<?xml version="1.0" encoding="UTF-8"?>
<svg width="24px" height="24px" viewBox="0 0 24 24" version="1.1" xmlns="http://www.w3.org/2000/svg" xmlns:xlink="http://www.w3.org/1999/xlink">
    <!-- Generator: Sketch 50.2 (55047) - http://www.bohemiancoding.com/sketch -->
    <title>restday--light</title>
    <desc>Created with Sketch.</desc>
    <defs></defs>
    <g id="restday--light" stroke="none" stroke-width="1" fill="none" fill-rule="evenodd">
        <path d="M18.1538462,12.3076923 L18.1538462,11.3828314 C18.1538462,10.8740154 18.5635675,10.4615385 19.0769231,10.4615385 C19.5867244,10.4615385 20,10.8653095 20,11.3828314 L20,15.6940917 C20,16.2029077 19.5902786,16.6153846 19.0769231,16.6153846 C18.5671218,16.6153846 18.1538462,16.2116136 18.1538462,15.6940917 L18.1538462,14.7692308 L5.84615385,14.7692308 L5.84615385,15.6933875 C5.84615385,16.2025925 5.43643247,16.6153846 4.92307692,16.6153846 C4.41327562,16.6153846 4,16.1998467 4,15.6933875 L4,8.92199707 C4,8.41279215 4.40972137,8 4.92307692,8 C5.43287823,8 5.84615385,8.41553791 5.84615385,8.92199707 L5.84615385,12.3076923 L18.1538462,12.3076923 Z M6.46153846,10.7692308 C6.46153846,10.2594295 6.876506,9.84615385 7.38471684,9.84615385 L8.61528316,9.84615385 C9.1251405,9.84615385 9.53846154,10.2558752 9.53846154,10.7692308 C9.53846154,11.2790321 9.123494,11.6923077 8.61528316,11.6923077 L7.38471684,11.6923077 C6.8748595,11.6923077 6.46153846,11.2825863 6.46153846,10.7692308 Z" id="Bed" fill="#C2C8CD"></path>
    </g>
</svg>