<?xml version="1.0" encoding="UTF-8"?>
<svg width="24px" height="24px" viewBox="0 0 24 24" version="1.1" xmlns="http://www.w3.org/2000/svg" xmlns:xlink="http://www.w3.org/1999/xlink">
    <!-- Generator: Sketch 50.2 (55047) - http://www.bohemiancoding.com/sketch -->
    <title>run--dark</title>
    <desc>Created with Sketch.</desc>
    <defs>
        <path d="M9.276,3.16666667 C10.238,3.23333333 11.4046667,3.3 12.0626667,2.14 C13.3046667,2.72066667 14.4106667,3.254 14.868,3.5 C15.246,3.7 15.4986667,4.05333333 15.638,4.5 L7.646,4.5 C7.672,3.354 7.854,3.14 8.64066667,3.14 C8.84666667,3.14 9.06066667,3.15333333 9.276,3.16666667 Z M4.36466667,4.5 C3.93733333,3.48 2.834,2.034 0.0126666667,1.83333333 C0.0686666667,0.64 0.786666667,0.206666667 1.41133333,0.206666667 C1.896,0.206666667 2.398,0.453333333 2.75466667,0.866666667 C3.11066667,1.28 3.68733333,1.36666667 4.108,1.36666667 C5.246,1.36666667 6.56933333,0.760666667 7.08933333,0.193333333 C7.18133333,0.0933333333 7.326,0.06 7.45333333,0.106666667 C8.238,0.400666667 9.884,1.134 11.448,1.854 C11.0193333,2.56 10.326,2.56666667 9.31933333,2.5 C9.08866667,2.48733333 8.86066667,2.47333333 8.64066667,2.47333333 C7.134,2.47333333 6.98933333,3.45333333 6.976,4.5 L4.36466667,4.5 Z M4.14066667,5.16666667 L15.754,5.16666667 C15.7553333,5.2 15.7633333,5.22666667 15.764,5.254 C15.77,5.58066667 15.6433333,5.90066667 15.414,6.134 C15.1853333,6.36666667 14.8673333,6.5 14.542,6.5 L0.334666667,6.5 C0.151333333,6.5 0.00133333333,6.354 0.00133333333,6.16666667 L0.00133333333,5.16666667 L4.13666667,5.16666667 L4.14066667,5.16666667 Z M0.00133333333,2.50666667 C1.75533333,2.64666667 3.01066667,3.34 3.62,4.5 L0.00133333333,4.5 L0.00133333333,2.50666667 Z" id="path-1"></path>
    </defs>
    <g id="run--dark" stroke="none" stroke-width="1" fill="none" fill-rule="evenodd">
        <g id="Group" transform="translate(12.916667, 12.477671) rotate(30.000000) translate(-12.916667, -12.477671) translate(4.916667, 8.977671)">
            <mask id="mask-2" fill="white">
                <use xlink:href="#path-1"></use>
            </mask>
            <use id="Mask" fill="#9E9001" xlink:href="#path-1"></use>
        </g>
    </g>
</svg>
