<?xml version="1.0" encoding="UTF-8"?>
<svg width="28px" height="38px" viewBox="0 0 28 38" version="1.1" xmlns="http://www.w3.org/2000/svg" xmlns:xlink="http://www.w3.org/1999/xlink">
    <!-- Generator: Sketch 50.2 (55047) - http://www.bohemiancoding.com/sketch -->
    <title>schedule</title>
    <desc>Created with Sketch.</desc>
    <defs></defs>
    <g id="Page-1" stroke="none" stroke-width="1" fill="none" fill-rule="evenodd">
        <g id="schedule" fill="#FFFFFF">
            <rect id="Rectangle-5" x="12.5800018" y="26.3299999" width="1.66999996" height="10.6999998"></rect>
            <path d="M12.5800018,0.440000057 L14.2500018,0.440000057 L14.2500018,22.165 C14.2500018,22.6261578 13.8761596,23 13.4150018,23 L13.4150018,23 C12.9538441,23 12.5800018,22.6261578 12.5800018,22.165 L12.5800018,0.440000057 Z" id="Rectangle-5"></path>
            <path d="M13.25,27.9896211 C5.88428406,27.705997 0,21.6451726 0,14.21 C0,6.77482736 5.88428406,0.714002922 13.25,0.430378847 L13.25,2.05677068 C6.78202897,2.33930053 1.625,7.67240593 1.625,14.21 C1.625,20.747594 6.78202897,26.0806994 13.25,26.3632293 L13.25,27.9896211 Z" id="Combined-Shape"></path>
            <path d="M27.0582519,36.8996211 L25.3840246,36.8996211 C24.0287096,31.9046323 19.5662502,28.1882581 14.2000008,27.953853 L14.2000008,26.3299999 C20.4669111,26.5713134 25.6597401,31.0012658 27.0582519,36.8996211 Z" id="Combined-Shape"></path>
        </g>
    </g>
</svg>