<?xml version="1.0" encoding="UTF-8"?>
<svg width="24px" height="24px" viewBox="0 0 24 24" version="1.1" xmlns="http://www.w3.org/2000/svg" xmlns:xlink="http://www.w3.org/1999/xlink">
    <!-- Generator: Sketch 50.2 (55047) - http://www.bohemiancoding.com/sketch -->
    <title>screw--dark</title>
    <desc>Created with Sketch.</desc>
    <defs>
        <path d="M9.7,18.786 L4.33333333,18.786 C4.15,18.786 4,18.64 4,18.4526667 L4,14.7126667 C4,14.606 4.046,14.5126667 4.12466667,14.4526667 L8.65933333,10.7993333 C9.206,10.3526667 9.578,9.73333333 9.62866667,9.17266667 C9.668,8.75266667 9.75466667,8.006 9.82133333,7.81266667 C10.604,5.566 12.758,4 15.0586667,4 C16.9346667,4 18.5913333,4.826 19.6053333,6.26 C19.6786667,6.36666667 19.6873333,6.5 19.63,6.606 C19.5726667,6.72 19.458,6.786 19.3333333,6.786 L15.5726667,6.786 L14,8.27333333 L14,10.94 L15.5533333,12.1193333 L19.3333333,12.1193333 C19.4546667,12.1193333 19.5653333,12.1866667 19.624,12.2926667 C19.6833333,12.3926667 19.6806667,12.5266667 19.62,12.626 C19.2226667,13.286 18.7093333,13.7993333 18.0013333,14.2393333 C17.0886667,14.8126667 16.074,15.1193333 15.0686667,15.1193333 C14.8373333,15.1193333 14.552,15.106 14.384,15.0933333 C13.8426667,15.0326667 13.3153333,15.446 13.0586667,15.68 L9.93066667,18.6926667 C9.86933333,18.7526667 9.78666667,18.786 9.7,18.786" id="path-1"></path>
    </defs>
    <g id="screw--dark" stroke="none" stroke-width="1" fill="none" fill-rule="evenodd">
        <mask id="mask-2" fill="white">
            <use xlink:href="#path-1"></use>
        </mask>
        <use id="Mask" fill="#4F5B64" xlink:href="#path-1"></use>
    </g>
</svg>