<?xml version="1.0" encoding="UTF-8"?>
<svg width="135px" height="53px" viewBox="0 0 135 53" version="1.1" xmlns="http://www.w3.org/2000/svg" xmlns:xlink="http://www.w3.org/1999/xlink">
    <!-- Generator: Sketch 50.2 (55047) - http://www.bohemiancoding.com/sketch -->
    <title>tenk--light</title>
    <desc>Created with Sketch.</desc>
    <defs>
        <path d="M7.8515625,45.8476562 L16.5,44.7929688 L16.5,10.1289062 L7.74609375,10.1289062 L7.74609375,4.2578125 L26.7304688,0.8125 L26.7304688,44.7929688 L35.3789062,45.8476562 L35.3789062,52 L7.8515625,52 L7.8515625,45.8476562 Z M75.421875,32.0664062 C75.421875,38.8398776 73.8691562,43.9784981 70.7636719,47.4824219 C67.6581876,50.9863456 63.4570577,52.7382812 58.1601562,52.7382812 C52.8163795,52.7382812 48.5859531,50.9863456 45.46875,47.4824219 C42.3515469,43.9784981 40.7929688,38.8398776 40.7929688,32.0664062 L40.7929688,20.78125 C40.7929688,14.0312162 42.3456876,8.89259576 45.4511719,5.36523438 C48.5566562,1.83787299 52.7695046,0.07421875 58.0898438,0.07421875 C63.3867452,0.07421875 67.5995937,1.83787299 70.7285156,5.36523438 C73.8574375,8.89259576 75.421875,14.0312162 75.421875,20.78125 L75.421875,32.0664062 Z M65.1914062,19.7265625 C65.1914062,15.6718547 64.5820373,12.7011813 63.3632812,10.8144531 C62.1445252,8.92772494 60.3867302,7.984375 58.0898438,7.984375 C55.7695196,7.984375 54.0117247,8.92186563 52.8164062,10.796875 C51.6210878,12.6718844 51.0234375,15.6484171 51.0234375,19.7265625 L51.0234375,33.0507812 C51.0234375,37.1758019 51.6269471,40.1757719 52.8339844,42.0507812 C54.0410217,43.9257906 55.8163945,44.8632812 58.1601562,44.8632812 C60.4570427,44.8632812 62.203119,43.9257906 63.3984375,42.0507812 C64.593756,40.1757719 65.1914062,37.1758019 65.1914062,33.0507812 L65.1914062,19.7265625 Z M93.28125,52 L83.0507812,52 L83.0507812,43 L93.28125,43 L93.28125,52 Z M134.90625,32.0664062 C134.90625,38.8398776 133.353531,43.9784981 130.248047,47.4824219 C127.142563,50.9863456 122.941433,52.7382812 117.644531,52.7382812 C112.300755,52.7382812 108.070328,50.9863456 104.953125,47.4824219 C101.835922,43.9784981 100.277344,38.8398776 100.277344,32.0664062 L100.277344,20.78125 C100.277344,14.0312162 101.830063,8.89259576 104.935547,5.36523438 C108.041031,1.83787299 112.25388,0.07421875 117.574219,0.07421875 C122.87112,0.07421875 127.083969,1.83787299 130.212891,5.36523438 C133.341813,8.89259576 134.90625,14.0312162 134.90625,20.78125 L134.90625,32.0664062 Z M124.675781,19.7265625 C124.675781,15.6718547 124.066412,12.7011813 122.847656,10.8144531 C121.6289,8.92772494 119.871105,7.984375 117.574219,7.984375 C115.253895,7.984375 113.4961,8.92186563 112.300781,10.796875 C111.105463,12.6718844 110.507812,15.6484171 110.507812,19.7265625 L110.507812,33.0507812 C110.507812,37.1758019 111.111322,40.1757719 112.318359,42.0507812 C113.525397,43.9257906 115.30077,44.8632812 117.644531,44.8632812 C119.941418,44.8632812 121.687494,43.9257906 122.882812,42.0507812 C124.078131,40.1757719 124.675781,37.1758019 124.675781,33.0507812 L124.675781,19.7265625 Z" id="path-1"></path>
    </defs>
    <g id="tenk--light" stroke="none" stroke-width="1" fill="none" fill-rule="evenodd">
        <mask id="mask-2" fill="white">
            <use xlink:href="#path-1"></use>
        </mask>
        <use id="Mask" fill="#C2C8CD" xlink:href="#path-1"></use>
    </g>
</svg>