<?xml version="1.0" encoding="UTF-8"?>
<svg width="24px" height="24px" viewBox="0 0 24 24" version="1.1" xmlns="http://www.w3.org/2000/svg" xmlns:xlink="http://www.w3.org/1999/xlink">
    <!-- Generator: Sketch 50.2 (55047) - http://www.bohemiancoding.com/sketch -->
    <title>time--dark</title>
    <desc>Created with Sketch.</desc>
    <defs>
        <path d="M19.3186667,10.6873333 C19.1513333,10.6133333 18.9533333,10.68 18.8746667,10.8466667 L18.246,12.1933333 C17.686,8.13333333 14.2073333,5 10,5 C9.81666667,5 9.66666667,5.15333333 9.66666667,5.33333333 C9.66666667,5.52 9.81666667,5.66666667 10,5.66666667 C13.9413333,5.66666667 17.194,8.66 17.6173333,12.4866667 L16.5313333,11.1273333 C16.4166667,10.98 16.2073333,10.9606667 16.0633333,11.0733333 C15.9193333,11.1873333 15.896,11.4 16.0106667,11.54 L17.7393333,13.7066667 C17.8026667,13.7866667 17.8993333,13.8333333 18,13.8333333 L18.0393333,13.8333333 C18.152,13.8206667 18.2526667,13.7466667 18.3013333,13.6406667 L19.4793333,11.1333333 C19.5573333,10.9666667 19.4853333,10.7673333 19.3186667,10.6873333" id="path-1"></path>
    </defs>
    <g id="time--dark" stroke="none" stroke-width="1" fill="none" fill-rule="evenodd">
        <path d="M10,7.33333333 C13.3086667,7.33333333 16,10.0266667 16,13.3333333 C16,16.6406667 13.3086667,19.3333333 10,19.3333333 C6.692,19.3333333 4,16.6406667 4,13.3333333 C4,10.0266667 6.692,7.33333333 10,7.33333333 Z M12.902,10.9073333 C13.0326667,10.774 13.0326667,10.56 12.902,10.4333333 C12.772,10.3 12.5613333,10.3 12.4306667,10.4333333 L10,12.86 L8.23533333,11.1006667 C8.10533333,10.9666667 7.89466667,10.9666667 7.764,11.1006667 C7.634,11.2273333 7.634,11.44 7.764,11.5733333 L9.764,13.5733333 C9.82933333,13.6333333 9.91533333,13.6666667 10,13.6666667 C10.086,13.6666667 10.1706667,13.6333333 10.2353333,13.5733333 L12.902,10.9073333 Z" id="Combined-Shape" fill="#4F5B64"></path>
        <mask id="mask-2" fill="white">
            <use xlink:href="#path-1"></use>
        </mask>
        <use id="Mask" fill="#4F5B64" xlink:href="#path-1"></use>
    </g>
</svg>