<?xml version="1.0" encoding="UTF-8"?>
<svg width="24px" height="24px" viewBox="0 0 24 24" version="1.1" xmlns="http://www.w3.org/2000/svg" xmlns:xlink="http://www.w3.org/1999/xlink">
    <!-- Generator: Sketch 50.2 (55047) - http://www.bohemiancoding.com/sketch -->
    <title>type--dark</title>
    <desc>Created with Sketch.</desc>
    <defs>
        <path d="M5.66666667,16 C5.85133333,16 6,16.1473333 6,16.3333333 L6,19.6666667 C6,19.8533333 5.85133333,20 5.66666667,20 L4.33333333,20 C4.14933333,20 4,19.8533333 4,19.6666667 L4,16.3333333 C4,16.1473333 4.14933333,16 4.33333333,16 L5.66666667,16 Z M12.3333333,10 C12.518,10 12.6666667,10.1473333 12.6666667,10.3333333 L12.6666667,19.6666667 C12.6666667,19.8533333 12.518,20 12.3333333,20 L11,20 C10.816,20 10.6666667,19.8533333 10.6666667,19.6666667 L10.6666667,10.3333333 C10.6666667,10.1473333 10.816,10 11,10 L12.3333333,10 Z M15.6666667,4 C15.8513333,4 16,4.14733333 16,4.33333333 L16,19.6666667 C16,19.8533333 15.8513333,20 15.6666667,20 L14.3333333,20 C14.1493333,20 14,19.8533333 14,19.6666667 L14,4.33333333 C14,4.14733333 14.1493333,4 14.3333333,4 L15.6666667,4 Z M19,10 C19.1846667,10 19.3333333,10.1473333 19.3333333,10.3333333 L19.3333333,19.6666667 C19.3333333,19.8533333 19.1846667,20 19,20 L17.6666667,20 C17.4826667,20 17.3333333,19.8533333 17.3333333,19.6666667 L17.3333333,10.3333333 C17.3333333,10.1473333 17.4826667,10 17.6666667,10 L19,10 Z M9,8.66666667 C9.18466667,8.66666667 9.33333333,8.81333333 9.33333333,9 L9.33333333,19.6666667 C9.33333333,19.8533333 9.18466667,20 9,20 L7.66666667,20 C7.48266667,20 7.33333333,19.8533333 7.33333333,19.6666667 L7.33333333,9 C7.33333333,8.81333333 7.48266667,8.66666667 7.66666667,8.66666667 L9,8.66666667 Z" id="path-1"></path>
    </defs>
    <g id="type--dark" stroke="none" stroke-width="1" fill="none" fill-rule="evenodd">
        <mask id="mask-2" fill="white">
            <use xlink:href="#path-1"></use>
        </mask>
        <use id="Mask" fill="#4F5B64" xlink:href="#path-1"></use>
    </g>
</svg>