<svg xmlns="http://www.w3.org/2000/svg" width="37" height="59" viewBox="0 0 37 59">
    <g fill="none" fill-rule="nonzero">
        <path fill="#F7F7FB" d="M34.896 31.324V20.328c0-2.36-.966-4.613-2.628-6.168l-2.2-2.145h-7.294l-2.2 2.145a8.65 8.65 0 0 0-2.627 6.168v10.996l1.609 12.604-1.61 4.184v7.133l1.61 2.092h13.731l1.609-2.092v-7.08l-1.61-4.183 1.61-12.658z"/>
        <path fill="#101215" d="M34.896 20.328c0-2.36-.966-4.613-2.628-6.168l-2.2-2.145h-6.114l2.2 2.145a8.65 8.65 0 0 1 2.627 6.168v10.996l-1.609 12.604 1.61 4.184v7.133l-1.61 2.092h6.115l1.609-2.092v-7.08l-1.61-4.183 1.61-12.605V20.328z" opacity=".2"/>
        <path fill="#101215" d="M17.947 20.328h16.949v10.995H17.947z" opacity=".2"/>
        <path fill="#8D97B7" d="M30.444 12.015H22.4v-3.97c0-.59.482-1.072 1.072-1.072h5.9c.59 0 1.073.482 1.073 1.072v3.97z"/>
        <path fill="#454B54" d="M30.444 13.624H22.4a1.58 1.58 0 0 1-1.61-1.61V8.045a2.656 2.656 0 0 1 2.682-2.681h5.9a2.656 2.656 0 0 1 2.682 2.681v3.97a1.58 1.58 0 0 1-1.609 1.609zm-6.49-3.219h4.827V8.582h-4.827v1.823z"/>
        <path fill="#FEFEFF" d="M26.421 22.045s-2.735 2.735-2.735 4.72c0 1.555 1.234 2.842 2.735 2.842 1.502 0 2.736-1.287 2.736-2.842 0-2.039-2.736-4.72-2.736-4.72z"/>
        <path fill="#454B54" d="M33.287 59h-4.023c-.268 0-.59-.054-.804-.215l-1.985-1.18-1.985 1.18c-.268.161-.536.215-.804.215h-4.023a1.6 1.6 0 0 1-1.287-.644c-1.234-1.609-1.931-3.7-1.931-5.792v-2.95c0-1.18.215-2.307.644-3.433l.965-2.467-1.555-12.23V20.329c0-2.789 1.126-5.47 3.11-7.348l2.2-2.145c.321-.269.697-.43 1.126-.43h7.24c.43 0 .805.161 1.127.43l2.2 2.145c1.984 1.877 3.11 4.56 3.11 7.348v11.21l-1.716 12.23.965 2.467a9.29 9.29 0 0 1 .644 3.432v2.95c0 2.092-.697 4.13-1.931 5.793-.322.375-.804.59-1.287.59zm-3.594-3.218h2.736c.536-.966.858-2.038.858-3.165v-2.95c0-.804-.161-1.555-.43-2.252l-1.072-2.843c-.107-.268-.107-.537-.107-.805l1.609-12.497V20.328c0-1.93-.751-3.754-2.146-5.042l-1.77-1.662h-5.953l-1.77 1.662a7.013 7.013 0 0 0-2.146 5.042v10.888l1.61 12.498c.053.268 0 .536-.108.804l-1.073 2.843c-.268.75-.429 1.502-.429 2.253v2.95c0 1.126.322 2.252.858 3.164h2.736l2.467-1.448c.483-.322 1.127-.322 1.663 0l2.467 1.502z"/>
        <path fill="#101215" d="M19.556 43.928l-1.61 4.237h16.95l-1.61-4.237z" opacity=".2"/>
        <g fill="#454B54">
            <path d="M33.287 45.537h-2.843a1.58 1.58 0 0 1-1.609-1.609c0-.912.697-1.609 1.61-1.609h2.842c.912 0 1.609.697 1.609 1.61 0 .911-.751 1.608-1.61 1.608zM34.467 49.775H26.42a1.58 1.58 0 0 1-1.609-1.61c0-.911.698-1.609 1.61-1.609h8.045c.912 0 1.609.698 1.609 1.61a1.58 1.58 0 0 1-1.61 1.609z"/>
        </g>
        <path fill="#8D97B7" d="M9.365 1.609h3.647v5.578H9.365z"/>
        <g fill="#454B54">
            <path d="M13.012 8.796H9.365a1.58 1.58 0 0 1-1.61-1.609V1.61C7.756.697 8.454 0 9.366 0h3.647c.912 0 1.61.697 1.61 1.61v5.577a1.58 1.58 0 0 1-1.61 1.61zm-2.038-3.218h.43v-2.36h-.43v2.36z"/>
            <path d="M16.874 11.585a1.58 1.58 0 0 1-1.609-1.609v-1.18H7.112v1.18a1.58 1.58 0 0 1-1.609 1.61 1.58 1.58 0 0 1-1.609-1.61V7.187c0-.912.697-1.609 1.61-1.609h11.37c.912 0 1.61.697 1.61 1.61v2.788a1.58 1.58 0 0 1-1.61 1.61z"/>
        </g>
        <path fill="#BCF0F1" d="M20.736 23.922v-11.64l-1.824-2.306H3.465l-1.824 2.307v11.639l1.824 2.306v2.36l-1.824 2.307v24.19l1.824 2.306h15.447l1.824-2.306v-24.19l-1.824-2.307v-2.36z"/>
        <path fill="#101215" d="M20.736 23.922v-11.64l-1.824-2.306h-6.06l1.823 2.307v11.639l-1.824 2.306v2.36l1.824 2.307v24.19l-1.824 2.306h6.061l1.824-2.306v-24.19l-1.824-2.307v-2.36z" opacity=".2"/>
        <path fill="#101215" d="M20.736 23.922H1.64l1.824 2.306v2.36l-1.824 2.307h19.095l-1.824-2.307v-2.36z" opacity=".2"/>
        <path fill="#F7F7FB" d="M20.736 30.895H11.67l-6.382 8.85h5.47L2.554 51.33v.965l16.842-15.34H16.23z"/>
        <g fill="#454B54">
            <path d="M18.912 59H3.465a1.6 1.6 0 0 1-1.287-.644L.354 56.05a1.606 1.606 0 0 1-.322-.965v-24.19c0-.376.108-.698.322-.966l1.502-1.877v-1.234L.354 24.941a1.606 1.606 0 0 1-.322-.965V12.283c0-.376.108-.698.322-.966l1.824-2.306c.322-.376.75-.644 1.287-.644h2.038c.912 0 1.61.698 1.61 1.61a1.58 1.58 0 0 1-1.61 1.609H4.216l-.966 1.287v10.513l1.502 1.877c.215.268.322.643.322.965v2.307c0 .375-.107.697-.322.965L3.25 31.431v23.064l1.02 1.287H18.16l1.02-1.287V31.43l-1.502-1.877a1.606 1.606 0 0 1-.322-.966v-2.306c0-.376.107-.697.322-.966l1.502-1.877V12.873l-1.02-1.288h-1.287a1.58 1.58 0 0 1-1.609-1.609c0-.912.697-1.609 1.61-1.609h2.037a1.6 1.6 0 0 1 1.288.644l1.823 2.306c.215.268.322.644.322.966v11.639c0 .375-.107.697-.322.965l-1.502 1.931v1.234l1.502 1.877c.215.268.322.643.322.965v24.19c0 .376-.107.698-.322.966L20.2 58.356c-.322.43-.751.644-1.288.644z"/>
            <path d="M20.736 25.53h-9.977a1.58 1.58 0 0 1-1.609-1.608c0-.912.698-1.61 1.61-1.61h9.976c.912 0 1.609.698 1.609 1.61a1.58 1.58 0 0 1-1.61 1.609zM20.736 32.504h-9.977a1.58 1.58 0 0 1-1.609-1.61c0-.911.698-1.609 1.61-1.609h9.976c.912 0 1.609.698 1.609 1.61a1.58 1.58 0 0 1-1.61 1.609z"/>
        </g>
    </g>
</svg>
