<svg xmlns="http://www.w3.org/2000/svg" width="41" height="59" viewBox="0 0 41 59">
    <g fill="none" fill-rule="nonzero">
        <path fill="#F0D6BF" d="M33.975 57.39H7.032c-2.929 0-5.325-2.413-5.325-5.363V13.57c0-2.95 2.396-5.364 5.325-5.364h26.89c2.928 0 5.324 2.414 5.324 5.364v38.457c.053 2.95-2.343 5.364-5.271 5.364z"/>
        <path fill="#454B54" d="M33.975 59H7.032C3.198 59 .11 55.89.11 52.027V13.57c0-3.862 3.088-6.973 6.922-6.973h26.89c3.833 0 6.922 3.111 6.922 6.973v38.457C40.897 55.89 37.755 59 33.974 59zM7.032 9.815c-2.077 0-3.727 1.663-3.727 3.755v38.457c0 2.092 1.65 3.755 3.727 3.755h26.89c2.076 0 3.727-1.663 3.727-3.755V13.57c0-2.092-1.65-3.755-3.727-3.755H7.032z"/>
        <path fill="#F7F7FB" d="M5.914 12.497h29.179V53.1H5.914z"/>
        <g fill="#101215" opacity=".2">
            <path d="M17.628 33.47h5.751v17.002h-5.751zM26.254 26.174h5.751v24.244h-5.751zM9.002 40.763h5.751v9.708H9.002z"/>
        </g>
        <path fill="#EAE6EC" d="M12.517 8.206h16.666v4.291H12.517z"/>
        <g fill="#454B54">
            <path d="M29.183 14.106H12.516c-.905 0-1.597-.697-1.597-1.609v-4.29c0-.912.692-1.61 1.597-1.61h16.667c.905 0 1.597.698 1.597 1.61v4.29c0 .912-.692 1.61-1.597 1.61zm-15.07-3.218h13.472V9.815H14.114v1.073z"/>
            <path d="M20.983 9.815c-2.663 0-4.846-2.199-4.846-4.934A4.847 4.847 0 0 1 20.983 0c2.662 0 4.845 2.2 4.845 4.935a4.847 4.847 0 0 1-4.845 4.88zm0-6.597c-.906 0-1.651.751-1.651 1.717 0 .965.745 1.716 1.65 1.716.906 0 1.651-.75 1.651-1.716s-.745-1.717-1.65-1.717z"/>
        </g>
    </g>
</svg>
