<?xml version="1.0" encoding="UTF-8"?>
<svg width="43px" height="59px" viewBox="0 0 43 59" version="1.1" xmlns="http://www.w3.org/2000/svg" xmlns:xlink="http://www.w3.org/1999/xlink">
    <!-- Generator: Sketch 50 (54983) - http://www.bohemiancoding.com/sketch -->
    <title>036-runner-5</title>
    <desc>Created with Sketch.</desc>
    <defs></defs>
    <g id="DESKTOP" stroke="none" stroke-width="1" fill="none" fill-rule="evenodd">
        <g id="Comparison" transform="translate(-48.000000, -152.000000)" fill-rule="nonzero">
            <g id="036-runner-5" transform="translate(48.000000, 152.000000)">
                <path d="M21.6481602,1.60913281 C21.5945762,1.60913281 21.5945762,1.60913281 21.540877,1.60913281 C21.487293,1.60913281 21.487293,1.60913281 21.4335938,1.60913281 C11.6717441,1.60913281 5.82544336,8.47456641 5.55717773,21.776416 L5.55717773,32.986416 C5.55717773,34.756416 6.09359375,36.526416 7.05902734,38.0282656 C8.77544336,40.656416 11.6181602,42.2655488 14.7290273,42.2655488 L28.2990273,42.2655488 C31.4098945,42.2655488 34.3063105,40.656416 35.9690273,38.0282656 C36.9344609,36.526416 37.470877,34.756416 37.470877,32.986416 L37.470877,21.722832 C37.2563105,8.42086719 31.4100098,1.60913281 21.6481602,1.60913281 Z" id="Shape" fill="#826D6F"></path>
                <path d="M28.3527266,43.8208672 L14.7290273,43.8208672 C11.0817441,43.8208672 7.70261133,41.943584 5.66446094,38.8863008 C4.53804492,37.1163008 3.94804492,35.0781504 3.94804492,32.9863008 L3.94804492,21.7227168 C4.21631055,7.88456641 10.5990273,0 21.4335937,0 L21.540877,0 L21.6481602,0 C32.4827266,0 38.8654434,7.93815039 39.1335937,21.7227168 L39.1335937,32.9327168 C39.1335937,35.0245664 38.5435937,37.1163008 37.4171777,38.8327168 C35.3790273,41.943584 32.0000098,43.8208672 28.3527266,43.8208672 Z M21.4335937,3.21815039 C9.90174414,3.21815039 7.32717773,13.3017344 7.16631055,21.7763008 L7.16631055,32.9327168 C7.16631055,34.4345664 7.59544336,35.8827168 8.39989453,37.1163008 C9.79446094,39.3154336 12.1544609,40.6027168 14.7290273,40.6027168 L28.2990273,40.6027168 C30.8735937,40.6027168 33.2335937,39.3154336 34.6281602,37.1163008 C35.4327266,35.8827168 35.8617441,34.4344512 35.8617441,32.9327168 L35.8617441,21.7227168 C35.700877,13.2481504 33.1263105,3.16456641 21.5944609,3.16456641 C21.5944609,3.16456641 21.540877,3.16456641 21.4871777,3.16456641 L21.4335937,3.21815039 Z" id="Shape" fill="#454545"></path>
                <path d="M35.5935937,50.9545664 L26.9581602,47.0927168 L15.8554434,47.0927168 L6.25457617,51.4372832 C4.32370898,52.2954336 2.76816016,54.0654336 2.01729297,56.2645664 L1.64185938,57.3909824 L41.1718594,57.3909824 C40.2063105,54.4408672 38.1681602,52.1345664 35.5935937,50.9545664 Z" id="Shape" fill="#D79381"></path>
                <path d="M32.8581602,57.3908672 C32.4827266,56.05 32.2145762,54.7090176 32.160877,53.3144512 L32.0000098,49.3990176 L27.6554434,47.4144512 L27.387293,47.307168 L26.9581602,47.4144512 L26.9581602,48.9163008 C25.3490273,55.2454336 17.5181602,55.2454336 15.9090273,48.9163008 L15.9090273,47.4144512 L15.4798945,47.307168 L15.2117441,47.360752 L10.8671777,49.3453184 L10.7063105,53.260752 C10.6527266,54.6553184 10.4381602,56.0498848 10.0090273,57.337168 L32.8581602,57.337168 L32.8581602,57.3908672 Z" id="Shape" fill="#E6E6E6"></path>
                <g id="Group" transform="translate(8.412109, 47.707031)" fill="#454545">
                    <path d="M1.59691797,11.2929688 C1.43605078,11.2929688 1.27506836,11.2929688 1.16778516,11.2393848 C0.309634766,10.9712344 -0.173082031,10.1129688 0.0950683594,9.25481836 C0.470501953,8.02123438 0.685068359,6.78753516 0.685068359,5.55395117 L0.845935547,1.63851758 C0.899519531,0.726667969 1.65050195,0.0830839844 2.50865234,0.0830839844 C3.42050195,0.136667969 4.06408594,0.887650391 4.06408594,1.74580078 L3.90321875,5.66123438 C3.84963477,7.16308398 3.58136914,8.66481836 3.15235156,10.166668 C2.93790039,10.810252 2.29420117,11.2929688 1.59691797,11.2929688 Z" id="Shape"></path>
                    <path d="M24.4460508,11.2929688 C23.7487676,11.2929688 23.1051836,10.8638359 22.8906172,10.1129688 C22.4614844,8.66481836 22.193334,7.16296875 22.13975,5.60753516 L21.9788828,1.69210156 C21.9252988,0.780251953 22.6224668,0.0293847656 23.5343164,0.0293847656 C24.446166,-0.0241992187 25.1970332,0.67296875 25.1970332,1.58481836 L25.3579004,5.50025195 C25.4114844,6.73383594 25.6260508,7.96753516 25.9479004,9.20111914 C26.2160508,10.0592695 25.733334,10.9711191 24.8751836,11.1856855 C24.7679004,11.2393848 24.606918,11.2929688 24.4460508,11.2929688 Z" id="Shape"></path>
                </g>
                <path d="M26.9581602,43.1772832 L26.9581602,48.916416 C25.3490273,55.2455488 17.5181602,55.2455488 15.9090273,48.916416 L15.9090273,43.1772832" id="Shape" fill="#D79381"></path>
                <path d="M15.9090273,47.6827168 C18.2154434,49.1308672 20.1998945,49.3991328 21.4335938,49.3991328 C22.8281602,49.3991328 24.8127266,49.0236992 26.9581602,47.6827168 L26.9581602,45.0545664 L15.9090273,45.0545664 L15.9090273,47.6827168 Z" id="Shape" fill="#101215" opacity="0.2"></path>
                <g id="Group" transform="translate(0.000000, 41.484375)" fill="#454545">
                    <path d="M21.4335938,13.7610586 C18.0544609,13.7610586 15.2654434,11.4010586 14.3535938,7.80747461 C14.3000098,7.70019141 14.3000098,7.53932422 14.3000098,7.43204102 L14.3000098,1.6929082 C14.3000098,0.781058594 14.997293,0.0837753906 15.9091426,0.0837753906 C16.8209922,0.0837753906 17.5182754,0.781058594 17.5182754,1.6929082 L17.5182754,7.21747461 C18.2155586,9.68475781 19.9855586,10.5429082 21.433709,10.5429082 C22.8818594,10.5429082 24.6518594,9.68475781 25.3491426,7.21747461 L25.3491426,1.6929082 C25.3491426,0.781058594 26.0464258,0.0837753906 26.9582754,0.0837753906 C27.870125,0.0837753906 28.5674082,0.781058594 28.5674082,1.6929082 L28.5674082,7.43204102 C28.5674082,7.53932422 28.5674082,7.70019141 28.5138242,7.80747461 C27.6017441,11.4010586 24.8127266,13.7610586 21.4335938,13.7610586 Z" id="Shape"></path>
                    <path d="M1.64174414,17.515625 C1.48087695,17.515625 1.31989453,17.462041 1.10532812,17.4083418 C0.247177734,17.1401914 -0.181955078,16.2283418 0.0861953125,15.3701914 L0.461628906,14.2437754 C1.37347852,11.615625 3.1970625,9.52377539 5.5570625,8.45105859 L15.1579297,4.10649219 C15.9624961,3.73105859 16.9279297,4.10649219 17.3033633,4.91105859 C17.6787969,5.715625 17.3033633,6.68105859 16.4987969,7.05649219 L6.95151367,11.4010586 C5.44966406,12.0983418 4.21608008,13.4929082 3.57238086,15.3164922 L3.19694727,16.4429082 C2.98272656,17.0864922 2.33902734,17.515625 1.64174414,17.515625 Z" id="Shape"></path>
                    <path d="M41.2254434,17.462041 C40.5818594,17.462041 39.9381602,17.0329082 39.7235937,16.3893242 C38.8654434,13.868457 37.1490273,11.8838906 35.0035937,10.918457 L26.3681602,7.05660742 C25.5635937,6.68117383 25.1881602,5.71574023 25.5635937,4.91117383 C25.9390273,4.10660742 26.9044609,3.73117383 27.7090273,4.10660742 L36.3444609,7.96845703 C39.2944609,9.30932422 41.6544609,11.9911738 42.780877,15.3166074 C43.0490273,16.1747578 42.6200098,17.0866074 41.7617441,17.3547578 C41.5471777,17.462041 41.3863105,17.462041 41.2254434,17.462041 Z" id="Shape"></path>
                </g>
                <path d="M37.3100098,22.473584 C37.3100098,8.68901758 31.4100098,1.55543359 21.4335937,1.55543359 C11.4571777,1.55543359 5.55717773,8.68913281 5.55717773,22.473584 C3.67989453,22.6344512 4.43076172,29.9290176 6.73717773,29.7144512 C11.4035937,42.9091328 16.9817441,46.3418496 21.4335938,46.3418496 C25.8854434,46.3418496 31.4635938,42.8554336 36.1300098,29.6609824 C38.4363105,29.9827168 39.1871777,22.6345664 37.3100098,22.473584 Z" id="Shape" fill="#D79381"></path>
                <path d="M37.3100098,22.473584 C37.3100098,8.68901758 31.4100098,1.55543359 21.4335937,1.55543359 C21.1117441,1.55543359 20.7900098,1.55543359 20.5217441,1.55543359 C20.4681602,1.55543359 20.4681602,1.55543359 20.4144609,1.55543359 C11.0280449,2.03815039 5.55717773,9.06456641 5.55717773,22.42 C5.28902734,22.42 5.07446094,22.6345664 4.91359375,22.9027168 C4.91359375,22.9027168 6.73717773,18.1827168 9.09717773,15.93 C10.4380449,14.696416 16.1771777,21.3472832 31.5171777,21.7227168 C34.8427266,21.83 38.5971777,22.5808672 37.3100098,22.473584 Z" id="Shape" fill="#826D6F"></path>
                <g id="Group" transform="translate(2.765625, 0.000000)" fill="#454545">
                    <path d="M34.705252,24.0827168 C34.5979688,24.0827168 34.4906855,24.0827168 34.4371016,24.0827168 C34.1689512,24.0827168 33.9543848,23.9754336 33.7398184,23.8681504 C32.7743848,23.7072832 30.6825352,23.3854336 28.751668,23.3317344 C18.2389512,23.117168 12.0171016,19.9526016 8.69166797,18.2898848 C8.04808398,17.9680352 7.35080078,17.5926016 6.92166797,17.4853184 C6.33166797,17.6998848 5.63438477,17.5926016 5.20525195,17.1098848 C4.61525195,16.4663008 4.61525195,15.447168 5.25883594,14.857168 C6.54611914,13.677168 8.04796875,14.4280352 10.1397031,15.500752 C13.2505703,17.0561855 19.0432871,20.0061855 28.8588359,20.220752 C30.575252,20.2743359 32.2379688,20.4889023 33.0961191,20.5961855 C35.2415527,20.9180352 35.8315527,21.0253184 36.2606855,21.8297695 C36.5288359,22.3661855 36.5288359,22.9561855 36.2071016,23.4389023 C35.7243848,24.0291328 35.0806855,24.0827168 34.705252,24.0827168 Z" id="Shape"></path>
                    <path d="M18.6679688,47.9508672 C10.7298184,47.9508672 5.68796875,38.94 2.73796875,31.0554336 C1.02155273,30.3045664 0.217101563,27.8372832 0.109818359,25.37 C0.056234375,23.2781504 0.538951172,22.0981504 1.18253516,21.5081504 C1.45068555,7.83086719 7.77981836,0 18.6679688,0 C29.5561191,0 35.885252,7.83086719 36.1534023,21.5618496 C36.7434023,22.1518496 37.2798184,23.3318496 37.2261191,25.4236992 C37.1188359,27.8909824 36.3142695,30.3582656 34.5979688,31.0555488 C31.6479687,38.993584 26.6061191,47.9508672 18.6679688,47.9508672 Z M4.02525195,28.1054336 C4.66883594,28.1590176 5.25883594,28.5345664 5.47340234,29.1781504 C9.06710156,39.3691328 13.6798184,44.786416 18.6679687,44.786416 C23.6561191,44.786416 28.2688359,39.3691328 31.8625352,29.1782656 C32.0771016,28.5346816 32.6671016,28.1591328 33.3106855,28.1055488 C33.8471016,27.4619648 34.2225352,24.9409824 33.9006855,23.9755488 C33.3106855,23.7073984 32.935252,23.1709824 32.935252,22.5273984 C32.935252,6.59739844 25.1579687,3.21826562 18.6679687,3.21826562 C12.1779687,3.21826562 4.40068555,6.54358398 4.40068555,22.5272832 C4.40068555,23.1708672 4.02525195,23.7608672 3.43525195,23.9754336 C3.11340234,24.8872832 3.48883594,27.4081504 4.02525195,28.1054336 Z" id="Shape"></path>
                </g>
                <path d="M37.0417441,20.3281504 C38.4898945,18.9872832 37.9535938,17.4317344 37.9535938,15.7690176 C37.9535938,10.5126016 31.8390273,6.27543359 21.3800098,6.27543359 C10.9209922,6.27543359 4.80642578,10.5127168 4.80642578,15.7690176 C4.80642578,17.4317344 4.27000977,18.987168 5.71827539,20.3281504 C8.93642578,17.3781504 14.1928418,16.7881504 21.3264258,16.7881504 C28.4600098,16.7881504 33.8771777,17.3781504 37.0417441,20.3281504 Z" id="Shape" fill="#E6E6E6"></path>
                <path d="M37.0417441,21.9372832 C36.6663105,21.9372832 36.2371777,21.776416 35.9690273,21.5081504 C33.1798945,18.933584 28.1381602,18.3972832 21.4335938,18.3972832 C14.7290273,18.3972832 9.68717773,18.9336992 6.89816016,21.5081504 C6.30816016,22.0981504 5.34272656,22.0981504 4.69902734,21.5081504 C2.98261133,19.8990176 3.08989453,18.0754336 3.19717773,16.7345664 C3.19717773,16.4127168 3.25076172,16.0909824 3.25076172,15.8227168 C3.25076172,10.2981504 8.88261133,4.72 21.4334785,4.72 C33.9843457,4.72 39.6161953,10.2981504 39.6161953,15.8227168 C39.6161953,16.1445664 39.6161953,16.4127168 39.6697793,16.7345664 C39.7770625,18.0754336 39.8843457,19.9527168 38.1679297,21.5081504 C37.8463105,21.83 37.470877,21.9372832 37.0417441,21.9372832 Z M21.4335937,15.1791328 C27.8163105,15.1791328 32.9117441,15.6618496 36.4517441,17.8609824 C36.4517441,17.592832 36.4517441,17.3245664 36.3981602,16.9491328 C36.3981602,16.5736992 36.3445762,16.1982656 36.3445762,15.7691328 C36.3445762,11.156416 30.1764258,7.88456641 21.3800098,7.88456641 C12.5835938,7.88456641 6.41544336,11.1027168 6.41544336,15.7691328 C6.41544336,16.1982656 6.36185938,16.5736992 6.36185938,16.9491328 C6.41544336,17.3245664 6.41544336,17.646416 6.41544336,17.9145664 C9.95544336,15.6618496 15.050877,15.1791328 21.4335937,15.1791328 Z" id="Shape" fill="#454545"></path>
            </g>
        </g>
    </g>
</svg>