<svg xmlns="http://www.w3.org/2000/svg" width="57" height="59" viewBox="0 0 57 59">
    <g fill="none" fill-rule="nonzero">
        <path fill="#F0D6BF" d="M18.394 27.368c.046 2.802 2.288 5.043 5.09 4.996l5.322-.047c.98 0 1.914.14 2.802.467v-2.568c.326-3.455 1.54-6.77 3.501-9.665L48.977 1.407H28.806l-7.05 16.39a24.78 24.78 0 0 1-4.063 6.396c.467.98.7 2.008.748 3.128l-.047.047z"/>
        <path fill="#101215" d="M28.853 29.563l-5.417.046c-1.214 0-2.24-1.027-2.287-2.24v-.094a9.797 9.797 0 0 0-1.681-5.463c-.28.373-.56.794-.84 1.167l-.14.14c-.281.374-.608.747-.888 1.074.467.98.7 2.008.747 3.129v.093c.047 2.802 2.288 5.043 5.09 4.996l5.322-.047c.98 0 1.915.14 2.802.467v-2.568c0-.093.047-.233.047-.327a10.875 10.875 0 0 0-2.755-.373z" opacity=".2"/>
        <path fill="#F7F7FB" d="M9.195 37.08L5.227 41.05l31.797 14.848c1.82 1.074 3.875 1.587 5.977 1.587l8.497-.046c1.868-.14 3.69-1.308 3.69-4.67"/>
        <path fill="#ADA2B5" d="M28.806 32.364l3.689-2.568 4.716 7.984"/>
        <path fill="#454B54" d="M35.016 35.54c-.467 0-.934-.234-1.214-.701l-1.728-3.035L29.6 33.53c-.654.42-1.494.28-1.961-.373a1.423 1.423 0 0 1 .373-1.961l3.736-2.568c.327-.234.7-.28 1.12-.234.374.094.7.327.888.654l2.52 4.342c.375.654.141 1.541-.513 1.915-.233.186-.467.233-.747.233z"/>
        <path fill="#F0CFCA" d="M16.806 22.792l-7.003 8.545a5.179 5.179 0 0 0-.608 5.743L40.76 55.29l9.525.28c2.242 0 4.716-.794 4.39-2.988v-.047c-.094-.607-.374-1.214-.841-1.634l-8.918-2.615-.888-.84-8.03-11.347c-1.635-2.334-4.343-3.735-7.238-3.735l-5.323.047a5.082 5.082 0 0 1-5.09-4.996v-.094a7.37 7.37 0 0 0-1.54-4.529z"/>
        <g fill="#FFF">
            <path d="M18.253 43.198a.934.934 0 0 1-.241-1.836l17.369-4.67a.934.934 0 0 1 .485 1.804l-17.37 4.67a.953.953 0 0 1-.243.032zM23.11 46a.935.935 0 0 1-.244-1.836l14.708-3.97a.933.933 0 1 1 .487 1.804l-14.707 3.968a.963.963 0 0 1-.245.033z"/>
        </g>
        <g fill="#454B54">
            <path d="M54.72 53.982c-.7 0-1.26-.513-1.4-1.167v-.047c-.047-.233-.094-.42-.234-.607l-8.498-2.474c-.187-.047-.374-.187-.56-.327l-.888-.84c-.093-.047-.14-.14-.186-.234l-8.078-11.393c-.467-.654-.28-1.494.327-1.961.653-.467 1.494-.28 1.96.327l7.938 11.253.56.513 8.592 2.522c.234.046.42.186.607.373a4.31 4.31 0 0 1 1.214 2.428v.047c.14.747-.42 1.494-1.167 1.587h-.187zM14.799 41.61c-.234 0-.467-.048-.7-.188l-5.604-3.128a1.61 1.61 0 0 1-.56-.56c-1.214-2.382-.934-5.23.747-7.284l7.004-8.545a1.42 1.42 0 0 1 1.12-.514c.42 0 .84.187 1.074.514a8.627 8.627 0 0 1 1.868 5.37v.093c0 .794-.607 1.4-1.4 1.4-.795 0-1.402-.606-1.402-1.4v-.093c0-.7-.14-1.401-.373-2.055l-5.697 7.004a3.878 3.878 0 0 0-.607 3.875l5.183 2.895c.654.374.934 1.214.56 1.915-.28.42-.747.7-1.213.7z"/>
            <path d="M44.028 48.893a1.4 1.4 0 0 1-1.168-.607l-7.984-11.393c-1.4-1.96-3.642-3.128-6.023-3.128h-.047l-5.323.046h-.047a6.487 6.487 0 0 1-6.49-6.396v-.094c0-.794.607-1.4 1.4-1.4.748 0 1.402.607 1.402 1.4v.094c.046 2.007 1.68 3.642 3.688 3.642l5.323-.047h.047a10.14 10.14 0 0 1 8.311 4.296l8.031 11.392c.467.654.28 1.495-.327 1.961-.233.14-.513.234-.793.234z"/>
            <path d="M43 58.885c-2.334 0-4.575-.607-6.63-1.774L4.62 42.31c-.42-.187-.7-.56-.794-1.028a1.297 1.297 0 0 1 .373-1.214L8.17 36.1c.56-.56 1.447-.56 1.96 0 .56.56.56 1.448 0 1.962l-2.521 2.52L37.584 54.59c.047 0 .093.047.093.047 1.588.934 3.409 1.4 5.277 1.4l8.404-.046c1.588-.14 2.335-1.214 2.335-3.268 0-.794.607-1.401 1.4-1.401.794 0 1.401.607 1.401 1.4 0 5.277-3.829 5.977-4.996 6.07h-.093L43 58.886zM33.008 37.08c-.42 0-.84-.187-1.12-.56-.467-.607-.327-1.494.28-1.961l2.848-2.148c.607-.467 1.494-.327 1.961.28.467.607.327 1.494-.28 1.961L33.849 36.8c-.28.187-.56.28-.84.28zM36.51 41.142a1.46 1.46 0 0 1-1.167-.607c-.42-.654-.234-1.494.42-1.96l2.615-1.728c.654-.42 1.494-.234 1.96.42.421.654.234 1.494-.42 1.96l-2.614 1.728a1.65 1.65 0 0 1-.794.187zM39.545 45.485a1.46 1.46 0 0 1-1.167-.608c-.42-.653-.234-1.494.42-1.96l2.615-1.728c.654-.42 1.494-.234 1.96.42.421.654.234 1.494-.42 1.961l-2.614 1.728c-.233.093-.514.187-.794.187zM17.647 25.547c-.327 0-.654-.14-.934-.373a1.397 1.397 0 0 1-.094-1.961c1.588-1.775 2.895-3.783 3.83-6.024L27.498.847c.327-.7 1.12-1.027 1.82-.747.701.327 1.028 1.12.748 1.821l-7.05 16.342a24.646 24.646 0 0 1-4.343 6.77c-.28.374-.654.514-1.027.514zM31.56 31.664h-.14c-.746-.094-1.353-.747-1.26-1.541.327-3.689 1.634-7.237 3.736-10.319L47.81.614a1.458 1.458 0 0 1 1.96-.327c.608.467.748 1.307.328 1.96L36.23 21.393c-1.82 2.614-2.942 5.743-3.222 8.964-.093.747-.7 1.308-1.447 1.308z"/>
            <path d="M42.067 58.885H6.16c-.793 0-1.4-.607-1.4-1.4 0-.794.607-1.401 1.4-1.401h35.907c.793 0 1.4.607 1.4 1.4 0 .794-.607 1.401-1.4 1.401zM1.491 52.815c-.793 0-1.4-.607-1.4-1.4 0-.794.607-1.401 1.4-1.401h10.693c.794 0 1.4.607 1.4 1.4 0 .794-.607 1.401-1.4 1.401H1.49zM1.491 47.679c-.793 0-1.4-.607-1.4-1.4 0-.794.607-1.401 1.4-1.401.794 0 1.401.607 1.401 1.4 0 .794-.607 1.401-1.4 1.401z"/>
        </g>
    </g>
</svg>
