<?xml version="1.0" encoding="UTF-8"?>
<svg width="34px" height="15px" viewBox="0 0 34 15" version="1.1" xmlns="http://www.w3.org/2000/svg" xmlns:xlink="http://www.w3.org/1999/xlink">
    <!-- Generator: Sketch 50.2 (55047) - http://www.bohemiancoding.com/sketch -->
    <title>illustrations/shoe</title>
    <desc>Created with Sketch.</desc>
    <defs>
        <rect id="path-1" x="54" y="0" width="1060" height="1008" rx="2"></rect>
        <filter x="-2.8%" y="-3.0%" width="105.7%" height="106.0%" filterUnits="objectBoundingBox" id="filter-2">
            <feOffset dx="0" dy="0" in="SourceAlpha" result="shadowOffsetOuter1"></feOffset>
            <feGaussianBlur stdDeviation="10" in="shadowOffsetOuter1" result="shadowBlurOuter1"></feGaussianBlur>
            <feColorMatrix values="0 0 0 0 0.133333333   0 0 0 0 0.133333333   0 0 0 0 0.133333333  0 0 0 0.1 0" type="matrix" in="shadowBlurOuter1"></feColorMatrix>
        </filter>
    </defs>
    <g id="DESKTOP" stroke="none" stroke-width="1" fill="none" fill-rule="evenodd">
        <g id="Vergleich-2" transform="translate(-1187.000000, -207.000000)">
            <rect id="Rectangle-4" fill="#454545" x="110" y="0" width="1330" height="240"></rect>
            <g id="boxes" transform="translate(196.000000, 174.000000)">
                <g id="compare">
                    <g id="bg">
                        <use fill="black" fill-opacity="1" filter="url(#filter-2)" xlink:href="#path-1"></use>
                        <use fill="#FFFFFF" fill-rule="evenodd" xlink:href="#path-1"></use>
                    </g>
                    <g id="title" transform="translate(54.000000, 6.000000)">
                        <g id="barcelona" transform="translate(720.000000, 0.000000)">
                            <g id="text" transform="translate(89.000000, 24.000000)">
                                <g id="illustrations/shoe--blue" transform="translate(128.000000, 3.000000)">
                                    <g id="preparations">
                                        <g id="Ettlingen" fill-rule="nonzero">
                                            <g id="icon">
                                                <path d="M2.21709484,11.3503763 L0.971428571,14.0301935 L30.2166257,14.0301935 C32.1983885,14.086637 33.1326217,12.9864488 33.0193913,10.6451613" id="Shape" fill="#F7F7FB"></path>
                                                <polyline id="Shape" fill="#ADA2B5" points="11.6571429 3.30121903 12.9099652 0.967741935 17.4857143 3.87096774"></polyline>
                                                <path d="M11.5643122,4.35483871 C11.41682,4.35483871 11.2693277,4.32499021 11.1513477,4.23551444 C10.7088708,3.9968659 10.5613786,3.45980207 10.7973386,3.01228374 L12.1542813,0.476346589 C12.2722614,0.26747681 12.4787781,0.0885252732 12.7147382,0.0288282678 C12.9506982,-0.0308687375 13.2162395,-0.00102023484 13.4226873,0.148152539 L16.1070605,1.90837732 C16.5200251,2.17687437 16.6380051,2.74371696 16.3725328,3.13160802 C16.1070605,3.54927784 15.5466036,3.66860211 15.1630824,3.40010506 L13.3047073,2.17687437 L12.3902414,3.87747189 C12.1837246,4.17581743 11.8887401,4.35483871 11.5643122,4.35483871 Z" id="Shape" fill="#454B54"></path>
                                                <path d="M2.47288979,1.4516129 L1.04922445,8.15807809 C0.764491384,9.43548387 1.27698428,10.7709813 2.33052326,11.5258336 L31.1455363,13.0645161 C31.2594163,13.0645161 31.3732962,13.0645161 31.458756,13.0645161 C32.8254481,12.890309 33.4803741,11.2935348 32.6830816,10.1612903 L32.654595,10.1322445 C32.4268351,9.81287608 32.1136155,9.58064516 31.7434225,9.4645297 L24.1126029,7.46131747 L16.5956633,3.42584717 C15.058118,2.58392526 13.2073531,2.58392526 11.6413212,3.39680134 L8.7655039,4.9065059 C7.25644526,5.69040402 5.40568032,5.10975886 4.6083878,3.57100846 L4.57990118,3.5129168 C4.12431496,2.61290323 3.38399567,1.88709677 2.47288979,1.4516129 Z" id="Shape" fill="#43B3E6"></path>
                                                <g id="Group" transform="translate(7.771429, 3.870968)" fill="#FFFFFF">
                                                    <path d="M0.582333226,8.95688212 C0.429349599,8.95688212 0.276955377,8.89239208 0.16627801,8.76598079 C-0.0410619583,8.52884132 -0.0228558587,8.16299217 0.206881541,7.94930977 L8.52778941,0.199013283 C8.75726485,-0.0150071157 9.11195634,0.00412357685 9.31923082,0.240925047 C9.52657079,0.478064516 9.50836469,0.843913662 9.27862729,1.05786646 L0.957719422,8.80762215 C0.850447512,8.90766959 0.7161939,8.95688212 0.582333226,8.95688212 Z" id="Shape"></path>
                                                    <path d="M3.94430562,9.13034274 C3.79106003,9.13034274 3.63866581,9.0658527 3.52798844,8.93917102 C3.32097592,8.70203155 3.33918202,8.3361824 3.56918138,8.1225 L10.6573136,1.52863022 C10.8867891,1.31460982 11.2414806,1.33374051 11.4484931,1.57115038 C11.6558331,1.80828985 11.6372995,2.17413899 11.4075621,2.38809179 L4.31942986,8.98162358 C4.2124199,9.08119782 4.07816629,9.13034274 3.94430562,9.13034274 Z" id="Shape"></path>
                                                </g>
                                                <g id="Group" transform="translate(0.000000, 0.483871)" fill="#454B54">
                                                    <path d="M2.23816764,11.7468414 C2.06803509,11.7468414 1.89790253,11.6893145 1.75613645,11.574328 C0.451875244,10.6256048 -0.200222222,8.95806452 0.16834308,7.34805108 L1.5860039,0.706787634 C1.64273684,0.448051075 1.81280312,0.246774194 2.03966862,0.131787634 C2.26646784,0.0168010753 2.55,0.0168010753 2.7768655,0.131787634 C3.85426121,0.649260753 4.73322417,1.48306452 5.27192203,2.54677419 L5.3002885,2.60430108 C5.86735283,3.69677419 7.19998051,4.12802419 8.30574269,3.55302419 L11.1694308,2.05799731 C12.9556569,1.10927419 15.1105146,1.13797043 16.896807,2.08676075 L24.3253762,6.05423387 L32.7746082,8.69926075 C33.2282729,8.84301075 33.4834386,9.33178763 33.3416725,9.79173387 C33.1999064,10.2517473 32.7178752,10.5104839 32.2642768,10.3667339 L23.7299454,7.69301075 C23.6732125,7.66424731 23.6449123,7.66424731 23.5881793,7.63548387 L16.074577,3.61048387 C14.7703158,2.92049731 13.2392554,2.92049731 11.9349942,3.58172043 L9.07130604,5.07674731 C7.17161404,6.08299731 4.78995712,5.30672043 3.79759454,3.38051075 L3.76922807,3.32298387 C3.57072904,2.92049731 3.31556335,2.57547043 2.97536452,2.28797043 L1.8128694,7.72170699 C1.61437037,8.64173387 1.98300195,9.61922043 2.74849903,10.165457 C3.11706433,10.452957 3.23053021,10.9704301 2.94699805,11.3729839 C2.7768655,11.6318548 2.52169981,11.7468414 2.23816764,11.7468414 Z" id="Shape"></path>
                                                    <path d="M23.9567446,7.7218414 C23.8149786,7.7218414 23.6732125,7.69307796 23.5598129,7.63561828 L16.074577,3.61061828 C14.7703158,2.92063172 13.2392554,2.92063172 11.9349942,3.58185484 L9.07130604,5.07688172 C7.17161404,6.08313172 4.78995712,5.30685484 3.79759454,3.38064516 L3.76922807,3.32311828 C3.54242885,2.89186828 3.71249513,2.37439516 4.13779337,2.17311828 C4.56309162,1.94314516 5.073423,2.1155914 5.27192203,2.5468414 L5.3002885,2.60436828 C5.86735283,3.6968414 7.19998051,4.1280914 8.30574269,3.5530914 L11.1694308,2.05806452 C12.9556569,1.1093414 15.1105146,1.13803763 16.896807,2.08682796 L24.3820429,6.08306452 C24.8073411,6.31303763 24.9491072,6.83057796 24.7506082,7.26182796 C24.5805419,7.54932796 24.2686433,7.7218414 23.9567446,7.7218414 Z" id="Shape"></path>
                                                    <path d="M30.4779844,14.4780914 C30.4212515,14.4780914 30.3645848,14.4780914 30.3078519,14.4780914 L1.01900585,14.4780914 C0.735473684,14.4780914 0.45194152,14.3343414 0.310175439,14.0756048 C0.140042885,13.8168683 0.140042885,13.5293683 0.253442495,13.2418683 L1.47260429,10.5106183 C1.67110331,10.0793683 2.1814347,9.8780914 2.60673294,10.0793683 C3.03203119,10.2806452 3.23053021,10.7981183 3.03203119,11.2293683 L2.35156725,12.7530914 L30.3362183,12.7530914 C31.0450487,12.7818548 31.4987135,12.6381048 31.7822456,12.3218414 C32.1508109,11.9481183 32.3209435,11.2006048 32.292577,10.1655914 C32.2642105,9.67681452 32.6328421,9.3030914 33.114807,9.27432796 C33.5968382,9.24556452 33.9654035,9.61935484 33.99377,10.1080645 C34.0505029,11.6317876 33.7102378,12.7817876 33.0014074,13.5293011 C32.3776764,14.161828 31.5270799,14.4780914 30.4779844,14.4780914 Z" id="Shape"></path>
                                                    <path d="M14.7419493,4.32930108 C14.6285497,4.32930108 14.4867836,4.30053763 14.373384,4.24307796 C13.9480858,4.04180108 13.7779532,3.52432796 13.9764522,3.09307796 L14.9404483,1.13810484 C15.1389474,0.706854839 15.6492788,0.534341398 16.074577,0.73561828 C16.4998752,0.936895161 16.6700078,1.45436828 16.4715088,1.88561828 L15.5075127,3.8405914 C15.3657466,4.15678763 15.053848,4.32930108 14.7419493,4.32930108 Z" id="Shape"></path>
                                                    <path d="M17.77577,5.59428763 C17.6340039,5.59428763 17.4922378,5.56552419 17.3504717,5.47930108 C16.95354,5.24932796 16.8117739,4.73178763 17.0385731,4.30053763 L17.9742027,2.63306452 C18.2010019,2.23057796 18.7113996,2.08682796 19.1366979,2.31680108 C19.5336296,2.54677419 19.6753957,3.06431452 19.4485965,3.49556452 L18.5129669,5.16303763 C18.3428343,5.4218414 18.0593021,5.59428763 17.77577,5.59428763 Z" id="Shape"></path>
                                                    <path d="M20.6110916,7.08931452 C20.4693255,7.08931452 20.3275595,7.06055108 20.1857934,6.97432796 C19.7888616,6.74435484 19.6470955,6.22681452 19.8738947,5.79556452 L20.8095244,4.1280914 C21.0363236,3.72560484 21.5467212,3.58185484 21.9720195,3.81182796 C22.3689513,4.04180108 22.5107173,4.5593414 22.2839181,4.9905914 L21.3482885,6.65806452 C21.1781559,6.94556452 20.8946238,7.08931452 20.6110916,7.08931452 Z" id="Shape"></path>
                                                    <path d="M5.64055361,11.9193548 C5.61218713,11.9193548 5.61218713,11.9193548 5.58382066,11.9193548 L2.1814347,11.7468414 C1.69940351,11.718078 1.35920468,11.3155914 1.38757115,10.855578 C1.41593762,10.3955645 1.8128694,10.0218414 2.26653411,10.0506048 L5.66892008,10.2231183 C6.15095127,10.2518817 6.4911501,10.6543683 6.46278363,11.1143817 C6.4911501,11.574328 6.09421832,11.9193548 5.64055361,11.9193548 Z" id="Shape"></path>
                                                </g>
                                            </g>
                                        </g>
                                    </g>
                                </g>
                            </g>
                        </g>
                    </g>
                </g>
            </g>
        </g>
    </g>
</svg>