<svg xmlns="http://www.w3.org/2000/svg" width="54" height="59" viewBox="0 0 54 59">
    <g fill="none" fill-rule="nonzero">
        <g fill="#454B54">
            <path d="M44.201 16.402c-.472 0-.885-.177-1.239-.531-.708-.708-.708-1.829 0-2.478l2.773-2.832c.708-.708 1.83-.708 2.478 0 .708.708.708 1.829 0 2.478l-2.773 2.832c-.354.354-.767.531-1.239.531zM9.037 16.402c-.472 0-.885-.177-1.239-.531l-2.773-2.832c-.708-.708-.708-1.829 0-2.478.708-.708 1.83-.708 2.478 0l2.773 2.832c.708.708.708 1.829 0 2.478-.354.354-.767.531-1.239.531zM26.62 9.086a1.738 1.738 0 0 1-1.77-1.77V1.77c0-1.003.766-1.77 1.77-1.77 1.002 0 1.77.767 1.77 1.77v5.546c0 1.003-.768 1.77-1.77 1.77z"/>
        </g>
        <ellipse cx="26.619" cy="32.273" fill="#EAE6EC" rx="24.839" ry="24.957"/>
        <ellipse cx="26.619" cy="32.273" fill="#F7F7FB" rx="19.352" ry="19.411"/>
        <path fill="#454B54" d="M7.74 29.795c-.119 0-.237 0-.414-.059a1.846 1.846 0 0 1-1.357-2.124c1.77-7.906 7.965-14.16 15.812-15.989.944-.236 1.888.354 2.124 1.298.236.944-.354 1.888-1.298 2.124-6.49 1.534-11.623 6.785-13.098 13.334-.177.826-.944 1.416-1.77 1.416z"/>
        <path fill="#98C9B9" d="M45.971 32.273c0 10.738-8.673 19.411-19.352 19.411S7.267 43.011 7.267 32.273H26.62V12.862c10.68 0 19.352 8.673 19.352 19.411z"/>
        <g fill="#454B54">
            <path d="M26.62 53.454c-11.624 0-21.123-9.499-21.123-21.181 0-1.003.767-1.77 1.77-1.77h5.546c1.003 0 1.77.767 1.77 1.77 0 1.003-.767 1.77-1.77 1.77H9.155c.885 8.909 8.378 15.871 17.464 15.871 9.676 0 17.582-7.906 17.582-17.641S36.295 14.632 26.62 14.632a1.738 1.738 0 0 1-1.77-1.77c0-1.003.767-1.77 1.77-1.77 11.623 0 21.122 9.499 21.122 21.181S38.242 53.454 26.62 53.454z"/>
            <path d="M26.62 53.454c-11.624 0-21.123-9.499-21.123-21.181 0-1.003.767-1.77 1.77-1.77 1.003 0 1.77.767 1.77 1.77 0 9.735 7.906 17.641 17.582 17.641 3.127 0 6.195-.826 8.91-2.419.825-.472 1.946-.236 2.418.59.472.826.236 1.947-.59 2.419a20.86 20.86 0 0 1-10.738 2.95z"/>
        </g>
        <circle cx="26.619" cy="32.273" r="2.773" fill="#EAE6EC"/>
        <g fill="#454B54">
            <path d="M26.62 59C11.927 59 .01 47.023.01 32.273S11.928 5.546 26.62 5.546c14.69 0 26.608 11.977 26.608 26.727S41.31 59 26.62 59zm0-49.914c-12.745 0-23.07 10.384-23.07 23.187S13.875 55.46 26.62 55.46c12.743 0 23.068-10.384 23.068-23.187S39.363 9.086 26.62 9.086z"/>
            <path d="M26.62 31.27a1.738 1.738 0 0 1-1.77-1.77V18.408c0-1.003.766-1.77 1.77-1.77 1.002 0 1.77.767 1.77 1.77V29.5c0 1.003-.768 1.77-1.77 1.77z"/>
            <path d="M26.62 36.816c-2.479 0-4.544-2.065-4.544-4.543a4.545 4.545 0 0 1 4.543-4.543 4.545 4.545 0 0 1 4.543 4.543c0 2.478-2.065 4.543-4.543 4.543zm0-5.546c-.532 0-1.004.472-1.004 1.003 0 .531.472 1.003 1.003 1.003.531 0 1.003-.472 1.003-1.003 0-.531-.472-1.003-1.003-1.003zM29.923 3.54h-6.608a1.738 1.738 0 0 1-1.77-1.77c0-1.003.767-1.77 1.77-1.77h6.608c1.003 0 1.77.767 1.77 1.77 0 1.003-.767 1.77-1.77 1.77z"/>
        </g>
    </g>
</svg>
