<?xml version="1.0" encoding="UTF-8"?>
<svg width="54px" height="29px" viewBox="0 0 54 29" version="1.1" xmlns="http://www.w3.org/2000/svg" xmlns:xlink="http://www.w3.org/1999/xlink">
    <!-- Generator: Sketch 50 (54983) - http://www.bohemiancoding.com/sketch -->
    <title>tea</title>
    <desc>Created with Sketch.</desc>
    <defs></defs>
    <g id="DESKTOP" stroke="none" stroke-width="1" fill="none" fill-rule="evenodd">
        <g id="Comparison" transform="translate(-48.000000, -292.000000)" fill-rule="nonzero">
            <g id="tea" transform="translate(48.000000, 262.000000)">
                <path d="M42.0537021,40.107772 C42.0537021,46.8331606 38.7521477,51.6632124 33.6775363,54.4145078 L32.8827176,57.1046632 L11.1780544,57.1046632 L10.3832358,54.4145078 C5.30862435,51.6632124 2.00706995,46.8331606 2.00706995,40.1689119 L2.00706995,32.3430052 L42.0537021,32.3430052 L42.0537021,40.107772" id="SVGCleanerId_0" fill="#FFFFFF"></path>
                <path d="M42.0537021,40.107772 C42.0537021,46.8331606 38.7521477,51.6632124 33.6775363,54.4145078 L32.8827176,57.1046632 L11.1780544,57.1046632 L10.3832358,54.4145078 C5.30862435,51.6632124 2.00706995,46.8331606 2.00706995,40.1689119 L2.00706995,32.3430052 L42.0537021,32.3430052 L42.0537021,40.107772" id="SVGCleanerId_0_1_" fill="#FFFFFF"></path>
                <path d="M31.5987798,39.4963731 C28.4806451,39.4963731 25.4236503,40.0466321 22.4889352,41.2082902 C19.3096606,42.492228 15.9469663,43.1036269 12.4619922,43.1036269 C10.811215,43.1036269 9.16043782,42.9813472 7.57080052,42.6756477 L3.04644819,41.880829 L3.22986788,46.4663212 C3.22986788,46.5274611 3.22986788,46.588601 3.22986788,46.6497409 C4.63608549,50.0124352 7.14282124,52.6414508 10.3832358,54.3533679 L11.1780544,57.0435233 L32.8827176,57.0435233 L33.6775363,54.3533679 C36.9179508,52.6414508 39.3635466,50.0735751 40.8309041,46.7108808 C40.8309041,46.3440415 40.892044,45.9772021 40.892044,45.5492228 L40.892044,41.0248705 L37.7127694,40.2300518 C35.634013,39.8020725 33.6163964,39.4963731 31.5987798,39.4963731 Z" id="Shape" fill="#AEAEAE"></path>
                <g id="Group" opacity="0.1" transform="translate(23.691710, 32.251295)" fill="#000000">
                    <path d="M9.19100777,0.0917098446 L9.19100777,7.85647668 C9.19100777,14.5818653 5.88945337,19.4119171 0.814841969,22.1632124 L0.0200233161,24.8533679 L9.19100777,24.8533679 L9.98582642,22.1632124 C15.0604378,19.4119171 18.3619922,14.5818653 18.3619922,7.85647668 L18.3619922,0.0917098446 L9.19100777,0.0917098446 Z" id="Shape"></path>
                </g>
                <path d="M32.8827176,58.8777202 L11.1780544,58.8777202 C10.3832358,58.8777202 9.64955699,58.3274611 9.40499741,57.5937824 L8.79359845,55.6373057 C3.22986788,52.3357513 0.111733161,46.8331606 0.111733161,40.1689119 L0.111733161,32.3430052 C0.111733161,31.3036269 0.906551813,30.5088083 1.94593005,30.5088083 L41.9925622,30.5088083 C43.0319404,30.5088083 43.8267591,31.3036269 43.8267591,32.3430052 L43.8267591,40.107772 C43.8267591,46.8331606 40.7697642,52.3357513 35.1448938,55.6373057 L34.5946347,57.5937824 C34.411215,58.3274611 33.6775363,58.8777202 32.8827176,58.8777202 Z M12.584272,55.2093264 L31.5376399,55.2093264 L31.9044793,53.8642487 C32.0267591,53.3751295 32.3324585,53.0082902 32.8215777,52.7637306 C36.184272,50.9295337 40.2806451,47.2611399 40.2806451,40.107772 L40.2806451,34.1772021 L3.84126684,34.1772021 L3.84126684,40.107772 C3.84126684,47.2611399 7.8765,50.9295337 11.2391943,52.7637306 C11.6671736,53.0082902 11.9728731,53.3751295 12.0951528,53.8642487 L12.584272,55.2093264 Z" id="Shape" fill="#454B54"></path>
                <path d="M37.8350492,53.0694301 C37.1013705,53.0694301 36.4288316,52.6414508 36.1231321,51.907772 C35.7562927,50.9906736 36.184272,49.8901554 37.1625104,49.5233161 C40.341785,48.2393782 44.7438575,46.7720207 47.8008523,45.7937824 C49.0236503,45.426943 49.8796088,44.3875648 50.1241684,43.1036269 C50.3075881,42.1253886 50.0018886,41.0860104 49.3904896,40.3523316 C48.7790907,39.6186528 47.8008523,39.1295337 46.822614,39.1295337 L42.114842,39.1295337 C41.0754637,39.1295337 40.2806451,38.334715 40.2806451,37.2953368 C40.2806451,36.2559585 41.0754637,35.4611399 42.114842,35.4611399 L46.822614,35.4611399 C48.9013705,35.4611399 50.8578472,36.3782383 52.2029249,37.9678756 C53.5480026,39.557513 54.0982617,41.6362694 53.7925622,43.7150259 C53.3645829,46.3440415 51.530386,48.4227979 49.0236503,49.2787565 C45.9666554,50.2569948 41.6868627,51.6632124 38.6298679,52.9471503 C38.3241684,53.0082902 38.0796088,53.0694301 37.8350492,53.0694301 Z" id="Shape" fill="#454B54"></path>
            </g>
        </g>
    </g>
</svg>