<?xml version="1.0" encoding="UTF-8"?>
<svg width="56px" height="56px" viewBox="0 0 56 56" version="1.1" xmlns="http://www.w3.org/2000/svg" xmlns:xlink="http://www.w3.org/1999/xlink">
    <!-- Generator: Sketch 50.2 (55047) - http://www.bohemiancoding.com/sketch -->
    <title>close--gray</title>
    <desc>Created with Sketch.</desc>
    <defs></defs>
    <g id="Page-1" stroke="none" stroke-width="1" fill="none" fill-rule="evenodd">
        <g id="close--gray" transform="translate(-1.000000, -1.000000)" fill="#4F5B64" fill-rule="nonzero">
            <path d="M2.846,56.692 C2.373,56.692 1.901,56.511 1.541,56.151 C0.82,55.43 0.82,54.261 1.541,53.541 L53.54,1.541 C54.261,0.819 55.43,0.819 56.15,1.541 C56.871,2.262 56.871,3.431 56.15,4.151 L4.151,56.151 C3.791,56.512 3.318,56.692 2.846,56.692 Z" id="Shape"></path>
            <path d="M28.845,30.692 C28.372,30.692 27.9,30.511 27.54,30.151 L1.54,4.151 C0.819,3.43 0.819,2.261 1.54,1.541 C2.261,0.819 3.43,0.819 4.15,1.541 L30.15,27.541 C30.872,28.262 30.872,29.431 30.15,30.151 C29.79,30.512 29.318,30.692 28.845,30.692 Z" id="Shape"></path>
            <path d="M54.844,56.692 C54.371,56.692 53.9,56.511 53.538,56.151 L31.824,34.436 C31.103,33.715 31.103,32.545 31.825,31.825 C32.546,31.104 33.714,31.104 34.435,31.825 L56.149,53.542 C56.87,54.263 56.87,55.432 56.149,56.152 C55.789,56.512 55.316,56.692 54.844,56.692 Z" id="Shape"></path>
        </g>
    </g>
</svg>