<?xml version="1.0" encoding="UTF-8"?>
<svg width="16px" height="16px" viewBox="0 0 16 16" version="1.1" xmlns="http://www.w3.org/2000/svg" xmlns:xlink="http://www.w3.org/1999/xlink">
    <!-- Generator: Sketch 50.2 (55047) - http://www.bohemiancoding.com/sketch -->
    <title>icons/heart--gray</title>
    <desc>Created with Sketch.</desc>
    <defs></defs>
    <g id="icons/heart--gray" stroke="none" stroke-width="1" fill="none" fill-rule="evenodd">
        <g id="39_cardio" transform="translate(0.000000, 1.000000)" fill="#80909D" fill-rule="nonzero">
            <path d="M9.03613793,12.7103448 C8.85793103,12.7103448 8.68551724,12.6168276 8.592,12.4510345 C8.45406897,12.2057931 8.54041379,11.8951724 8.78565517,11.7572414 C10.582069,10.7451034 12.0237241,9.44 13.1933793,7.76689655 C13.3542069,7.53627586 13.6717241,7.47972414 13.9023448,7.64137931 C14.1329655,7.80248276 14.1892414,8.11972414 14.0278621,8.35034483 C12.7864828,10.1263448 11.1911724,11.5710345 9.2857931,12.6444138 C9.20662069,12.6891034 9.12082759,12.7103448 9.03613793,12.7103448 Z" id="Shape"></path>
            <path d="M14.8493793,5.98455172 C14.8013793,5.98455172 14.7528276,5.97793103 14.7048276,5.96358621 C14.4347586,5.88358621 14.2811034,5.60055172 14.3608276,5.33075862 C14.6129655,4.47889655 14.3542069,3.3542069 13.7586207,2.71448276 C13.1362759,2.04413793 12.4504828,1.71862069 11.7172414,1.73544828 C10.7266207,1.76358621 9.61737931,2.43282759 8.67365517,3.57213793 C8.49406897,3.78896552 8.17324138,3.81903448 7.95641379,3.63944828 C7.73958621,3.45986207 7.70951724,3.13903448 7.88910345,2.9222069 C9.01986207,1.55724138 10.4046897,0.75337931 11.6882759,0.717241379 C12.7288276,0.68137931 13.6744828,1.12634483 14.5045517,2.02096552 C15.3387586,2.91724138 15.6893793,4.43089655 15.3376552,5.61958621 C15.2717241,5.84137931 15.0692414,5.98455172 14.8493793,5.98455172 Z" id="Shape"></path>
            <path d="M0.696551724,5.94262069 C0.464551724,5.94262069 0.25462069,5.78289655 0.200551724,5.54675862 C-0.116965517,4.16 0.163034483,2.90758621 0.988689655,2.02041379 C1.87365517,1.06703448 3.00193103,0.631724138 4.25875862,0.769655172 C4.53848276,0.799448276 4.74041379,1.05103448 4.71034483,1.33048276 C4.68055172,1.6102069 4.43393103,1.81544828 4.14951724,1.78206897 C3.21351724,1.68303448 2.4022069,1.99475862 1.73489655,2.71393103 C1.14565517,3.34675862 0.953655172,4.27172414 1.19365517,5.31944828 C1.25655172,5.59365517 1.08496552,5.86675862 0.810758621,5.92965517 C0.772689655,5.9382069 0.734344828,5.94262069 0.696551724,5.94262069 Z" id="Shape"></path>
            <path d="M7.80248276,13.377931 C7.72634483,13.377931 7.64910345,13.3605517 7.57655172,13.3246897 C4.73489655,11.9147586 2.48358621,9.816 1.32413793,8.32193103 C1.15144828,8.09958621 1.192,7.77986207 1.41406897,7.60744828 C1.63641379,7.43448276 1.95641379,7.47531034 2.12855172,7.69737931 C3.21903448,9.10262069 5.34151724,11.0788966 8.02924138,12.4124138 C8.28110345,12.5373793 8.384,12.8430345 8.25903448,13.0948966 C8.16993103,13.273931 7.9897931,13.377931 7.80248276,13.377931 Z" id="Shape"></path>
            <path d="M8.17627586,10.3075862 C7.23255172,10.3075862 7.01737931,8.95006897 6.64303448,5.07006897 C6.53572414,3.95917241 6.38813793,2.42924138 6.20441379,1.56137931 C6.0617931,2.33324138 5.97682759,3.61517241 5.91972414,4.47889655 C5.736,7.25296552 5.62868966,8.38124138 4.81213793,8.45268966 C4.01489655,8.52137931 3.65875862,7.80606897 3.48689655,7.28634483 L0.509241379,7.28634483 C0.227862069,7.28662069 0,7.05875862 0,6.77737931 C0,6.496 0.227862069,6.26813793 0.509241379,6.26813793 L3.87089655,6.26813793 C4.10206897,6.26813793 4.30427586,6.42372414 4.36331034,6.64744828 L4.37103448,6.67696552 C4.46151724,7.02206897 4.5382069,7.21186207 4.59724138,7.31558621 C4.74924138,6.73931034 4.84,5.36744828 4.90317241,4.41131034 C5.10068966,1.432 5.23889655,0 6.2102069,0 C7.14013793,0 7.31558621,1.43531034 7.65682759,4.97213793 C7.77848276,6.23586207 7.9497931,8.00937931 8.1737931,8.87972414 C8.328,8.40965517 8.49572414,7.7142069 8.62096552,7.19531034 C9.11172414,5.16275862 9.38068966,4.18593103 10.1271724,4.18593103 C10.8449655,4.18593103 11.0212414,5.04193103 11.2256552,6.03282759 C11.2874483,6.33296552 11.3806897,6.78455172 11.4755862,7.05103448 C11.4827586,7.03944828 11.489931,7.02813793 11.496,7.01793103 C11.6593103,6.75586207 11.9627586,6.26813793 12.686069,6.26813793 L15.4052414,6.26813793 C15.6866207,6.26813793 15.9144828,6.496 15.9144828,6.77737931 C15.9144828,7.05875862 15.6866207,7.28662069 15.4052414,7.28662069 L12.686069,7.28662069 C12.5445517,7.28662069 12.5111724,7.31448276 12.3605517,7.55641379 C12.2107586,7.79724138 11.9597241,8.20055172 11.4,8.20055172 C10.6322759,8.20055172 10.4358621,7.24772414 10.2278621,6.23889655 C10.1922759,6.0662069 10.1453793,5.83917241 10.0948966,5.63310345 C9.92331034,6.14124138 9.73793103,6.90813793 9.61075862,7.43475862 C9.1302069,9.42703448 8.88744828,10.3075862 8.17627586,10.3075862 Z" id="Shape"></path>
        </g>
    </g>
</svg>