<?xml version="1.0" encoding="UTF-8"?>
<svg width="35px" height="24px" viewBox="0 0 35 24" version="1.1" xmlns="http://www.w3.org/2000/svg" xmlns:xlink="http://www.w3.org/1999/xlink">
    <!-- Generator: Sketch 50.2 (55047) - http://www.bohemiancoding.com/sketch -->
    <title>11_settings</title>
    <desc>Created with Sketch.</desc>
    <defs></defs>
    <g id="Page-1" stroke="none" stroke-width="1" fill="none" fill-rule="evenodd">
        <g id="Mobile-|-Kalender-Graph" transform="translate(-324.000000, -19.000000)" fill="#4F5B64" fill-rule="nonzero">
            <g id="nav">
                <g id="11_settings" transform="translate(324.000000, 19.000000)">
                    <path d="M33.8389088,2.93681818 L1.11855147,2.93681818 C0.501106213,2.93681818 0,2.27977273 0,1.46840909 C0,0.657045455 0.501106213,0 1.11855147,0 L33.8389088,0 C34.45696,0 34.9580662,0.657840909 34.9580662,1.46840909 C34.9580662,2.27897727 34.456354,2.93681818 33.8389088,2.93681818 Z" id="Shape"></path>
                    <path d="M33.8389088,13.4368182 L1.11855147,13.4368182 C0.501106213,13.4368182 0,12.7797727 0,11.9684091 C0,11.1570455 0.501106213,10.5 1.11855147,10.5 L33.8389088,10.5 C34.45696,10.5 34.9580662,11.1578409 34.9580662,11.9684091 C34.9574602,12.7797727 34.456354,13.4368182 33.8389088,13.4368182 Z" id="Shape"></path>
                    <path d="M33.8389088,23.9376136 L1.11855147,23.9376136 C0.501106213,23.9376136 0,23.2789773 0,22.4684091 C0,21.6578409 0.501106213,21 1.11855147,21 L33.8389088,21 C34.45696,21 34.9580662,21.6570455 34.9580662,22.4684091 C34.9580662,23.2797727 34.456354,23.9376136 33.8389088,23.9376136 Z" id="Shape"></path>
                </g>
            </g>
        </g>
    </g>
</svg>