<?xml version="1.0" encoding="UTF-8"?>
<svg width="32px" height="32px" viewBox="0 0 32 32" version="1.1" xmlns="http://www.w3.org/2000/svg" xmlns:xlink="http://www.w3.org/1999/xlink">
    <!-- Generator: Sketch 50.2 (55047) - http://www.bohemiancoding.com/sketch -->
    <title>icons/running--gray</title>
    <desc>Created with Sketch.</desc>
    <defs></defs>
    <g id="Page-1" stroke="none" stroke-width="1" fill="none" fill-rule="evenodd">
        <g id="dashboard" transform="translate(-212.000000, -304.000000)" fill="#AAB2BD">
            <g id="week" transform="translate(120.000000, 252.000000)">
                <g id="week__stats" transform="translate(0.000000, 52.000000)">
                    <g id="Group-2-Copy" transform="translate(92.000000, 0.000000)">
                        <g id="icons/restday--gray">
                            <g id="35_sleep">
                                <g id="Group" transform="translate(0.000000, 20.965517)" fill-rule="nonzero">
                                    <path d="M20.3470345,7.73075862 L11.2728276,7.73075862 C9.73462069,7.73075862 8.48386207,6.47944828 8.48386207,4.9417931 C8.48386207,3.40413793 9.73517241,2.15282759 11.2728276,2.15282759 L17.1089655,2.15282759 C18.7674483,2.15282759 19.6016552,3.19834483 19.8333793,3.81572414 C20.0308966,4.34206897 19.7644138,4.92965517 19.2375172,5.12717241 C18.7216552,5.32193103 18.1467586,5.06813793 17.9387586,4.56275862 C17.8913103,4.46896552 17.7015172,4.1897931 17.1089655,4.1897931 L11.2728276,4.1897931 C10.8584828,4.1897931 10.5208276,4.52689655 10.5208276,4.9417931 C10.5208276,5.35668966 10.857931,5.6937931 11.2728276,5.6937931 L20.3470345,5.6937931 C20.9097931,5.6937931 21.366069,6.14951724 21.366069,6.71227586 C21.366069,7.27503448 20.9092414,7.73075862 20.3470345,7.73075862 Z" id="Shape"></path>
                                    <path d="M3.88303448,7.73075862 C1.7417931,7.73075862 0,5.98951724 0,3.85048276 C0.00165517241,2.34924138 0.839724138,1.01131034 2.18868966,0.357517241 C2.69517241,0.111448276 3.30427586,0.322758621 3.54924138,0.829241379 C3.79475862,1.33572414 3.58344828,1.94482759 3.07696552,2.19034483 C2.43641379,2.50096552 2.03751724,3.13765517 2.03696552,3.85158621 C2.03696552,4.86731034 2.86455172,5.69434483 3.88248276,5.69434483 C4.8982069,5.69434483 5.72468966,4.86731034 5.72468966,3.85048276 C5.72468966,3.10786207 5.28275862,2.44082759 4.59862069,2.15172414 C4.08055172,1.93268966 3.83834483,1.33517241 4.05737931,0.817103448 C4.27641379,0.299586207 4.87337931,0.0562758621 5.392,0.275862069 C6.83144828,0.884965517 7.76165517,2.28744828 7.76165517,3.85048276 C7.7622069,5.98951724 6.02206897,7.73075862 3.88303448,7.73075862 Z" id="Shape"></path>
                                    <path d="M30.8115862,7.73075862 L22.7608276,7.73075862 C22.198069,7.73075862 21.7423448,7.27503448 21.7423448,6.71227586 C21.7423448,6.14951724 22.198069,5.6937931 22.7608276,5.6937931 L29.7931034,5.6937931 L29.7931034,3.52993103 C29.7931034,2.96717241 30.2488276,2.51144828 30.8115862,2.51144828 C31.3743448,2.51144828 31.8306207,2.96717241 31.8306207,3.52993103 L31.8306207,6.71227586 C31.830069,7.27503448 31.3737931,7.73075862 30.8115862,7.73075862 Z" id="Shape"></path>
                                </g>
                                <path d="M30.8115862,31.8295172 L1.40248276,31.8295172 C0.839724138,31.8295172 0.384,31.3737931 0.384,30.8110345 C0.384,30.2482759 0.839724138,29.7931034 1.40248276,29.7931034 L30.8115862,29.7931034 C31.3743448,29.7931034 31.8306207,30.2488276 31.8306207,30.8115862 C31.8306207,31.3743448 31.3737931,31.8295172 30.8115862,31.8295172 Z" id="Shape" fill-rule="nonzero"></path>
                                <path d="M21.6904828,15.6833103 C19.9702069,15.6833103 18.336,15.136 16.9655172,14.0993103 C16.6477241,13.8593103 16.4993103,13.4565517 16.5853793,13.0681379 C16.6703448,12.6797241 16.9743448,12.3762759 17.3633103,12.2918621 C19.44,11.8405517 20.9467586,9.96855172 20.9467586,7.8422069 C20.9467586,6.58537931 20.4457931,5.41517241 19.5354483,4.54675862 C19.1282759,4.15834483 19.1128276,3.51393103 19.5006897,3.10675862 C19.8885517,2.70013793 20.534069,2.68468966 20.9412414,3.07255172 C22.2582069,4.32882759 22.9831724,6.02317241 22.9831724,7.8422069 C22.9831724,10.1186207 21.7897931,12.1931034 19.952,13.3831724 C20.5081379,13.5575172 21.0918621,13.6474483 21.689931,13.6474483 C24.8904828,13.6474483 27.4946207,11.0433103 27.4946207,7.84275862 C27.4946207,4.6422069 24.8910345,2.03641379 21.6904828,2.03641379 C20.416,2.03641379 19.2066207,2.44137931 18.1936552,3.20772414 C17.7451034,3.54758621 17.1056552,3.45875862 16.7668966,3.00965517 C16.4275862,2.56110345 16.5158621,1.9222069 16.9649655,1.58289655 C18.3348966,0.547310345 19.9696552,0 21.6904828,0 C26.0143448,0 29.5321379,3.5177931 29.5321379,7.84165517 C29.5321379,12.1655172 26.0143448,15.6833103 21.6904828,15.6833103 Z" id="Shape" fill-rule="nonzero"></path>
                                <path d="M14.2085517,14.7056552 L9.13986207,14.7056552 C8.7382069,14.7056552 8.37406897,14.4695172 8.2102069,14.1031724 C8.04634483,13.7368276 8.11310345,13.3081379 8.38068966,13.0085517 L11.9315862,9.03668966 L9.13986207,9.03668966 C8.57710345,9.03668966 8.12137931,8.58096552 8.12137931,8.0182069 C8.12137931,7.45544828 8.57765517,6.99972414 9.13986207,6.99972414 L14.2085517,6.99972414 C14.6102069,6.99972414 14.9743448,7.23586207 15.1382069,7.6022069 C15.302069,7.96855172 15.2353103,8.39724138 14.9677241,8.69682759 L11.4168276,12.6686897 L14.2085517,12.6686897 C14.7713103,12.6686897 15.2270345,13.1244138 15.2270345,13.6871724 C15.2270345,14.249931 14.7713103,14.7056552 14.2085517,14.7056552 Z" id="Shape" fill-rule="nonzero"></path>
                                <path d="M6.03475862,19.0731034 L2.99696552,19.0731034 C2.60965517,19.0731034 2.256,18.854069 2.08441379,18.5070345 C1.91227586,18.16 1.95255172,17.7451034 2.18758621,17.4377931 L3.97793103,15.0896552 L2.99696552,15.0896552 C2.4342069,15.0896552 1.97848276,14.633931 1.97848276,14.0711724 C1.97848276,13.5084138 2.43475862,13.0526897 2.99696552,13.0526897 L6.03475862,13.0526897 C6.42206897,13.0526897 6.77572414,13.2717241 6.94731034,13.6187586 C7.11944828,13.9657931 7.07917241,14.3806897 6.84413793,14.688 L5.0537931,17.0361379 L6.0342069,17.0361379 C6.59696552,17.0361379 7.05268966,17.4918621 7.05268966,18.0546207 C7.05268966,18.6173793 6.59751724,19.0731034 6.03475862,19.0731034 Z" id="Shape" fill-rule="nonzero"></path>
                            </g>
                        </g>
                    </g>
                </g>
            </g>
        </g>
    </g>
</svg>
