<?xml version="1.0" encoding="UTF-8"?>
<svg width="29px" height="32px" viewBox="0 0 29 32" version="1.1" xmlns="http://www.w3.org/2000/svg" xmlns:xlink="http://www.w3.org/1999/xlink">
    <!-- Generator: Sketch 50.2 (55047) - http://www.bohemiancoding.com/sketch -->
    <title>icons/running--gray</title>
    <desc>Created with Sketch.</desc>
    <defs></defs>
    <g id="Page-1" stroke="none" stroke-width="1" fill="none" fill-rule="evenodd">
        <g id="dashboard" transform="translate(-122.000000, -304.000000)" fill="#EC407A">
            <g id="week" transform="translate(120.000000, 252.000000)">
                <g id="week__stats" transform="translate(0.000000, 52.000000)">
                    <g id="Group-2">
                        <g id="icons/running--gray">
                            <g id="08_running" transform="translate(2.000000, 0.000000)">
                                <path d="M15.3127356,29.4902069 C15.2669425,29.4902069 15.2205977,29.4868966 15.1737011,29.4802759 C14.6164598,29.4041379 14.2263908,28.8910345 14.3025287,28.3337931 L14.6252874,25.9729655 C14.6572874,25.7401379 14.7687356,25.5255172 14.9403218,25.3655172 C16.525977,23.8885517 18.3069425,22.1462069 19.2365977,21.1354483 C17.7651494,20.5997241 14.9094253,19.6783448 12.2986667,18.8811034 C11.7601839,18.7161379 11.4578391,18.1473103 11.6217011,17.6088276 C11.7855632,17.0703448 12.3549425,16.768 12.8934253,16.9324138 C21.2012874,19.4703448 21.4164598,19.8063448 21.6443218,20.1627586 C22.1171494,20.9015172 22.3372874,21.2446897 16.5943908,26.608 L16.3207356,28.6091034 C16.2506667,29.12 15.8142529,29.4902069 15.3127356,29.4902069 Z" id="Shape" fill-rule="nonzero"></path>
                                <path d="M12.244046,18.9622069 C11.6354943,18.9622069 11.0473563,18.7641379 10.5552184,18.3878621 C9.96377011,17.936 9.58308046,17.28 9.48487356,16.5412414 C9.38611494,15.8024828 9.58142529,15.0697931 10.0343908,14.4777931 L14.8244598,8.21075862 C15.7452874,7.00468966 17.460046,6.73986207 18.7290115,7.60717241 C19.6349425,8.2262069 20.4172874,9.48468966 21.1742529,10.7023448 C21.6211494,11.4217931 22.3483218,12.5914483 22.7477701,12.8788966 C23.4727356,12.5318621 25.4490115,10.6902069 26.9601839,9.06317241 C27.3430805,8.65103448 27.988046,8.62786207 28.3990805,9.0102069 C28.8112184,9.39310345 28.8354943,10.0375172 28.4525977,10.4496552 C25.6796322,13.4361379 23.7557701,14.950069 22.7361839,14.950069 C21.415908,14.950069 20.5022529,13.4797241 19.4445977,11.7776552 C18.8294253,10.7878621 18.1314943,9.66565517 17.5797701,9.28882759 C17.2068046,9.03337931 16.7074943,9.10289655 16.4432184,9.44772414 L11.6525977,15.7153103 C11.5301149,15.8753103 11.4782529,16.0722759 11.5041839,16.2714483 C11.5301149,16.4706207 11.6332874,16.6471724 11.7927356,16.7691034 C11.9527356,16.8921379 12.148046,16.9451034 12.3488736,16.918069 C12.5474943,16.8910345 12.7251494,16.7889655 12.8465287,16.6295172 L16.6297011,11.6794483 C16.9712184,11.232 17.6106667,11.1481379 18.0575632,11.4885517 C18.5044598,11.830069 18.589977,12.4695172 18.2484598,12.9164138 L14.4652874,17.8664828 C14.0128736,18.457931 13.3568736,18.8386207 12.6186667,18.9368276 C12.4934253,18.953931 12.3687356,18.9622069 12.244046,18.9622069 Z" id="Shape" fill-rule="nonzero"></path>
                                <path d="M21.5290115,7.7622069 C19.3894253,7.7622069 17.6487356,6.02151724 17.6487356,3.88193103 C17.6487356,1.7417931 19.3894253,0 21.5290115,0 C23.0070805,0.000551724138 24.3781149,0.859586207 25.021977,2.18868966 C25.2669425,2.69462069 25.0561839,3.30372414 24.5502529,3.54924138 C24.0437701,3.79475862 23.4352184,3.584 23.1891494,3.07696552 C22.8785287,2.43586207 22.2418391,2.03751724 21.5284598,2.03696552 C20.5121839,2.03696552 19.6851494,2.86455172 19.6851494,3.88193103 C19.6851494,4.8982069 20.5121839,5.72468966 21.5290115,5.72468966 C22.2716322,5.72468966 22.9386667,5.28275862 23.2277701,4.59806897 C23.4468046,4.08055172 24.0443218,3.8377931 24.5623908,4.05627586 C25.0804598,4.27531034 25.3232184,4.87282759 25.1036322,5.39089655 C24.4956322,6.832 23.092046,7.7622069 21.5290115,7.7622069 Z" id="Shape" fill-rule="nonzero"></path>
                                <path d="M2.58170115,31.830069 C1.27135632,31.830069 0.643494253,31.2706207 0.348321839,30.8016552 C-0.342988506,29.7053793 0.245149425,28.3470345 0.370390805,28.0855172 C0.412321839,27.9966897 0.467494253,27.9144828 0.533149425,27.8427586 L10.4183908,16.8965517 C10.7946667,16.4794483 11.437977,16.4452414 11.8567356,16.8231724 C12.2743908,17.2005517 12.3069425,17.8438621 11.9301149,18.2615172 L2.16128736,29.0791724 C2.0685977,29.3351724 2.03273563,29.6292414 2.07301149,29.7175172 L2.07356322,29.7175172 C2.08128736,29.7175172 2.20873563,29.7931034 2.58170115,29.7931034 C3.14445977,29.7931034 3.60018391,30.2488276 3.60018391,30.8115862 C3.60018391,31.3743448 3.14445977,31.830069 2.58170115,31.830069 Z" id="Shape" fill-rule="nonzero"></path>
                                <path d="M4.52928736,14.1942069 C4.2903908,14.1942069 4.05094253,14.1108966 3.85728736,13.9404138 C3.43466667,13.5691034 3.39328736,12.9257931 3.7645977,12.5031724 C8.51163218,7.10344828 9.45618391,7.10344828 9.86004598,7.10344828 L17.2194943,7.10344828 C17.7822529,7.10344828 18.237977,7.55972414 18.237977,8.12193103 C18.237977,8.68413793 17.7822529,9.14041379 17.2194943,9.14041379 L10.0073563,9.14041379 C9.31714943,9.53268966 7.05949425,11.8394483 5.29452874,13.8477241 C5.09314943,14.0766897 4.81177011,14.1942069 4.52928736,14.1942069 Z" id="Shape" fill-rule="nonzero"></path>
                            </g>
                        </g>
                    </g>
                </g>
            </g>
        </g>
    </g>
</svg>
