<?xml version="1.0" encoding="UTF-8"?>
<svg width="41px" height="40px" viewBox="0 0 41 40" version="1.1" xmlns="http://www.w3.org/2000/svg" xmlns:xlink="http://www.w3.org/1999/xlink">
    <!-- Generator: Sketch 50.2 (55047) - http://www.bohemiancoding.com/sketch -->
    <title>timer</title>
    <desc>Created with Sketch.</desc>
    <defs></defs>
    <g id="Page-1" stroke="none" stroke-width="1" fill="none" fill-rule="evenodd">
        <g id="timer" fill="#ffffff" fill-rule="nonzero">
            <path d="M19.6266667,33.5655467 C19.1573333,33.5655467 18.7733333,33.9495467 18.7733333,34.41888 L18.7733333,34.8455467 C18.7733333,35.31488 19.1573333,35.69888 19.6266667,35.69888 C20.096,35.69888 20.48,35.31488 20.48,34.8455467 L20.48,34.41888 C20.48,33.9495467 20.096,33.5655467 19.6266667,33.5655467 Z" id="Shape"></path>
            <path d="M5.54666667,19.4855467 L5.12,19.4855467 C4.65066667,19.4855467 4.26666667,19.8695467 4.26666667,20.33888 C4.26666667,20.8082133 4.65066667,21.1922133 5.12,21.1922133 L5.54666667,21.1922133 C6.016,21.1922133 6.4,20.8082133 6.4,20.33888 C6.4,19.8695467 6.016,19.4855467 5.54666667,19.4855467 Z" id="Shape"></path>
            <path d="M33.7066667,21.1922133 L34.1333333,21.1922133 C34.6026667,21.1922133 34.9866667,20.8082133 34.9866667,20.33888 C34.9866667,19.8695467 34.6026667,19.4855467 34.1333333,19.4855467 L33.7066667,19.4855467 C33.2373333,19.4855467 32.8533333,19.8695467 32.8533333,20.33888 C32.8533333,20.8082133 33.2373333,21.1922133 33.7066667,21.1922133 Z" id="Shape"></path>
            <path d="M9.984,9.50154667 C9.64266667,9.16021333 9.13066667,9.16021333 8.78933333,9.50154667 C8.448,9.84288 8.448,10.35488 8.78933333,10.6962133 L9.088,10.99488 C9.25866667,11.1655467 9.472,11.25088 9.68533333,11.25088 C9.89866667,11.25088 10.112,11.1655467 10.2826667,10.99488 C10.624,10.6535467 10.624,10.1415467 10.2826667,9.80021333 L9.984,9.50154667 Z" id="Shape"></path>
            <path d="M30.1653333,29.68288 C29.824,29.3415467 29.312,29.3415467 28.9706667,29.68288 C28.6293333,30.0242133 28.6293333,30.5362133 28.9706667,30.8775467 L29.2693333,31.1762133 C29.44,31.34688 29.6533333,31.4322133 29.8666667,31.4322133 C30.08,31.4322133 30.2933333,31.34688 30.464,31.1762133 C30.8053333,30.83488 30.8053333,30.32288 30.464,29.9815467 L30.1653333,29.68288 Z" id="Shape"></path>
            <path d="M9.088,29.68288 L8.78933333,29.9815467 C8.448,30.32288 8.448,30.83488 8.78933333,31.1762133 C8.96,31.34688 9.17333333,31.4322133 9.38666667,31.4322133 C9.6,31.4322133 9.81333333,31.34688 9.984,31.1762133 L10.2826667,30.8775467 C10.624,30.5362133 10.624,30.0242133 10.2826667,29.68288 C9.94133333,29.3415467 9.42933333,29.3415467 9.088,29.68288 Z" id="Shape"></path>
            <path d="M29.2693333,9.50154667 L28.9706667,9.80021333 C28.6293333,10.1415467 28.6293333,10.6535467 28.9706667,10.99488 C29.1413333,11.1655467 29.3546667,11.25088 29.568,11.25088 C29.7813333,11.25088 29.9946667,11.1655467 30.1653333,10.99488 L30.464,10.6962133 C30.8053333,10.35488 30.8053333,9.84288 30.464,9.50154667 C30.1226667,9.16021333 29.6106667,9.16021333 29.2693333,9.50154667 Z" id="Shape"></path>
            <path d="M20.48,16.1575467 L20.48,7.11221333 C20.48,6.64288 20.096,6.25888 19.6266667,6.25888 C19.1573333,6.25888 18.7733333,6.64288 18.7733333,7.11221333 L18.7733333,16.1575467 C16.8106667,16.5415467 15.36,18.29088 15.36,20.33888 C15.36,22.6855467 17.28,24.6055467 19.6266667,24.6055467 C21.9733333,24.6055467 23.8933333,22.6855467 23.8933333,20.33888 C23.8933333,18.29088 22.4426667,16.5415467 20.48,16.1575467 Z M19.6266667,22.89888 C18.2186667,22.89888 17.0666667,21.74688 17.0666667,20.33888 C17.0666667,18.93088 18.2186667,17.77888 19.6266667,17.77888 C21.0346667,17.77888 22.1866667,18.93088 22.1866667,20.33888 C22.1866667,21.74688 21.0346667,22.89888 19.6266667,22.89888 Z" id="Shape"></path>
            <path d="M40.1066667,3.74154667 L37.0773333,0.712213333 C36.6506667,0.285546667 36.096,0.0722133333 35.4986667,0.0722133333 C34.944,0.0722133333 34.432,0.328213333 34.048,0.712213333 L33.4506667,1.30954667 C33.024,1.73621333 32.8106667,2.29088 32.8106667,2.88821333 C32.8106667,3.44288 33.0666667,3.95488 33.4506667,4.33888 L34.3466667,5.23488 L33.28,6.30154667 C29.7813333,2.84554667 24.96,0.712213333 19.6266667,0.712213333 C8.78933333,0.712213333 -5.68434189e-14,9.50154667 -5.68434189e-14,20.33888 C-5.68434189e-14,31.1762133 8.78933333,39.9655467 19.6266667,39.9655467 C30.464,39.9655467 39.2533333,31.1762133 39.2533333,20.33888 C39.2533333,15.4322133 37.4613333,10.99488 34.4746667,7.53888 L35.584,6.42954667 L36.48,7.32554667 C36.9066667,7.75221333 37.4186667,7.96554667 37.9733333,7.96554667 C38.528,7.96554667 39.04,7.75221333 39.4666667,7.32554667 L40.0213333,6.77088 C40.448,6.38688 40.6613333,5.83221333 40.6613333,5.23488 C40.7466667,4.63754667 40.4906667,4.12554667 40.1066667,3.74154667 Z M37.5466667,20.33888 C37.5466667,30.2375467 29.5253333,38.25888 19.6266667,38.25888 C9.728,38.25888 1.70666667,30.2375467 1.70666667,20.33888 C1.70666667,10.4402133 9.728,2.41888 19.6266667,2.41888 C29.5253333,2.41888 37.5466667,10.4402133 37.5466667,20.33888 Z M38.912,5.53354667 L38.3146667,6.13088 C38.144,6.30154667 37.888,6.30154667 37.7173333,6.13088 L34.6453333,3.05888 C34.56,2.97354667 34.56,2.88821333 34.5173333,2.80288 C34.5173333,2.71754667 34.5173333,2.58954667 34.6453333,2.50421333 L35.2853333,1.86421333 C35.3706667,1.77888 35.456,1.77888 35.5413333,1.73621333 C35.6266667,1.73621333 35.7546667,1.73621333 35.84,1.86421333 L38.8693333,4.89354667 C38.8693333,4.89354667 38.8693333,4.89354667 38.912,4.93621333 C38.9973333,4.97888 39.04,5.10688 39.04,5.19221333 C39.04,5.27754667 38.9973333,5.44821333 38.912,5.53354667 Z" id="Shape"></path>
        </g>
    </g>
</svg>
